G04 EasyPC Gerber Version 21.0.3 Build 4286 *
G04 #@! TF.Part,Single*
G04 #@! TF.FileFunction,Legend,Top *
G04 #@! TF.FilePolarity,Positive *
%FSLAX45Y45*%
%MOIN*%
%ADD19C,0.00100*%
%ADD21C,0.00197*%
%ADD18C,0.00276*%
%ADD17C,0.00394*%
%ADD113C,0.00472*%
%ADD70C,0.00500*%
%ADD20C,0.00787*%
%ADD71C,0.01000*%
%ADD22C,0.01575*%
X0Y0D02*
D02*
D17*
X83565Y167113D02*
Y162933D01*
X84272Y162862*
G75*
G02X84615Y162819I-768J-7585*
G01*
G75*
G02X84834Y162770I-214J-1459*
G01*
G75*
G02X84971Y162708I-175J-571*
G01*
G75*
G02X85037Y162626I-82J-133*
G01*
G75*
G03X85163Y162386I881J310*
G01*
G75*
G03X85355Y162188I796J581*
G01*
G75*
G03X85586Y162057I560J719*
G01*
G75*
G03X85826Y162013I241J622*
G01*
G75*
G02X85956Y162005I-1J-1146*
G01*
G75*
G02X86075Y161983I-99J-870*
G01*
G75*
G02X86170Y161951I-167J-651*
G01*
G75*
G02X86215Y161913I-38J-91*
G01*
G75*
G03X86297Y161865I85J52*
G01*
G75*
G03X87420Y161838I7604J291089*
G01*
G75*
G03X88824Y161819I1951J89069*
G01*
G75*
G03X90752Y161813I1909J308554*
G01*
G75*
G02X93214Y161807I-17J-600317*
G01*
G75*
G02X94442Y161785I-193J-44979*
G01*
G75*
G02X95195Y161749I-721J-22836*
G01*
G75*
G02X95420Y161666I-26J-417*
G01*
G75*
G03X95505Y161609I519J683*
G01*
G75*
G03X95599Y161561I495J851*
G01*
G75*
G03X95688Y161527I353J784*
G01*
G75*
G03X95755Y161516I72J227*
G01*
G75*
G02X96061Y161445I-18J-774*
G01*
G75*
G02X96519Y161205I-2131J-4631*
G01*
G75*
G02X96963Y160911I-2529J-4288*
G01*
G75*
G02X97242Y160639I-882J-1185*
G01*
G75*
G02X97645Y160024I-3333J-2623*
G01*
G75*
G02X97974Y159297I-5148J-2766*
G01*
G75*
G02X98193Y158554I-5215J-1940*
G01*
G75*
G02X98265Y157891I-3004J-664*
G01*
Y157513*
X98771*
G75*
G02X99137Y157491I-2J-3084*
G01*
G75*
G02X99420Y157423I-148J-1243*
G01*
G75*
G02X99602Y157318I-214J-581*
G01*
G75*
G02X99666Y157184I-113J-135*
G01*
G75*
G03X99691Y157125I84J1*
G01*
G75*
G03X99789Y157039I750J765*
G01*
G75*
G03X99924Y156948I826J1076*
G01*
G75*
G03X100084Y156863I1052J1775*
G01*
G75*
G03X100448Y156748I588J1226*
G01*
G75*
G03X100963Y156692I742J4433*
G01*
G75*
G03X101862Y156667I981J19589*
G01*
G75*
G03X104063Y156663I2187J506315*
G01*
G75*
G03X106177Y156667I20J464200*
G01*
G75*
G03X107099Y156691I-100J22243*
G01*
G75*
G03X107622Y156738I-278J5987*
G01*
G75*
G03X107893Y156839I-87J648*
G01*
G75*
G03X108213Y157117I-865J1319*
G01*
G75*
G03X108396Y157437I-686J604*
G01*
G75*
G03X108493Y157921I-1993J650*
G01*
G75*
G03X108545Y158837I-21256J1683*
G01*
G75*
G03X108549Y160158I-20001J720*
G01*
G75*
G03X108452Y161231I-8926J-265*
G01*
G75*
G03X108246Y162140I-6407J-973*
G01*
G75*
G03X107920Y162957I-4946J-1500*
G01*
G75*
G03X107287Y164005I-7011J-3519*
G01*
G75*
G03X106456Y165024I-8493J-6082*
G01*
G75*
G03X105545Y165887I-7101J-6578*
G01*
G75*
G03X104678Y166456I-2923J-3515*
G01*
G75*
G03X103599Y166854I-2296J-4557*
G01*
G75*
G03X102380Y167037I-1600J-6520*
G01*
G75*
G03X100231Y167100I-2257J-39815*
G01*
G75*
G03X93140Y167111I-7553J-2673193*
G01*
X83565Y167113*
X83988Y159487D02*
G75*
G03X84024Y158924I13926J604D01*
G01*
G75*
G03X84080Y158460I6617J561*
G01*
G75*
G03X84160Y158052I5056J783*
G01*
G75*
G03X84272Y157663I4457J1071*
G01*
G75*
G03X84583Y156939I4546J1528*
G01*
G75*
G03X85040Y156191I6462J3434*
G01*
G75*
G03X85586Y155499I6068J4223*
G01*
G75*
G03X86166Y154943I3820J3402*
G01*
G75*
G02X86456Y154705I-243152J-296990*
G01*
G75*
G02X86793Y154428I-440327J-537130*
G01*
G75*
G02X87123Y154157I-431559J-525222*
G01*
G75*
G02X87391Y153937I-185301J-225352*
G01*
G75*
G03X87620Y153752I7753J9402*
G01*
G75*
G03X87833Y153590I5168J6578*
G01*
G75*
G03X88015Y153460I5536J7558*
G01*
G75*
G03X88091Y153423I159J227*
G01*
G75*
G02X88155Y153396I-121J-383*
G01*
G75*
G02X88256Y153341I-1234J-2370*
G01*
G75*
G02X88369Y153272I-1514J-2610*
G01*
G75*
G02X88480Y153198I-1659J-2609*
G01*
G75*
G03X88597Y153127I621J889*
G01*
G75*
G03X88728Y153067I624J1183*
G01*
G75*
G03X88852Y153025I437J1100*
G01*
G75*
G03X88949Y153013I96J356*
G01*
G75*
G02X89032Y153005I0J-464*
G01*
G75*
G02X89111Y152983I-81J-449*
G01*
G75*
G02X89176Y152951I-130J-344*
G01*
G75*
G02X89215Y152913I-62J-102*
G01*
G75*
G03X89255Y152874I94J57*
G01*
G75*
G03X89328Y152842I211J381*
G01*
G75*
G03X89419Y152820I176J528*
G01*
G75*
G03X89515Y152813I94J619*
G01*
G75*
G02X89611Y152805I-1J-624*
G01*
G75*
G02X89701Y152783I-86J-550*
G01*
G75*
G02X89774Y152751I-138J-413*
G01*
G75*
G02X89815Y152713I-53J-96*
G01*
G75*
G03X89860Y152674I83J50*
G01*
G75*
G03X89958Y152642I269J659*
G01*
G75*
G03X90081Y152620I224J894*
G01*
G75*
G03X90215Y152613I132J1221*
G01*
G75*
G02X90349Y152605I-1J-1225*
G01*
G75*
G02X90472Y152583I-101J-917*
G01*
G75*
G02X90569Y152551I-172J-691*
G01*
G75*
G02X90615Y152513I-37J-90*
G01*
G75*
G03X90675Y152473I73J44*
G01*
G75*
G03X90919Y152442I852J5725*
G01*
G75*
G03X91220Y152420I501J4776*
G01*
G75*
G03X91565Y152413I341J8198*
G01*
G75*
G02X91909Y152405I-6J-8196*
G01*
G75*
G02X92210Y152383I-200J-4798*
G01*
G75*
G02X92455Y152352I-608J-5756*
G01*
G75*
G02X92515Y152313I-12J-85*
G01*
G75*
G03X92575Y152273I73J44*
G01*
G75*
G03X92819Y152242I852J5725*
G01*
G75*
G03X93120Y152220I501J4776*
G01*
G75*
G03X93465Y152213I341J8198*
G01*
G75*
G02X93809Y152205I-6J-8196*
G01*
G75*
G02X94110Y152183I-200J-4798*
G01*
G75*
G02X94355Y152152I-608J-5756*
G01*
G75*
G02X94415Y152113I-12J-85*
G01*
G75*
G03X94460Y152074I83J50*
G01*
G75*
G03X94558Y152042I269J659*
G01*
G75*
G03X94681Y152020I224J894*
G01*
G75*
G03X94815Y152013I132J1221*
G01*
G75*
G02X94949Y152005I-1J-1225*
G01*
G75*
G02X95072Y151983I-101J-917*
G01*
G75*
G02X95169Y151951I-172J-691*
G01*
G75*
G02X95215Y151913I-37J-90*
G01*
G75*
G03X95255Y151874I95J58*
G01*
G75*
G03X95326Y151842I208J367*
G01*
G75*
G03X95415Y151820I174J511*
G01*
G75*
G03X95508Y151813I91J583*
G01*
G75*
G02X95748Y151779I-1J-884*
G01*
G75*
G02X96085Y151667I-1054J-3745*
G01*
G75*
G02X96554Y151471I-2900J-7565*
G01*
G75*
G02X97244Y151147I-16230J-35467*
G01*
G75*
G02X98154Y150576I-2080J-4325*
G01*
G75*
G02X98891Y149827I-2739J-3435*
G01*
G75*
G02X99400Y148963I-3153J-2438*
G01*
G75*
G02X99637Y148051I-2868J-1232*
G01*
X99693Y147513*
X100209*
G75*
G02X100530Y147500I-2J-4126*
G01*
G75*
G02X100697Y147451I-33J-426*
G01*
G75*
G02X100834Y147339I-210J-396*
G01*
G75*
G02X101036Y147073I-3663J-2988*
G01*
G75*
G03X101239Y146813I2731J1922*
G01*
G75*
G03X101402Y146680I461J400*
G01*
G75*
G03X101619Y146596I403J718*
G01*
G75*
G03X102042Y146509I1912J8236*
G01*
G75*
G03X102645Y146442I812J4541*
G01*
G75*
G03X103418Y146432I539J11968*
G01*
G75*
G03X104596Y146476I-648J33686*
G01*
G75*
G03X106765Y146600I-18190J334956*
G01*
G75*
G03X107772Y146675I-2365J38850*
G01*
G75*
G03X108303Y146761I-319J3658*
G01*
G75*
G03X108643Y146894I-303J1274*
G01*
G75*
G03X108915Y147111I-529J940*
G01*
G75*
G03X109026Y147301I-404J364*
G01*
G75*
G03X109083Y147565I-1130J383*
G01*
G75*
G03X109107Y148017I-4848J484*
G01*
G75*
G03X109109Y149048I-99493J744*
G01*
G75*
G03X109099Y150156I-93904J-314*
G01*
G75*
G03X109065Y150624I-4101J-61*
G01*
G75*
G03X108981Y150972I-1670J-218*
G01*
G75*
G03X108801Y151413I-4809J-1713*
G01*
G75*
G03X108673Y151671I-5520J-2569*
G01*
G75*
G03X108539Y151912I-4474J-2346*
G01*
G75*
G03X108414Y152109I-3912J-2335*
G01*
G75*
G03X108331Y152200I-349J-234*
G01*
G75*
G02X108268Y152259I474J576*
G01*
G75*
G02X108214Y152323I463J444*
G01*
G75*
G02X108176Y152383I412J305*
G01*
G75*
G02X108165Y152426I80J43*
G01*
G75*
G03X108100Y152609I-292*
G01*
G75*
G03X107650Y153152I-19390J-15613*
G01*
G75*
G03X107174Y153682I-10253J-8738*
G01*
G75*
G03X106781Y154048I-3222J-3057*
G01*
G75*
G03X105842Y154678I-3604J-4360*
G01*
G75*
G03X104806Y155100I-2546J-4764*
G01*
G75*
G03X103513Y155364I-2246J-7724*
G01*
G75*
G03X101753Y155511I-2972J-24931*
G01*
G75*
G02X100419Y155612I1201J24689*
G01*
G75*
G02X99019Y155789I3128J30418*
G01*
G75*
G02X97781Y156001I4411J29444*
G01*
G75*
G02X97115Y156206I617J3183*
G01*
G75*
G03X97014Y156248I-1487J-3481*
G01*
G75*
G03X96871Y156304I-5404J-13543*
G01*
G75*
G03X96713Y156363I-5756J-15008*
G01*
G75*
G03X96565Y156417I-4366J-11784*
G01*
G75*
G02X95805Y156758I1824J5090*
G01*
G75*
G02X95096Y157215I2706J4978*
G01*
G75*
G02X94525Y157722I2901J3841*
G01*
G75*
G02X94189Y158213I1313J1259*
G01*
G75*
G03X94097Y158375I-1068J-500*
G01*
G75*
G03X93950Y158577I-3080J-2081*
G01*
G75*
G03X93778Y158783I-3207J-2506*
G01*
G75*
G03X93604Y158963I-2239J-1991*
G01*
G75*
G02X93377Y159200I2327J2450*
G01*
G75*
G02X93238Y159404I824J715*
G01*
G75*
G02X93143Y159639I1048J557*
G01*
G75*
G02X93061Y159987I4311J1203*
G01*
X92939Y160613*
X83940*
X83988Y159487*
X90865Y153317D02*
G75*
G02X92137Y153213I-1913J-31378D01*
G01*
G75*
G02X93175Y153069I-1456J-14298*
G01*
G75*
G02X94086Y152869I-1918J-10890*
G01*
G75*
G02X94965Y152594I-2692J-10150*
G01*
G75*
G02X95578Y152349I-3294J-9128*
G01*
G75*
G02X96176Y152061I-4011J-9107*
G01*
G75*
G02X96391Y151911I-477J-913*
G01*
G75*
G02X96365Y151863I-19J-21*
G01*
G75*
G03X96249Y151893I-1161J-4252*
G01*
G75*
G03X96107Y151926I-2335J-9485*
G01*
G75*
G03X95963Y151958I-2212J-9678*
G01*
G75*
G03X95839Y151983I-1117J-5178*
G01*
G75*
G02X95729Y152010I209J1110*
G01*
G75*
G02X95628Y152046I264J896*
G01*
G75*
G02X95546Y152086I296J700*
G01*
G75*
G02X95507Y152124I55J96*
G01*
G75*
G03X95466Y152158I-70J-43*
G01*
G75*
G03X95370Y152186I-265J-730*
G01*
G75*
G03X95248Y152206I-219J-963*
G01*
G75*
G03X95115Y152213I-136J-1371*
G01*
G75*
G02X94981Y152220I-2J1228*
G01*
G75*
G02X94858Y152242I101J917*
G01*
G75*
G02X94760Y152274I172J691*
G01*
G75*
G02X94715Y152313I37J89*
G01*
G75*
G03X94655Y152352I-72J-45*
G01*
G75*
G03X94410Y152383I-852J-5725*
G01*
G75*
G03X94109Y152405I-501J-4776*
G01*
G75*
G03X93765Y152413I-350J-8188*
G01*
G75*
G02X93420Y152420I-4J8205*
G01*
G75*
G02X93119Y152442I200J4798*
G01*
G75*
G02X92875Y152473I608J5756*
G01*
G75*
G02X92815Y152513I13J84*
G01*
G75*
G03X92755Y152552I-72J-45*
G01*
G75*
G03X92510Y152583I-852J-5725*
G01*
G75*
G03X92209Y152605I-501J-4776*
G01*
G75*
G03X91865Y152613I-350J-8188*
G01*
G75*
G02X91520Y152620I-4J8205*
G01*
G75*
G02X91219Y152642I200J4798*
G01*
G75*
G02X90975Y152673I608J5756*
G01*
G75*
G02X90915Y152713I13J84*
G01*
G75*
G03X90869Y152751I-82J-51*
G01*
G75*
G03X90772Y152783I-269J-659*
G01*
G75*
G03X90649Y152805I-224J-894*
G01*
G75*
G03X90515Y152813I-135J-1218*
G01*
G75*
G02X90381Y152820I-2J1228*
G01*
G75*
G02X90258Y152842I101J917*
G01*
G75*
G02X90160Y152874I172J691*
G01*
G75*
G02X90115Y152913I37J89*
G01*
G75*
G03X90074Y152951I-93J-58*
G01*
G75*
G03X90001Y152983I-211J-381*
G01*
G75*
G03X89911Y153005I-176J-528*
G01*
G75*
G03X89815Y153013I-96J-616*
G01*
G75*
G02X89719Y153020I-2J626*
G01*
G75*
G02X89628Y153042I86J550*
G01*
G75*
G02X89555Y153074I138J413*
G01*
G75*
G02X89515Y153113I54J96*
G01*
G75*
G03X89475Y153151I-94J-59*
G01*
G75*
G03X89403Y153183I-208J-367*
G01*
G75*
G03X89315Y153205I-174J-509*
G01*
G75*
G03X89221Y153213I-94J-585*
G01*
G75*
G02X89122Y153225J406*
G01*
G75*
G02X89017Y153261I152J613*
G01*
G75*
G02X88922Y153315I253J559*
G01*
G75*
G02X88852Y153378I191J280*
G01*
G75*
G02X88778Y153475I1143J945*
G01*
G75*
G02X88785Y153507I19J13*
G01*
G75*
G02X88833Y153516I35J-57*
G01*
G75*
G02X89015Y153478I-1269J-6579*
G01*
G75*
G03X89207Y153447I351J1578*
G01*
G75*
G03X89682Y153403I4100J41574*
G01*
G75*
G03X90249Y153358I3394J38952*
G01*
G75*
G03X90865Y153317I3924J53841*
G01*
X94119Y162658D02*
G75*
G02X94573Y162518I-1367J-5253D01*
G01*
G75*
G02X95143Y162302I-4825J-13590*
G01*
G75*
G02X95716Y162066I-17222J-42635*
G01*
G75*
G02X95765Y161993I-31J-73*
G01*
G75*
G02X95703Y161932I-62*
G01*
G75*
G02X91175Y161991I159934J12355036*
G01*
G75*
G02X86671Y162053I115047J8601165*
G01*
G75*
G02X86521Y162116I3J217*
G01*
G75*
G03X86464Y162154I-117J-116*
G01*
G75*
G03X86365Y162184I-288J-750*
G01*
G75*
G03X86248Y162206I-233J-951*
G01*
G75*
G03X86126Y162213I-121J-1036*
G01*
G75*
G02X85900Y162258I-1J578*
G01*
G75*
G02X85641Y162400I594J1396*
G01*
G75*
G02X85428Y162577I808J1190*
G01*
G75*
G02X85365Y162730I154J152*
G01*
G75*
G02X85398Y162764I33*
G01*
G75*
G02X86563Y162788I15784J-725747*
G01*
G75*
G02X87880Y162806I2091J-104177*
G01*
G75*
G02X89444Y162813I1614J-206495*
G01*
G75*
G02X91633Y162806I-55J-399426*
G01*
G75*
G02X92856Y162783I-244J-44353*
G01*
G75*
G02X93636Y162739I-553J-16843*
G01*
G75*
G02X94119Y162658I-222J-2799*
G01*
X107932Y162236D02*
G75*
G02X108131Y161637I-2580J-1187D01*
G01*
G75*
G02X108272Y160782I-9544J-2017*
G01*
G75*
G02X108347Y159815I-11379J-1367*
G01*
G75*
G02X108339Y158849I-11248J-396*
G01*
G75*
G02X108279Y158111I-12272J630*
G01*
G75*
G02X108174Y157691I-1600J179*
G01*
G75*
G02X107978Y157383I-917J367*
G01*
G75*
G02X107626Y157069I-1951J1827*
G01*
G75*
G02X107359Y156948I-407J546*
G01*
G75*
G02X106933Y156891I-594J2830*
G01*
G75*
G02X106153Y156867I-837J14488*
G01*
G75*
G02X104076Y156863I-2064J491785*
G01*
G75*
G02X102066Y156867I-42J409888*
G01*
G75*
G02X101226Y156892I84J17069*
G01*
G75*
G02X100739Y156948I219J4033*
G01*
G75*
G02X100385Y157063I241J1356*
G01*
G75*
G02X100148Y157287I229J479*
G01*
G75*
G02X100227Y157445I94J51*
G01*
G75*
G02X101053Y157509I912J-6468*
G01*
G75*
G02X103740Y157536I5600J-414956*
G01*
X107515Y157563*
X107541Y160137*
G75*
G02X107557Y161125I92599J-983*
G01*
G75*
G02X107582Y161956I46674J-978*
G01*
G75*
G02X107611Y162682I228811J-8932*
G01*
G75*
G02X107641Y162711I30J-1*
G01*
G75*
G02X107680Y162690I-1J-48*
G01*
G75*
G02X107757Y162570I-2284J-1570*
G01*
G75*
G02X107844Y162417I-2111J-1292*
G01*
G75*
G02X107932Y162236I-3787J-1965*
G01*
X108669Y151039D02*
G75*
G02X108793Y150719I-2039J-976D01*
G01*
G75*
G02X108860Y150398I-1820J-549*
G01*
G75*
G02X108893Y149947I-4595J-559*
G01*
G75*
G02X108906Y149096I-49678J-1161*
G01*
G75*
G02X108906Y148154I-83949J-541*
G01*
G75*
G02X108880Y147789I-2750J16*
G01*
G75*
G02X108809Y147566I-687J94*
G01*
G75*
G02X108665Y147361I-811J419*
G01*
G75*
G02X108278Y147073I-996J932*
G01*
G75*
G02X107797Y146921I-720J1443*
G01*
G75*
G02X106908Y146827I-1521J10127*
G01*
G75*
G02X103915Y146648I-44613J723555*
G01*
G75*
G02X103084Y146634I-590J10197*
G01*
G75*
G02X102382Y146698I126J5318*
G01*
G75*
G02X101835Y146829I552J3504*
G01*
G75*
G02X101496Y147030I281J859*
G01*
G75*
G02X101388Y147286I235J250*
G01*
G75*
G02X101530Y147450I169J-3*
G01*
G75*
G02X102228Y147509I766J-4832*
G01*
G75*
G02X104690Y147536I5564J-398372*
G01*
X108115Y147563*
X108172Y149563*
G75*
G02X108196Y150331I247509J-7219*
G01*
G75*
G02X108218Y150984I128899J-4107*
G01*
G75*
G02X108240Y151567I1076944J-39730*
G01*
G75*
G02X108247Y151593I59J-2*
G01*
G75*
G02X108305Y151605I34J-19*
G01*
G75*
G02X108402Y151509I-311J-407*
G01*
G75*
G02X108526Y151318I-1237J-939*
G01*
G75*
G02X108669Y151039I-4746J-2613*
G01*
X114705Y147502D02*
G75*
G03X114604Y147335I386J-349D01*
G01*
G75*
G03X114548Y147110I950J-356*
G01*
G75*
G03X114521Y146745I3270J-423*
G01*
G75*
G03X114515Y146027I41018J-696*
G01*
Y144763*
X114860*
G75*
G03X115044Y144773I1J1643*
G01*
G75*
G03X115152Y144810I-29J257*
G01*
G75*
G03X115218Y144883I-95J152*
G01*
G75*
G03X115265Y145013I-545J269*
G01*
G75*
G02X115338Y145157I331J-77*
G01*
G75*
G02X115466Y145236I188J-163*
G01*
G75*
G02X115723Y145275I335J-1331*
G01*
G75*
G02X116453Y145313I3188J-55081*
G01*
G75*
G03X117365Y145385I-579J13140*
G01*
G75*
G03X117741Y145545I-81J712*
G01*
G75*
G03X117919Y145865I-320J387*
G01*
G75*
G03X117965Y146566I-5266J701*
G01*
G75*
G03X117957Y147002I-12267J-3*
G01*
G75*
G03X117924Y147216I-911J-33*
G01*
G75*
G03X117848Y147361I-384J-107*
G01*
G75*
G03X117701Y147505I-733J-602*
G01*
G75*
G03X117505Y147617I-478J-609*
G01*
G75*
G03X117271Y147678I-369J-942*
G01*
G75*
G03X116905Y147706I-422J-3117*
G01*
G75*
G03X116167Y147713I-753J-42333*
G01*
G75*
G03X115407Y147707I8J-49954*
G01*
G75*
G03X115065Y147680I42J-2688*
G01*
G75*
G03X114861Y147618I101J-704*
G01*
G75*
G03X114705Y147502I214J-452*
G01*
X115185Y147227D02*
G75*
G03X115127Y147152I75J-118D01*
G01*
G75*
G03X115093Y147000I805J-260*
G01*
G75*
G03X115078Y146776I1757J-230*
G01*
G75*
G03X115085Y146454I7191J-12*
G01*
X115115Y145763*
X116090Y145734*
G75*
G03X116917Y145731I476J16259*
G01*
G75*
G03X117255Y145822I-16J730*
G01*
G75*
G03X117417Y146040I-159J286*
G01*
G75*
G03X117465Y146496I-2135J457*
G01*
G75*
G03X117456Y146726I-2999J-4*
G01*
G75*
G03X117430Y146938I-2274J-174*
G01*
G75*
G03X117391Y147112I-1913J-330*
G01*
G75*
G03X117345Y147193I-174J-46*
G01*
G75*
G03X117135Y147285I-224J-224*
G01*
G75*
G03X116291Y147311I-1298J-28021*
G01*
G75*
G03X115458Y147309I-373J-23146*
G01*
G75*
G03X115185Y147227I11J-531*
G01*
X117082Y146947D02*
G75*
G02X117224Y146741I-362J-400D01*
G01*
G75*
G02X117263Y146485I-564J-217*
G01*
G75*
G02X117191Y146240I-589J38*
G01*
G75*
G02X117025Y146060I-442J242*
G01*
G75*
G02X116872Y145988I-330J503*
G01*
G75*
G02X116674Y145945I-354J1152*
G01*
G75*
G02X116412Y145927I-280J2147*
G01*
G75*
G02X116050Y145933I-67J7472*
G01*
X115315Y145963*
X115283Y146409*
G75*
G02X115304Y146772I1414J101*
G01*
G75*
G02X115435Y146979I326J-61*
G01*
G75*
G02X115711Y147085I335J-459*
G01*
G75*
G02X116251Y147113I540J-5279*
G01*
G75*
G02X116562Y147103I-7J-5332*
G01*
G75*
G02X116791Y147074I-96J-1669*
G01*
G75*
G02X116961Y147023I-183J-919*
G01*
G75*
G02X117082Y146947I-156J-381*
G01*
X117193Y147421D02*
G75*
G02X117464Y147280I-479J-1256D01*
G01*
G75*
G02X117638Y147102I-339J-506*
G01*
G75*
G02X117733Y146862I-564J-361*
G01*
G75*
G02X117761Y146530I-1755J-319*
G01*
G75*
G02X117673Y146019I-1581J11*
G01*
G75*
G02X117422Y145712I-548J192*
G01*
G75*
G02X116941Y145554I-591J990*
G01*
G75*
G02X116056Y145513I-881J9289*
G01*
G75*
G03X115483Y145507I5J-30328*
G01*
G75*
G03X115268Y145478I18J-925*
G01*
G75*
G03X115150Y145403I58J-224*
G01*
G75*
G03X115062Y145254I391J-331*
G01*
G75*
G02X115015Y145159I-549J209*
G01*
G75*
G02X114956Y145084I-320J193*
G01*
G75*
G02X114894Y145041I-161J166*
G01*
G75*
G02X114839Y145038I-31J67*
G01*
G75*
G02X114780Y145102I29J85*
G01*
G75*
G02X114744Y145296I1576J394*
G01*
G75*
G02X114721Y145593I3134J391*
G01*
G75*
G02X114715Y146039I15096J436*
G01*
G75*
G02X114722Y146609I22907J1*
G01*
G75*
G02X114753Y146887I1629J-39*
G01*
G75*
G02X114823Y147074I606J-121*
G01*
G75*
G02X114957Y147255I840J-484*
G01*
G75*
G02X115126Y147399I740J-698*
G01*
G75*
G02X115296Y147473I283J-415*
G01*
G75*
G02X115547Y147505I285J-1241*
G01*
G75*
G02X116076Y147513I538J-19326*
G01*
G75*
G02X116429Y147506I-10J-9284*
G01*
G75*
G02X116765Y147485I-290J-7699*
G01*
G75*
G02X117049Y147456I-579J-7023*
G01*
G75*
G02X117193Y147421I-74J-613*
G01*
X119111Y148189D02*
G75*
G03X119091Y148089I282J-109D01*
G01*
G75*
G03X119082Y147697I32430J-913*
G01*
G75*
G03X119080Y147233I21123J-340*
G01*
G75*
G03X119087Y146707I34432J176*
G01*
X119115Y145363*
X119815*
Y148263*
X119489Y148294*
G75*
G03X119348Y148298I-108J-1105*
G01*
G75*
G03X119235Y148281I16J-476*
G01*
G75*
G03X119155Y148244I73J-262*
G01*
G75*
G03X119111Y148189I67J-98*
G01*
X119615Y146804D02*
G75*
G02X119609Y146187I-35527J9D01*
G01*
G75*
G02X119587Y145878I-2741J47*
G01*
G75*
G02X119543Y145714I-637J84*
G01*
G75*
G02X119465Y145663I-78J32*
G01*
G75*
G02X119387Y145712J86*
G01*
G75*
G02X119339Y145866I543J255*
G01*
G75*
G02X119307Y146154I2351J403*
G01*
G75*
G02X119286Y146706I26658J1285*
G01*
G75*
G02X119275Y147431I30466J842*
G01*
G75*
G02X119302Y147789I2228J8*
G01*
G75*
G02X119373Y147952I352J-56*
G01*
G75*
G02X119490Y147987I83J-65*
G01*
G75*
G02X119550Y147920I-29J-87*
G01*
G75*
G02X119586Y147694I-2168J-459*
G01*
G75*
G02X119609Y147346I-4229J-448*
G01*
G75*
G02X119615Y146804I-23333J-542*
G01*
X120909Y167617D02*
G75*
G03X120635Y167438I321J-794D01*
G01*
G75*
G03X120341Y167105I1939J-2004*
G01*
G75*
G03X120084Y166698I2495J-1863*
G01*
G75*
G03X119917Y166289I1979J-1050*
G01*
G75*
G03X119406Y163967I15582J-4646*
G01*
G75*
G03X119083Y160963I41298J-5958*
G01*
G75*
G03X118970Y157790I44498J-3162*
G01*
G75*
G03X119108Y154913I30260J7*
G01*
G75*
G03X119246Y153670I42055J4033*
G01*
G75*
G03X119395Y152745I13474J1695*
G01*
G75*
G03X119571Y152026I7993J1573*
G01*
G75*
G03X119792Y151435I4123J1205*
G01*
G75*
G03X119982Y151104I1938J895*
G01*
G75*
G03X120216Y150841I1259J882*
G01*
G75*
G03X120467Y150670I763J852*
G01*
G75*
G03X120711Y150613I244J487*
G01*
G75*
G02X120811Y150595J-296*
G01*
G75*
G02X120935Y150539I-297J-818*
G01*
G75*
G02X121059Y150458I-485J-877*
G01*
G75*
G02X121165Y150363I-522J-689*
G01*
G75*
G03X121313Y150233I741J693*
G01*
G75*
G03X121461Y150159I304J424*
G01*
G75*
G03X121655Y150122I249J798*
G01*
G75*
G03X121965Y150113I304J4685*
G01*
G75*
G03X122476Y150167J2432*
G01*
G75*
G03X122769Y150342I-111J520*
G01*
G75*
G03X122922Y150680I-507J432*
G01*
G75*
G03X122965Y151288I-4254J609*
G01*
G75*
G03X122957Y151565I-5305J-4*
G01*
G75*
G03X122935Y151809I-3219J-168*
G01*
G75*
G03X122904Y152005I-3293J-423*
G01*
G75*
G03X122865Y152063I-85J-16*
G01*
G75*
G02X122751Y152266I126J204*
G01*
G75*
G02X122760Y153432I50890J188*
G01*
G75*
G02X122803Y154552I28845J-554*
G01*
G75*
G02X122921Y154994I1136J-66*
G01*
G75*
G02X123267Y155465I1538J-768*
G01*
G75*
G02X123696Y155686I582J-604*
G01*
G75*
G02X124191Y155639I166J-893*
G01*
G75*
G02X124731Y155330I-763J-1959*
G01*
G75*
G03X125755Y154530I81718J103483*
G01*
G75*
G03X126656Y153843I46543J60161*
G01*
G75*
G03X127457Y153244I172811J230375*
G01*
G75*
G03X127554Y153213I96J130*
G01*
G75*
G02X127595Y153202I-1J-91*
G01*
G75*
G02X127651Y153169I-202J-398*
G01*
G75*
G02X127710Y153121I-319J-456*
G01*
G75*
G02X127763Y153065I-422J-449*
G01*
G75*
G03X127895Y152941I560J463*
G01*
G75*
G03X128094Y152813I1215J1677*
G01*
G75*
G03X128470Y152610I5613J9930*
G01*
G75*
G03X129583Y152037I241887J468609*
G01*
G75*
G03X130055Y151803I8817J17175*
G01*
G75*
G03X130507Y151595I6650J13874*
G01*
G75*
G03X130893Y151431I5891J13386*
G01*
G75*
G03X131089Y151374I386J946*
G01*
G75*
G03X131278Y151355I201J1078*
G01*
G75*
G03X131603Y151357I111J8470*
G01*
G75*
G03X131979Y151374I-250J9520*
G01*
G75*
G03X132361Y151407I-669J10183*
G01*
G75*
G03X132888Y151470I-1672J16119*
G01*
G75*
G03X133181Y151534I-257J1875*
G01*
G75*
G03X133387Y151627I-252J832*
G01*
G75*
G03X133580Y151776I-616J994*
G01*
G75*
G03X133709Y151920I-929J968*
G01*
G75*
G03X133797Y152063I-603J472*
G01*
G75*
G03X133848Y152213I-606J287*
G01*
G75*
G03X133865Y152378I-787J166*
G01*
G75*
G03X133809Y152661I-744*
G01*
G75*
G03X133650Y152828I-296J-122*
G01*
G75*
G03X133379Y152876I-222J-465*
G01*
G75*
G03X132978Y152800I218J-2257*
G01*
G75*
G02X132786Y152752I-857J3015*
G01*
G75*
G02X132592Y152717I-652J3020*
G01*
G75*
G02X132422Y152697I-400J2658*
G01*
G75*
G02X132315Y152700I-39J440*
G01*
G75*
G02X131997Y152795I197J1244*
G01*
G75*
G02X131407Y153074I6409J14342*
G01*
G75*
G02X130794Y153398I6229J12519*
G01*
G75*
G02X130315Y153696I3037J5411*
G01*
G75*
G02X129181Y154544I10113J14699*
G01*
G75*
G02X127992Y155569I16989J20935*
G01*
G75*
G02X126961Y156554I20836J22807*
G01*
G75*
G02X126600Y157089I1205J1203*
G01*
G75*
G02X126530Y157281I1735J740*
G01*
G75*
G02X126514Y157416I371J113*
G01*
G75*
G02X126545Y157552I417J-23*
G01*
G75*
G02X126638Y157750I2166J-895*
G01*
G75*
G02X126882Y158088I1322J-698*
G01*
G75*
G02X127632Y158851I32167J-30869*
G01*
G75*
G02X128437Y159641I66460J-66914*
G01*
G75*
G02X128615Y159713I178J-183*
G01*
G75*
G03X128660Y159726J83*
G01*
G75*
G03X128802Y159822I-3746J5679*
G01*
G75*
G03X128968Y159944I-2857J4089*
G01*
G75*
G03X129151Y160087I-4956J6502*
G01*
G75*
G02X129341Y160238I10356J-12837*
G01*
G75*
G02X129527Y160381I8960J-11426*
G01*
G75*
G02X129688Y160502I8043J-10618*
G01*
G75*
G02X129778Y160563I792J-1073*
G01*
G75*
G03X129884Y160639I-471J769*
G01*
G75*
G03X130209Y160912I-37254J44552*
G01*
G75*
G03X130592Y161241I-27996J32972*
G01*
G75*
G03X131015Y161613I-43737J50333*
G01*
G75*
G02X131439Y161981I24286J-27491*
G01*
G75*
G02X131822Y162302I15023J-17525*
G01*
G75*
G02X132149Y162567I20731J-25271*
G01*
G75*
G02X132252Y162627I254J-318*
G01*
G75*
G03X132448Y162749I-238J600*
G01*
G75*
G03X132698Y163002I-2281J2506*
G01*
G75*
G03X132949Y163315I-2867J2557*
G01*
G75*
G03X133156Y163641I-2666J1917*
G01*
G75*
G03X133313Y164054I-1369J758*
G01*
G75*
G03X133371Y164543I-2307J521*
G01*
G75*
G03X133328Y164987I-2050J28*
G01*
G75*
G03X133177Y165251I-480J-100*
G01*
G75*
G02X133098Y165351I261J288*
G01*
G75*
G02X133028Y165504I1010J559*
G01*
G75*
G02X132971Y165689I1363J516*
G01*
G75*
G02X132937Y165888I1709J396*
G01*
G75*
G03X132893Y166139I-2065J-231*
G01*
G75*
G03X132823Y166328I-812J-194*
G01*
G75*
G03X132709Y166496I-764J-395*
G01*
G75*
G03X132526Y166684I-1729J-1502*
G01*
G75*
G03X132297Y166872I-1822J-1985*
G01*
G75*
G03X132117Y166963I-362J-496*
G01*
G75*
G03X131892Y167002I-268J-858*
G01*
G75*
G03X131473Y167013I-424J-8800*
G01*
G75*
G03X131190Y167006I7J-5930*
G01*
G75*
G03X130914Y166985I254J-5393*
G01*
G75*
G03X130678Y166956I476J-4748*
G01*
G75*
G03X130546Y166920I88J-589*
G01*
G75*
G03X130256Y166744I377J-947*
G01*
G75*
G03X128952Y165608I169264J-195633*
G01*
G75*
G03X127348Y164181I98045J-111835*
G01*
G75*
G03X125335Y162351I254204J-281537*
G01*
G75*
G02X124681Y161761I-36897J40278*
G01*
G75*
G02X124106Y161264I-20111J22685*
G01*
G75*
G02X123607Y160847I-45751J54272*
G01*
G75*
G02X123510Y160813I-96J117*
G01*
G75*
G02X123442Y160844J90*
G01*
G75*
G02X123396Y160928I164J143*
G01*
G75*
G02X123372Y161083I705J192*
G01*
G75*
G02X123365Y161343I4922J257*
G01*
G75*
G02X123371Y161552I3304J6*
G01*
G75*
G02X123392Y161744I2371J-156*
G01*
G75*
G02X123420Y161901I2112J-306*
G01*
G75*
G02X123456Y161967I136J-30*
G01*
G75*
G03X123494Y162034I-114J109*
G01*
G75*
G03X123534Y162196I-2552J719*
G01*
G75*
G03X123569Y162395I-2799J596*
G01*
G75*
G03X123594Y162613I-3919J550*
G01*
G75*
G02X123620Y162876I8666J-735*
G01*
G75*
G02X123663Y163221I25190J-2927*
G01*
G75*
G02X123712Y163585I26815J-3471*
G01*
G75*
G02X123762Y163913I17730J-2539*
G01*
G75*
G03X123844Y164609I-7869J1274*
G01*
G75*
G03X123832Y165149I-2868J210*
G01*
G75*
G03X123729Y165574I-1763J-204*
G01*
G75*
G03X123530Y165912I-1093J-415*
G01*
G75*
G02X123422Y166061I959J809*
G01*
G75*
G02X123338Y166224I1066J657*
G01*
G75*
G02X123283Y166385I1006J431*
G01*
G75*
G02X123265Y166530I564J144*
G01*
G75*
G03X123213Y166813I-799J-1*
G01*
G75*
G03X123058Y167110I-1341J-507*
G01*
G75*
G03X122831Y167375I-1282J-871*
G01*
G75*
G03X122562Y167564I-827J-893*
G01*
G75*
G03X122252Y167661I-433J-835*
G01*
G75*
G03X121748Y167702I-666J-5073*
G01*
G75*
G03X121240Y167693I-164J-5077*
G01*
G75*
G03X120909Y167617I74J-1074*
G01*
X121400Y147613D02*
G75*
G03X121161Y147460I285J-706D01*
G01*
G75*
G03X120994Y147229I534J-563*
G01*
G75*
G03X120896Y146907I1035J-491*
G01*
G75*
G03X120865Y146482I2852J-422*
G01*
G75*
G03X120876Y146148I5202J-2*
G01*
G75*
G03X120915Y145947I796J50*
G01*
G75*
G03X120999Y145787I533J178*
G01*
G75*
G03X121157Y145605I1375J1034*
G01*
G75*
G03X121347Y145441I1193J1193*
G01*
G75*
G03X121514Y145358I317J428*
G01*
G75*
G03X121736Y145321I262J895*
G01*
G75*
G03X122157Y145313I412J9806*
G01*
X122865*
Y145613*
G75*
G03X122853Y145789I-1326J-3*
G01*
G75*
G03X122807Y145868I-119J-16*
G01*
G75*
G03X122711Y145904I-107J-140*
G01*
G75*
G03X122477Y145913I-239J-3463*
G01*
G75*
G02X122315Y145923I-1J1227*
G01*
G75*
G02X122164Y145955I133J1005*
G01*
G75*
G02X122041Y146003I222J755*
G01*
G75*
G02X121965Y146063I100J205*
G01*
G75*
G02X121970Y146138I42J35*
G01*
G75*
G02X122076Y146187I131J-146*
G01*
G75*
G02X122374Y146208I327J-2482*
G01*
G75*
G02X123102Y146213I741J-63288*
G01*
X124365*
Y146755*
G75*
G03X124355Y147059I-4631J-4*
G01*
G75*
G03X124318Y147239I-674J-44*
G01*
G75*
G03X124241Y147372I-391J-137*
G01*
G75*
G03X124101Y147505I-761J-656*
G01*
G75*
G03X123912Y147616I-497J-632*
G01*
G75*
G03X123694Y147676I-351J-846*
G01*
G75*
G03X123363Y147703I-372J-2543*
G01*
G75*
G03X122726Y147706I-464J-29460*
G01*
G75*
G03X122285Y147697I86J-15632*
G01*
G75*
G03X121878Y147676I377J-11326*
G01*
G75*
G03X121540Y147648I815J-11616*
G01*
G75*
G03X121400Y147613I50J-504*
G01*
X121581Y147224D02*
G75*
G03X121532Y147175I80J-128D01*
G01*
G75*
G03X121496Y147094I313J-188*
G01*
G75*
G03X121478Y146999I424J-131*
G01*
G75*
G03X121481Y146901I443J-35*
G01*
G75*
G03X121541Y146764I274J39*
G01*
G75*
G03X121659Y146693I158J130*
G01*
G75*
G03X121911Y146667I266J1324*
G01*
G75*
G03X122663Y146663I752J65246*
G01*
G75*
G03X123355Y146667I15J48394*
G01*
G75*
G03X123639Y146693I-29J1938*
G01*
G75*
G03X123781Y146750I-55J337*
G01*
G75*
G03X123849Y146856I-97J137*
G01*
G75*
G03X123807Y147067I-278J54*
G01*
G75*
G03X123625Y147211I-312J-208*
G01*
G75*
G03X123254Y147290I-460J-1241*
G01*
G75*
G03X122620Y147311I-620J-9211*
G01*
G75*
G03X122264Y147304I27J-10324*
G01*
G75*
G03X121942Y147285I245J-6924*
G01*
G75*
G03X121675Y147258I637J-7573*
G01*
G75*
G03X121581Y147224I27J-224*
G01*
X123307Y147052D02*
G75*
G02X123424Y146959I-89J-234D01*
G01*
G75*
G02X123398Y146878I-44J-30*
G01*
G75*
G02X123127Y146826I-320J927*
G01*
G75*
G02X122615Y146813I-510J9994*
G01*
G75*
G02X122118Y146826I-4J9096*
G01*
G75*
G02X121838Y146878I61J1108*
G01*
G75*
G02X121801Y146957I18J57*
G01*
G75*
G02X121890Y147046I149J-59*
G01*
G75*
G02X122101Y147092I238J-589*
G01*
G75*
G02X122596Y147103I548J-13046*
G01*
G75*
G02X123091Y147096I53J-12867*
G01*
G75*
G02X123307Y147052I-24J-666*
G01*
X123863Y147249D02*
G75*
G02X124009Y147111I-1103J-1312D01*
G01*
G75*
G02X124098Y146986I-432J-406*
G01*
G75*
G02X124141Y146861I-360J-194*
G01*
G75*
G02X124145Y146724I-475J-82*
G01*
X124115Y146463*
X122816Y146413*
G75*
G03X122042Y146378I2286J-59069*
G01*
G75*
G03X121717Y146340I131J-2541*
G01*
G75*
G03X121554Y146277I83J-459*
G01*
G75*
G03X121480Y146169I86J-139*
G01*
G75*
G03X121507Y145990I270J-51*
G01*
G75*
G03X121641Y145842I350J183*
G01*
G75*
G03X121876Y145744I379J584*
G01*
G75*
G03X122184Y145713I306J1456*
G01*
G75*
G02X122330Y145705I-2J-1475*
G01*
G75*
G02X122453Y145683I-78J-789*
G01*
G75*
G02X122540Y145651I-126J-481*
G01*
G75*
G02X122539Y145574I-18J-39*
G01*
G75*
G02X122444Y145542I-235J543*
G01*
G75*
G02X122312Y145520I-216J889*
G01*
G75*
G02X122155Y145513I-156J1702*
G01*
G75*
G02X121767Y145594I0J964*
G01*
G75*
G02X121409Y145828I526J1198*
G01*
G75*
G02X121154Y146157I835J910*
G01*
G75*
G02X121065Y146513I668J355*
G01*
G75*
G02X121085Y146680I717J0*
G01*
G75*
G02X121143Y146837I680J-163*
G01*
G75*
G02X121247Y146996I836J-431*
G01*
G75*
G02X121405Y147172I1723J-1387*
G01*
G75*
G02X121636Y147378I1815J-1815*
G01*
G75*
G02X121817Y147469I316J-404*
G01*
G75*
G02X122064Y147505I274J-999*
G01*
G75*
G02X122647Y147513I584J-22799*
G01*
G75*
G02X123186Y147505I-1J-18514*
G01*
G75*
G02X123458Y147471I-45J-1489*
G01*
G75*
G02X123654Y147396I-143J-661*
G01*
G75*
G02X123863Y147249I-733J-1266*
G01*
X126140Y146606D02*
G75*
G03X126010Y146446I151J-254D01*
G01*
G75*
G03X125962Y146171I871J-294*
G01*
G75*
G03X126000Y145905I849J-17*
G01*
G75*
G03X126123Y145773I197J61*
G01*
G75*
G03X126230Y145749I135J350*
G01*
G75*
G03X126537Y145730I1052J14573*
G01*
G75*
G03X126905Y145717I642J12571*
G01*
G75*
G03X127311Y145713I402J18617*
G01*
G75*
G03X128060Y145731J15503*
G01*
G75*
G03X128382Y145815I-39J806*
G01*
G75*
G03X128524Y145996I-121J242*
G01*
G75*
G03X128546Y146331I-1015J235*
G01*
X128515Y146663*
X127415Y146686*
G75*
G03X126971Y146688I-279J-12929*
G01*
G75*
G03X126580Y146673I104J-7857*
G01*
G75*
G03X126263Y146647I481J-7697*
G01*
G75*
G03X126140Y146606I31J-302*
G01*
X127147Y147448D02*
G75*
G02X127107Y147281I-715J81D01*
G01*
G75*
G02X127033Y147196I-147J54*
G01*
G75*
G02X126883Y147150I-199J383*
G01*
G75*
G02X126500Y147113I-1293J11270*
G01*
G75*
G03X125982Y147031I289J-3545*
G01*
G75*
G03X125678Y146876I159J-683*
G01*
G75*
G03X125517Y146615I344J-393*
G01*
G75*
G03X125465Y146204I1573J-409*
G01*
G75*
G03X125476Y145944I3025J-2*
G01*
G75*
G03X125515Y145778I607J53*
G01*
G75*
G03X125592Y145649I403J154*
G01*
G75*
G03X125728Y145520I761J666*
G01*
G75*
G03X125926Y145407I474J602*
G01*
G75*
G03X126164Y145346I372J965*
G01*
G75*
G03X126540Y145319I430J3283*
G01*
G75*
G03X127309Y145313I769J46886*
G01*
G75*
G03X128410Y145339I5J22430*
G01*
G75*
G03X128822Y145477I-39J804*
G01*
G75*
G03X129015Y145785I-252J371*
G01*
G75*
G03X129065Y146501I-5060J716*
G01*
G75*
G03X129026Y147146I-5317*
G01*
G75*
G03X128876Y147461I-546J-67*
G01*
G75*
G03X128566Y147625I-404J-389*
G01*
G75*
G03X127913Y147696I-935J-5503*
G01*
X127180Y147733*
X127147Y147448*
X128305Y146429D02*
G75*
G02X128315Y146382I-60J-37D01*
G01*
G75*
G02X128297Y146306I-426J59*
G01*
G75*
G02X128259Y146218I-561J188*
G01*
G75*
G02X128205Y146129I-723J378*
G01*
G75*
G02X128092Y146014I-394J276*
G01*
G75*
G02X127952Y145950I-235J327*
G01*
G75*
G02X127734Y145920I-257J1052*
G01*
G75*
G02X127317Y145913I-409J11775*
G01*
G75*
G02X127024Y145917I-4J9706*
G01*
G75*
G02X126751Y145930I220J7283*
G01*
G75*
G02X126523Y145949I481J7169*
G01*
G75*
G02X126423Y145973I39J386*
G01*
G75*
G02X126304Y146061I98J255*
G01*
G75*
G02X126272Y146185I128J99*
G01*
G75*
G02X126340Y146313I220J-33*
G01*
G75*
G02X126490Y146409I330J-349*
G01*
G75*
G02X126810Y146481I378J-943*
G01*
G75*
G02X127479Y146504I826J-14143*
G01*
G75*
G02X128175Y146502I288J-26763*
G01*
G75*
G02X128305Y146429I-2J-155*
G01*
X128621Y147207D02*
G75*
G02X128815Y146903I-504J-536D01*
G01*
G75*
G02X128882Y146491I-1233J-412*
G01*
G75*
G02X128814Y146074I-1327J2*
G01*
G75*
G02X128619Y145758I-765J254*
G01*
G75*
G02X128442Y145620I-636J636*
G01*
G75*
G02X128254Y145549I-296J500*
G01*
G75*
G02X127965Y145519I-326J1711*
G01*
G75*
G02X127327Y145513I-627J31210*
G01*
G75*
G02X126689Y145519I-13J29203*
G01*
G75*
G02X126390Y145551I39J1799*
G01*
G75*
G02X126185Y145625I131J680*
G01*
G75*
G02X125972Y145771I644J1165*
G01*
G75*
G02X125855Y145884I831J987*
G01*
G75*
G02X125755Y146007I858J793*
G01*
G75*
G02X125685Y146125I774J539*
G01*
G75*
G02X125665Y146213I176J87*
G01*
G75*
G02X125685Y146300I195J0*
G01*
G75*
G02X125755Y146417I844J-422*
G01*
G75*
G02X125855Y146541I958J-670*
G01*
G75*
G02X125972Y146654I949J-874*
G01*
G75*
G02X126187Y146800I847J-1005*
G01*
G75*
G02X126394Y146874I335J-611*
G01*
G75*
G02X126700Y146906I343J-1850*
G01*
G75*
G02X127367Y146913I681J-32739*
G01*
G75*
G03X127833Y146919I7J15731*
G01*
G75*
G03X128186Y146942I-161J5341*
G01*
G75*
G03X128447Y146974I-433J4522*
G01*
G75*
G03X128522Y147024I-16J106*
G01*
G75*
G03X128526Y147133I-94J58*
G01*
G75*
G03X128430Y147227I-192J-100*
G01*
G75*
G03X128228Y147290I-298J-596*
G01*
G75*
G03X127946Y147311I-291J-2022*
G01*
G75*
G02X127799Y147320I6J1281*
G01*
G75*
G02X127664Y147346I116J980*
G01*
G75*
G02X127557Y147383I193J733*
G01*
G75*
G02X127506Y147427I45J104*
G01*
G75*
G02X127559Y147525I55J34*
G01*
G75*
G02X127913Y147493I19J-1724*
G01*
G75*
G02X128350Y147372I-593J-3004*
G01*
G75*
G02X128621Y147207I-262J-732*
G01*
X130270Y147468D02*
G75*
G03X130156Y147327I879J-827D01*
G01*
G75*
G03X130098Y147202I337J-232*
G01*
G75*
G03X130083Y147061I424J-115*
G01*
G75*
G03X130107Y146868I1521J88*
G01*
G75*
G03X130241Y146555I766J143*
G01*
G75*
G03X130490Y146353I502J364*
G01*
G75*
G03X130904Y146244I536J1195*
G01*
G75*
G03X131568Y146213I663J7049*
G01*
G75*
G02X131963Y146207I-6J-13604*
G01*
G75*
G02X132193Y146185I-53J-1754*
G01*
G75*
G02X132315Y146147I-70J-442*
G01*
G75*
G02X132340Y146087I-21J-44*
G01*
G75*
G02X132274Y146027I-87J29*
G01*
G75*
G02X132054Y145985I-531J2202*
G01*
G75*
G02X131723Y145954I-541J3927*
G01*
G75*
G02X131231Y145934I-987J18154*
G01*
X130165Y145906*
Y145313*
X131493*
G75*
G03X132530Y145333I4J25626*
G01*
G75*
G03X132977Y145432I-52J1294*
G01*
G75*
G03X133190Y145651I-150J359*
G01*
G75*
G03X133265Y146053I-1042J402*
G01*
G75*
G03X133213Y146444I-1491J0*
G01*
G75*
G03X133052Y146669I-383J-104*
G01*
G75*
G03X132737Y146782I-383J-567*
G01*
G75*
G03X132140Y146813I-600J-5922*
G01*
G75*
G02X131838Y146817I-4J10295*
G01*
G75*
G02X131557Y146830I225J7646*
G01*
G75*
G02X131324Y146849I498J7622*
G01*
G75*
G02X131223Y146873I38J383*
G01*
G75*
G02X131085Y146957I158J412*
G01*
G75*
G02X131087Y147037I35J39*
G01*
G75*
G02X131230Y147097I173J-211*
G01*
G75*
G02X131515Y147113I285J-2564*
G01*
G75*
G03X131796Y147119I3J5796*
G01*
G75*
G03X131902Y147154I-10J209*
G01*
G75*
G03X131952Y147232I-63J94*
G01*
G75*
G03X131965Y147413I-1237J183*
G01*
Y147713*
X131232*
G75*
G03X130811Y147704I0J-10730*
G01*
G75*
G03X130584Y147671I44J-1097*
G01*
G75*
G03X130425Y147600I126J-493*
G01*
G75*
G03X130270Y147468I510J-757*
G01*
X131665Y147418D02*
G75*
G02X131639Y147379I-42D01*
G01*
G75*
G02X131526Y147342I-367J928*
G01*
G75*
G02X131372Y147311I-335J1271*
G01*
G75*
G02X131191Y147293I-339J2425*
G01*
G75*
G03X130947Y147269I234J-3621*
G01*
G75*
G03X130805Y147230I68J-520*
G01*
G75*
G03X130723Y147165I85J-193*
G01*
G75*
G03X130680Y147069I179J-138*
G01*
G75*
G03X130720Y146863I278J-53*
G01*
G75*
G03X130894Y146719I315J202*
G01*
G75*
G03X131239Y146636I443J1089*
G01*
G75*
G03X131802Y146613I562J6787*
G01*
G75*
G02X132247Y146604I-6J-12293*
G01*
G75*
G02X132500Y146573I-54J-1484*
G01*
G75*
G02X132676Y146509I-135J-637*
G01*
G75*
G02X132833Y146395I-360J-666*
G01*
G75*
G02X133004Y146202I-956J-1017*
G01*
G75*
G02X133051Y146048I-195J-143*
G01*
G75*
G02X132990Y145898I-243J12*
G01*
G75*
G02X132801Y145720I-1072J944*
G01*
G75*
G02X132616Y145610I-502J639*
G01*
G75*
G02X132402Y145549I-359J844*
G01*
G75*
G02X132085Y145520I-377J2365*
G01*
G75*
G02X131501Y145513I-577J23454*
G01*
G75*
G02X131077Y145519I-8J13751*
G01*
G75*
G02X130749Y145540I155J5035*
G01*
G75*
G02X130502Y145570I510J5243*
G01*
G75*
G02X130502Y145655I6J43*
G01*
G75*
G02X130746Y145685I758J-5118*
G01*
G75*
G02X131071Y145707I485J-4919*
G01*
G75*
G02X131490Y145714I435J-13339*
G01*
G75*
G03X131892Y145721I-30J13146*
G01*
G75*
G03X132253Y145740I-267J8556*
G01*
G75*
G03X132552Y145767I-750J10048*
G01*
G75*
G03X132648Y145800I-24J222*
G01*
G75*
G03X132697Y145850I-80J128*
G01*
G75*
G03X132733Y145930I-313J188*
G01*
G75*
G03X132752Y146026I-424J131*
G01*
G75*
G03X132748Y146124I-443J35*
G01*
G75*
G03X132695Y146259I-308J-43*
G01*
G75*
G03X132590Y146335I-163J-115*
G01*
G75*
G03X132375Y146376I-287J-934*
G01*
G75*
G03X131809Y146413I-2234J-30134*
G01*
G75*
G02X131382Y146445I546J9952*
G01*
G75*
G02X131056Y146493I349J3534*
G01*
G75*
G02X130809Y146556I401J2074*
G01*
G75*
G02X130635Y146640I220J685*
G01*
G75*
G02X130443Y146793I726J1105*
G01*
G75*
G02X130379Y146927I146J152*
G01*
G75*
G02X130419Y147076I231J19*
G01*
G75*
G02X130582Y147281I1370J-926*
G01*
G75*
G02X130709Y147391I585J-552*
G01*
G75*
G02X130847Y147461I334J-479*
G01*
G75*
G02X131014Y147500I251J-707*
G01*
G75*
G02X131232Y147513I221J-1928*
G01*
G75*
G02X131398Y147506I-3J-2015*
G01*
G75*
G02X131538Y147485I-87J-1061*
G01*
G75*
G02X131639Y147455I-156J-719*
G01*
G75*
G02X131665Y147418I-14J-37*
G01*
X134365Y146728D02*
G75*
G03X134406Y145861I9276J-1D01*
G01*
G75*
G03X134586Y145533I467J44*
G01*
G75*
G03X134979Y145389I425J550*
G01*
G75*
G03X136134Y145363I1153J25185*
G01*
G75*
G03X137248Y145392I3J21196*
G01*
G75*
G03X137642Y145544I-35J679*
G01*
G75*
G03X137824Y145885I-315J387*
G01*
G75*
G03X137865Y146774I-9636J889*
G01*
Y147713*
X137165*
Y146968*
G75*
G02X137126Y146385I-4429J0*
G01*
G75*
G02X136983Y146095I-502J67*
G01*
G75*
G02X136694Y145951I-356J355*
G01*
G75*
G02X136115Y145913I-577J4300*
G01*
G75*
G02X135535Y145951I-2J4342*
G01*
G75*
G02X135246Y146095I67J498*
G01*
G75*
G02X135103Y146385I359J357*
G01*
G75*
G02X135065Y146968I4391J580*
G01*
Y147713*
X134365*
Y146728*
X134865Y146666D02*
G75*
G03X134900Y146089I4816J0D01*
G01*
G75*
G03X135039Y145845I358J43*
G01*
G75*
G03X135336Y145735I329J431*
G01*
G75*
G03X136115Y145713I777J13444*
G01*
G75*
G03X136893Y145735I2J13460*
G01*
G75*
G03X137191Y145845I-31J541*
G01*
G75*
G03X137330Y146089I-219J287*
G01*
G75*
G03X137365Y146666I-4781J580*
G01*
G75*
G02X137371Y147054I12596J2*
G01*
G75*
G02X137395Y147263I1257J-39*
G01*
G75*
G02X137441Y147373I298J-59*
G01*
G75*
G02X137515Y147413I74J-50*
G01*
G75*
G02X137587Y147378I0J-94*
G01*
G75*
G02X137633Y147286I-178J-148*
G01*
G75*
G02X137658Y147113I-846J-209*
G01*
G75*
G02X137665Y146806I-7361J-314*
G01*
G75*
G02X137589Y146144I-2911J1*
G01*
G75*
G02X137347Y145763I-665J155*
G01*
G75*
G02X136880Y145567I-588J744*
G01*
G75*
G02X136028Y145513I-850J6618*
G01*
G75*
G02X135530Y145520I-11J15049*
G01*
G75*
G02X135267Y145554I46J1416*
G01*
G75*
G02X135076Y145629I149J663*
G01*
G75*
G02X134872Y145771I707J1224*
G01*
G75*
G02X134696Y145944I1070J1270*
G01*
G75*
G02X134610Y146094I319J282*
G01*
G75*
G02X134573Y146300I733J238*
G01*
G75*
G02X134565Y146721I10287J413*
G01*
G75*
G02X134571Y147078I10349J7*
G01*
G75*
G02X134595Y147272I1094J-39*
G01*
G75*
G02X134641Y147375I268J-57*
G01*
G75*
G02X134715Y147413I74J-54*
G01*
G75*
G02X134789Y147373I0J-89*
G01*
G75*
G02X134835Y147263I-252J-169*
G01*
G75*
G02X134859Y147054I-1233J-248*
G01*
G75*
G02X134865Y146666I-12590J-398*
G01*
X139182Y147481D02*
G75*
G03X139065Y147315I528J-495D01*
G01*
G75*
G03X139001Y147126I609J-312*
G01*
G75*
G03X138972Y146838I1850J-335*
G01*
G75*
G03X138965Y146281I21918J-542*
G01*
Y145313*
X139665*
Y146109*
G75*
G02X139688Y146675I6993J2*
G01*
G75*
G02X139783Y146942I545J-44*
G01*
G75*
G02X139980Y147073I263J-182*
G01*
G75*
G02X140358Y147113I379J-1785*
G01*
G75*
G03X140532Y147122I2J1491*
G01*
G75*
G03X140614Y147162I-17J140*
G01*
G75*
G03X140654Y147243I-96J98*
G01*
G75*
G03X140665Y147413I-1368J171*
G01*
Y147713*
X140032*
G75*
G03X139685Y147703I5J-6576*
G01*
G75*
G03X139476Y147670I52J-993*
G01*
G75*
G03X139324Y147601I138J-507*
G01*
G75*
G03X139182Y147481I443J-670*
G01*
X140365Y147413D02*
G75*
G02X140344Y147374I-46J0D01*
G01*
G75*
G02X140279Y147342I-157J234*
G01*
G75*
G02X140185Y147320I-157J460*
G01*
G75*
G02X140073Y147313I-110J855*
G01*
G75*
G03X139717Y147283I1J-2202*
G01*
G75*
G03X139554Y147178I40J-240*
G01*
G75*
G03X139480Y146957I369J-246*
G01*
G75*
G03X139465Y146402I9989J-554*
G01*
G75*
G02X139459Y145989I-14492J1*
G01*
G75*
G02X139435Y145769I-1388J41*
G01*
G75*
G02X139389Y145654I-325J62*
G01*
G75*
G02X139315Y145613I-74J47*
G01*
G75*
G02X139241Y145650I0J91*
G01*
G75*
G02X139195Y145755I228J162*
G01*
G75*
G02X139171Y145953I1111J237*
G01*
G75*
G02X139165Y146317I10857J358*
G01*
G75*
G02X139174Y146717I9148J2*
G01*
G75*
G02X139207Y146942I1090J-47*
G01*
G75*
G02X139279Y147106I534J-138*
G01*
G75*
G02X139410Y147267I840J-548*
G01*
G75*
G02X139646Y147422I493J-493*
G01*
G75*
G02X139981Y147513I567J-1430*
G01*
G75*
G02X140271Y147518I164J-1080*
G01*
G75*
G02X140365Y147413I-12J-106*
G01*
X142015Y147597D02*
G75*
G03X141929Y147544I433J-796D01*
G01*
G75*
G03X141837Y147474I900J-1284*
G01*
G75*
G03X141752Y147399I960J-1172*
G01*
G75*
G03X141690Y147331I466J-488*
G01*
G75*
G03X141606Y147124I309J-246*
G01*
G75*
G03X141569Y146596I8720J-877*
G01*
G75*
G03X141566Y146067I7293J-298*
G01*
G75*
G03X141627Y145767I919J30*
G01*
G75*
G03X141774Y145578I385J148*
G01*
G75*
G03X142052Y145434I659J930*
G01*
G75*
G03X142437Y145343I620J1750*
G01*
G75*
G03X142910Y145313I472J3715*
G01*
X143565*
Y145613*
G75*
G03X143554Y145786I-1365J-3*
G01*
G75*
G03X143511Y145865I-126J-16*
G01*
G75*
G03X143423Y145904I-103J-117*
G01*
G75*
G03X143223Y145913I-200J-2211*
G01*
G75*
G02X142954Y145926I-2J2607*
G01*
G75*
G02X142745Y145970I107J1030*
G01*
G75*
G02X142609Y146037I154J481*
G01*
G75*
G02X142565Y146123I61J86*
G01*
G75*
G02X142598Y146159I36*
G01*
G75*
G02X142932Y146186I1557J-17085*
G01*
G75*
G02X143335Y146206I644J-9052*
G01*
G75*
G02X143815Y146213I490J-17894*
G01*
X145065*
Y146717*
G75*
G03X145053Y146983I-3109J-4*
G01*
G75*
G03X145015Y147169I-822J-70*
G01*
G75*
G03X144942Y147319I-565J-184*
G01*
G75*
G03X144819Y147467I-848J-579*
G01*
G75*
G03X144637Y147606I-610J-610*
G01*
G75*
G03X144440Y147677I-298J-522*
G01*
G75*
G03X144127Y147705I-339J-2002*
G01*
G75*
G03X143394Y147709I-632J-44894*
G01*
G75*
G03X142923Y147700I36J-14162*
G01*
G75*
G03X142499Y147676I334J-9344*
G01*
G75*
G03X142151Y147641I773J-9422*
G01*
G75*
G03X142015Y147597I45J-374*
G01*
X142169Y147167D02*
G75*
G03X142125Y147098I246J-204D01*
G01*
G75*
G03X142094Y147012I469J-220*
G01*
G75*
G03X142078Y146922I494J-131*
G01*
G75*
G03X142083Y146842I296J-22*
G01*
G75*
G03X142153Y146745I140J27*
G01*
G75*
G03X142308Y146692I221J389*
G01*
G75*
G03X142614Y146667I340J2326*
G01*
G75*
G03X143315Y146663I678J48517*
G01*
G75*
G03X144039Y146667I11J53707*
G01*
G75*
G03X144333Y146692I-27J2084*
G01*
G75*
G03X144480Y146750I-56J356*
G01*
G75*
G03X144549Y146856I-93J137*
G01*
G75*
G03X144505Y147069I-278J53*
G01*
G75*
G03X144318Y147213I-315J-214*
G01*
G75*
G03X143932Y147291I-473J-1340*
G01*
G75*
G03X143258Y147313I-680J-10870*
G01*
G75*
G03X142781Y147306I2J-16181*
G01*
G75*
G03X142475Y147281I87J-2981*
G01*
G75*
G03X142275Y147237I173J-1283*
G01*
G75*
G03X142169Y147167I63J-211*
G01*
X144007Y147052D02*
G75*
G02X144124Y146959I-89J-234D01*
G01*
G75*
G02X144098Y146878I-44J-30*
G01*
G75*
G02X143827Y146826I-320J927*
G01*
G75*
G02X143315Y146813I-510J9994*
G01*
G75*
G02X142808Y146822I-6J13865*
G01*
G75*
G02X142563Y146862I36J981*
G01*
G75*
G02X142496Y146939I28J91*
G01*
G75*
G02X142531Y147046I123J19*
G01*
G75*
G02X142660Y147101I134J-134*
G01*
G75*
G02X143220Y147111I643J-21537*
G01*
G75*
G02X143762Y147102I52J-13092*
G01*
G75*
G02X144007Y147052I-28J-761*
G01*
X144580Y147213D02*
G75*
G02X144706Y147070I-1115J-1113D01*
G01*
G75*
G02X144794Y146933I-665J-521*
G01*
G75*
G02X144841Y146804I-524J-267*
G01*
G75*
G02X144847Y146688I-300J-72*
G01*
G75*
G02X144780Y146559I-217J31*
G01*
G75*
G02X144640Y146487I-198J211*
G01*
G75*
G02X144344Y146449I-392J1889*
G01*
G75*
G02X143516Y146413I-3693J74994*
G01*
G75*
G03X142742Y146378I2286J-59069*
G01*
G75*
G03X142417Y146340I131J-2541*
G01*
G75*
G03X142254Y146277I83J-459*
G01*
G75*
G03X142180Y146169I86J-139*
G01*
G75*
G03X142207Y145990I270J-51*
G01*
G75*
G03X142341Y145842I350J183*
G01*
G75*
G03X142576Y145744I379J584*
G01*
G75*
G03X142884Y145713I306J1456*
G01*
G75*
G02X143033Y145704I-3J-1402*
G01*
G75*
G02X143155Y145680I-73J-684*
G01*
G75*
G02X143239Y145644I-109J-374*
G01*
G75*
G02X143233Y145553I-25J-44*
G01*
G75*
G02X143136Y145528I-143J346*
G01*
G75*
G02X142976Y145521I-121J983*
G01*
G75*
G02X142746Y145537I178J4204*
G01*
G75*
G02X142314Y145634I167J1756*
G01*
G75*
G02X142008Y145830I282J779*
G01*
G75*
G02X141827Y146128I531J526*
G01*
G75*
G02X141765Y146526I1241J398*
G01*
G75*
G02X141780Y146737I1499J0*
G01*
G75*
G02X141826Y146905I672J-95*
G01*
G75*
G02X141914Y147056I640J-269*
G01*
G75*
G02X142057Y147220I1292J-986*
G01*
G75*
G02X142259Y147391I1094J-1094*
G01*
G75*
G02X142442Y147472I301J-426*
G01*
G75*
G02X142705Y147506I292J-1259*
G01*
G75*
G02X143315Y147513I618J-26935*
G01*
G75*
G02X143928Y147506I-8J-27207*
G01*
G75*
G02X144190Y147472I-28J-1261*
G01*
G75*
G02X144372Y147389I-119J-503*
G01*
G75*
G02X144580Y147213I-973J-1355*
G01*
X148765Y147428D02*
G75*
G03X148603Y147244I1321J-1324D01*
G01*
G75*
G03X148517Y147084I459J-351*
G01*
G75*
G03X148476Y146889I709J-249*
G01*
G75*
G03X148465Y146575I4296J-313*
G01*
G75*
G03X148491Y146132I3754J-2*
G01*
G75*
G03X148574Y145807I1256J149*
G01*
G75*
G03X148720Y145577I711J288*
G01*
G75*
G03X148930Y145424I481J440*
G01*
G75*
G03X149083Y145380I220J481*
G01*
G75*
G03X149411Y145345I1007J7883*
G01*
G75*
G03X149804Y145320I717J8379*
G01*
G75*
G03X150224Y145313I413J10846*
G01*
G75*
G03X151220Y145354I3J11953*
G01*
G75*
G03X151676Y145528I-73J874*
G01*
G75*
G03X151898Y145892I-351J465*
G01*
G75*
G03X151963Y146626I-4233J744*
G01*
G75*
G03X151954Y146902I-3627J9*
G01*
G75*
G03X151921Y147115I-1351J-99*
G01*
G75*
G03X151862Y147284I-870J-207*
G01*
G75*
G03X151774Y147426I-617J-285*
G01*
G75*
G03X151619Y147560I-446J-361*
G01*
G75*
G03X151425Y147632I-303J-514*
G01*
G75*
G03X151097Y147669I-423J-2281*
G01*
G75*
G03X150324Y147696I-2158J-51897*
G01*
X149066Y147729*
X148765Y147428*
X149190Y147246D02*
G75*
G03X149069Y147080I72J-180D01*
G01*
G75*
G03X149056Y146509I6259J-432*
G01*
G75*
G03X149094Y145939I6246J141*
G01*
G75*
G03X149223Y145773I200J23*
G01*
G75*
G03X149526Y145714I320J834*
G01*
G75*
G03X150218Y145715I326J16979*
G01*
G75*
G03X150913Y145743I-428J19056*
G01*
G75*
G03X151171Y145816I-36J622*
G01*
G75*
G03X151270Y145900I-143J267*
G01*
G75*
G03X151328Y146020I-274J207*
G01*
G75*
G03X151357Y146213I-891J233*
G01*
G75*
G03X151365Y146555I-7743J349*
G01*
G75*
G03X151357Y146874I-7014J-5*
G01*
G75*
G03X151331Y147069I-1106J-50*
G01*
G75*
G03X151283Y147188I-389J-88*
G01*
G75*
G03X151207Y147252I-131J-80*
G01*
G75*
G03X150968Y147298I-251J-652*
G01*
G75*
G03X150196Y147303I-656J-40691*
G01*
G75*
G03X149422Y147294I102J-41680*
G01*
G75*
G03X149190Y147246I15J-659*
G01*
X149265Y166959D02*
G75*
G03X146792Y166554I4221J-33579D01*
G01*
G75*
G03X144774Y166012I3264J-16182*
G01*
G75*
G03X143291Y165386I3481J-10312*
G01*
G75*
G03X142615Y164713I713J-1392*
G01*
G75*
G03X142557Y164572I759J-394*
G01*
G75*
G03X142509Y164385I2055J-629*
G01*
G75*
G03X142476Y164187I2239J-479*
G01*
G75*
G03X142465Y164006I1484J-178*
G01*
G75*
G03X142481Y163772I1706J-3*
G01*
G75*
G03X142532Y163604I552J77*
G01*
G75*
G03X142637Y163449I598J292*
G01*
G75*
G03X142833Y163252I2231J2022*
G01*
G75*
G03X142998Y163118I1170J1277*
G01*
G75*
G03X143191Y162995I1326J1863*
G01*
G75*
G03X143380Y162900I1024J1795*
G01*
G75*
G03X143533Y162852I282J636*
G01*
G75*
G02X143688Y162803I-125J-663*
G01*
G75*
G02X143885Y162702I-926J-2036*
G01*
G75*
G02X144087Y162570I-1263J-2170*
G01*
G75*
G02X144266Y162426I-1179J-1645*
G01*
X144667Y162063*
X144475Y160513*
G75*
G03X144249Y158554I109562J-13614*
G01*
G75*
G03X144129Y157119I32196J-3415*
G01*
G75*
G03X144080Y155779I26774J-1646*
G01*
G75*
G03X144085Y154163I56475J-630*
G01*
G75*
G03X144113Y152959I111812J1920*
G01*
G75*
G03X144149Y152251I14847J414*
G01*
G75*
G03X144202Y151792I5973J454*
G01*
G75*
G03X144287Y151510I1052J162*
G01*
G75*
G03X144458Y151205I1994J917*
G01*
G75*
G03X144652Y150986I900J603*
G01*
G75*
G03X144885Y150839I611J710*
G01*
G75*
G03X145171Y150750I530J1202*
G01*
G75*
G02X145317Y150714I-233J-1250*
G01*
G75*
G02X145472Y150657I-552J-1750*
G01*
G75*
G02X145614Y150591I-654J-1572*
G01*
G75*
G02X145715Y150524I-293J-555*
G01*
G75*
G03X146168Y150223I1851J2291*
G01*
G75*
G03X146554Y150114I435J806*
G01*
G75*
G03X146904Y150189I36J685*
G01*
G75*
G03X147245Y150442I-598J1165*
G01*
X147565Y150772*
Y152386*
G75*
G02X147571Y153049I33187J16*
G01*
G75*
G02X147592Y153574I13261J-265*
G01*
G75*
G02X147622Y153992I20454J-1234*
G01*
G75*
G02X147665Y154063I92J-7*
G01*
G75*
G03X147704Y154107I-51J83*
G01*
G75*
G03X147735Y154202I-619J261*
G01*
G75*
G03X147757Y154321I-848J219*
G01*
G75*
G03X147765Y154451I-1139J131*
G01*
G75*
G02X147818Y154715I683J0*
G01*
G75*
G02X147972Y154967I894J-374*
G01*
G75*
G02X148186Y155150I669J-567*
G01*
G75*
G02X148411Y155213I225J-370*
G01*
G75*
G02X148519Y155178I0J-186*
G01*
G75*
G02X148778Y154983I-4318J-6042*
G01*
G75*
G02X149081Y154731I-4150J-5295*
G01*
G75*
G02X149406Y154433I-6970J-7902*
G01*
G75*
G03X149781Y154086I8827J9182*
G01*
G75*
G03X150243Y153687I17032J19239*
G01*
G75*
G03X150713Y153300I16560J19611*
G01*
G75*
G03X151116Y152989I7859J9783*
G01*
G75*
G02X151481Y152717I-72211J-97500*
G01*
G75*
G02X151837Y152452I-65171J-87458*
G01*
G75*
G02X152141Y152222I-59795J-79632*
G01*
G75*
G02X152307Y152093I-6481J-8551*
G01*
G75*
G03X152431Y151999I2675J3375*
G01*
G75*
G03X152560Y151908I2757J3772*
G01*
G75*
G03X152678Y151831I2324J3423*
G01*
G75*
G03X152757Y151787I424J667*
G01*
G75*
G02X152843Y151742I-604J-1254*
G01*
G75*
G02X152986Y151659I-5349J-9367*
G01*
G75*
G02X153150Y151560I-6101J-10363*
G01*
G75*
G02X153315Y151457I-6638J-10841*
G01*
G75*
G03X153507Y151343I2376J3752*
G01*
G75*
G03X153759Y151204I5813J10285*
G01*
G75*
G03X154025Y151067I5858J10989*
G01*
G75*
G03X154265Y150951I3480J6937*
G01*
G75*
G02X154504Y150840I-13739J-29837*
G01*
G75*
G02X154766Y150716I-20772J-44185*
G01*
G75*
G02X155013Y150597I-19680J-41240*
G01*
G75*
G02X155199Y150505I-6637J-13678*
G01*
G75*
G03X155374Y150431I662J1326*
G01*
G75*
G03X155580Y150369I822J2333*
G01*
G75*
G03X155785Y150326I586J2311*
G01*
G75*
G03X155954Y150313I170J1037*
G01*
G75*
G02X156104Y150304I-3J-1407*
G01*
G75*
G02X156248Y150281I-131J-1247*
G01*
G75*
G02X156367Y150246I-230J-1002*
G01*
G75*
G02X156433Y150204I-60J-168*
G01*
G75*
G03X156598Y150122I204J204*
G01*
G75*
G03X156806Y150141I63J461*
G01*
G75*
G03X157006Y150255I-181J549*
G01*
G75*
G03X157144Y150437I-373J426*
G01*
G75*
G02X157229Y150579I793J-379*
G01*
G75*
G02X157321Y150660I231J-170*
G01*
G75*
G02X157448Y150702I172J-310*
G01*
G75*
G02X157645Y150715I206J-1616*
G01*
G75*
G03X158022Y150765I-9J1500*
G01*
G75*
G03X158432Y150913I-656J2461*
G01*
G75*
G03X158792Y151118I-995J2160*
G01*
G75*
G03X159011Y151343I-468J676*
G01*
G75*
G03X159078Y151463I-771J506*
G01*
G75*
G03X159143Y151620I-1962J904*
G01*
G75*
G03X159197Y151787I-2110J775*
G01*
G75*
G03X159230Y151938I-1313J370*
G01*
G75*
G03X159201Y152422I-1089J176*
G01*
G75*
G03X158953Y152690I-392J-113*
G01*
G75*
G03X158554Y152674I-181J-481*
G01*
G75*
G03X158108Y152363I664J-1422*
G01*
G75*
G02X157697Y152102I-785J785*
G01*
G75*
G02X157202Y152033I-417J1164*
G01*
G75*
G02X156561Y152163I153J2392*
G01*
G75*
G02X155689Y152517I3252J9263*
G01*
G75*
G03X155441Y152630I-13724J-29704*
G01*
G75*
G03X155227Y152726I-7484J-16535*
G01*
G75*
G03X155041Y152807I-20654J-47170*
G01*
G75*
G03X155013Y152813I-28J-64*
G01*
G75*
G02X154987Y152820I0J53*
G01*
G75*
G02X154787Y152936I29708J51014*
G01*
G75*
G02X154559Y153072I9330J15945*
G01*
G75*
G02X154296Y153233I17518J28880*
G01*
G75*
G02X153099Y154046I8944J14461*
G01*
G75*
G02X152127Y154867I6090J8194*
G01*
G75*
G02X151448Y155611I5148J5378*
G01*
G75*
G02X151263Y156138I670J533*
G01*
G75*
G03X151219Y156407I-893J-6*
G01*
G75*
G03X151096Y156662I-995J-322*
G01*
G75*
G03X150904Y156882I-923J-612*
G01*
G75*
G03X150661Y157046I-750J-852*
G01*
G75*
G02X150480Y157175I315J631*
G01*
G75*
G02X150386Y157335I252J256*
G01*
G75*
G02X150413Y157458I131J36*
G01*
G75*
G02X150532Y157515I122J-102*
G01*
G75*
G03X150899Y157579I-15J1177*
G01*
G75*
G03X151877Y157928I-14861J43208*
G01*
G75*
G03X152949Y158345I-11631J31465*
G01*
G75*
G03X153948Y158777I-10180J24891*
G01*
G75*
G02X154228Y158896I2388J-5227*
G01*
G75*
G02X154309Y158879I28J-71*
G01*
G75*
G02X154311Y158809I-35J-36*
G01*
G75*
G02X154114Y158612I-3081J2878*
G01*
G75*
G03X154012Y158496I579J-613*
G01*
G75*
G03X153933Y158365I676J-498*
G01*
G75*
G03X153882Y158227I688J-332*
G01*
G75*
G03X153865Y158095I502J-131*
G01*
G75*
G03X153876Y157940I1103J-2*
G01*
G75*
G03X153916Y157861I133J19*
G01*
G75*
G03X153996Y157823I99J103*
G01*
G75*
G03X154159Y157813I161J1270*
G01*
G75*
G03X154276Y157820I2J934*
G01*
G75*
G03X154385Y157842I-94J742*
G01*
G75*
G03X154471Y157874I-156J552*
G01*
G75*
G03X154515Y157913I-43J92*
G01*
G75*
G02X154552Y157951I106J-66*
G01*
G75*
G02X154613Y157983I189J-283*
G01*
G75*
G02X154687Y158005I154J-378*
G01*
G75*
G02X154762Y158013I76J-382*
G01*
G75*
G03X154870Y158031I1J321*
G01*
G75*
G03X155080Y158111I-1553J4372*
G01*
G75*
G03X155325Y158220I-1889J4604*
G01*
G75*
G03X155581Y158348I-2764J5822*
G01*
G75*
G02X155862Y158497I93592J-176419*
G01*
G75*
G02X156181Y158665I155878J-294981*
G01*
G75*
G02X156490Y158828I150052J-285161*
G01*
G75*
G02X156733Y158956I58771J-111640*
G01*
G75*
G03X156941Y159070I-2476J4730*
G01*
G75*
G03X157135Y159189I-2282J3935*
G01*
G75*
G03X157294Y159298I-2229J3430*
G01*
G75*
G03X157371Y159370I-241J336*
G01*
G75*
G02X157425Y159424I346J-287*
G01*
G75*
G02X157488Y159470I321J-376*
G01*
G75*
G02X157552Y159502I221J-362*
G01*
G75*
G02X157605Y159513I53J-132*
G01*
G75*
G03X157823Y159604I0J306*
G01*
G75*
G03X158425Y160237I-19085J18739*
G01*
G75*
G03X158986Y160882I-11310J10406*
G01*
G75*
G03X159255Y161306I-1578J1296*
G01*
G75*
G03X159350Y161548I-1806J854*
G01*
G75*
G03X159415Y161803I-2003J646*
G01*
G75*
G03X159453Y162088I-2506J474*
G01*
G75*
G03X159465Y162420I-4504J332*
G01*
G75*
G03X159445Y162872I-5289J-4*
G01*
G75*
G03X159381Y163180I-1296J-111*
G01*
G75*
G03X159236Y163496I-1652J-564*
G01*
G75*
G03X158924Y164006I-11719J-6828*
G01*
G75*
G02X158806Y164198I5125J3294*
G01*
G75*
G02X158685Y164409I7043J4174*
G01*
G75*
G02X158580Y164607I6545J3607*
G01*
G75*
G02X158510Y164756I1927J995*
G01*
G75*
G03X158082Y165422I-2138J-902*
G01*
G75*
G03X157399Y166011I-2850J-2613*
G01*
G75*
G03X156506Y166489I-2744J-4057*
G01*
G75*
G03X155455Y166822I-2594J-6355*
G01*
G75*
G03X154294Y166997I-1706J-7391*
G01*
G75*
G03X152551Y167079I-2517J-34991*
G01*
G75*
G03X150733Y167072I-778J-35408*
G01*
G75*
G03X149265Y166959I451J-15400*
G01*
X150971Y147009D02*
G75*
G02X151061Y146937I-153J-285D01*
G01*
G75*
G02X151121Y146839I-246J-217*
G01*
G75*
G02X151154Y146700I-509J-195*
G01*
G75*
G02X151165Y146506I-1828J-197*
G01*
G75*
G02X151155Y146289I-2322J0*
G01*
G75*
G02X151118Y146163I-343J32*
G01*
G75*
G02X151042Y146079I-200J104*
G01*
G75*
G02X150908Y146010I-374J563*
G01*
G75*
G02X150596Y145937I-430J1132*
G01*
G75*
G02X150148Y145916I-429J4388*
G01*
G75*
G02X149711Y145939I18J4534*
G01*
G75*
G02X149458Y146016I69J678*
G01*
G75*
G02X149311Y146191I146J273*
G01*
G75*
G02X149256Y146507I1007J336*
G01*
G75*
G02X149299Y146824I1060J19*
G01*
G75*
G02X149440Y147004I296J-87*
G01*
G75*
G02X149695Y147085I305J-525*
G01*
G75*
G02X150199Y147106I524J-6313*
G01*
G75*
G02X150704Y147087I20J-6219*
G01*
G75*
G02X150971Y147009I-53J-678*
G01*
X151524Y147182D02*
G75*
G02X151728Y146795I-745J-640D01*
G01*
G75*
G02X151750Y146350I-1022J-274*
G01*
G75*
G02X151587Y145944I-998J164*
G01*
G75*
G02X151274Y145667I-705J481*
G01*
G75*
G02X150898Y145554I-491J948*
G01*
G75*
G02X150251Y145514I-767J7123*
G01*
G75*
G02X149601Y145532I-123J7117*
G01*
G75*
G02X149212Y145632I85J1139*
G01*
G75*
G02X148923Y145850I346J760*
G01*
G75*
G02X148736Y146180I760J648*
G01*
G75*
G02X148682Y146565I1000J336*
G01*
G75*
G02X148772Y146939I1015J-48*
G01*
G75*
G02X148974Y147224I852J-387*
G01*
G75*
G02X149256Y147398I538J-557*
G01*
G75*
G02X149681Y147482I507J-1448*
G01*
G75*
G02X150348Y147490I429J-8074*
G01*
G75*
G02X150924Y147466I-698J-23668*
G01*
G75*
G02X151182Y147426I-69J-1286*
G01*
G75*
G02X151352Y147343I-124J-470*
G01*
G75*
G02X151524Y147182I-669J-885*
G01*
X153265Y148113D02*
G75*
G03X153156Y147950I356J-356D01*
G01*
G75*
G03X153098Y147733I796J-330*
G01*
G75*
G03X153071Y147372I3065J-409*
G01*
G75*
G03X153065Y146613I48477J-757*
G01*
Y145313*
X153765*
Y147102*
X154240Y147132*
X154715Y147163*
X154745Y147737*
X154775Y148313*
X154120*
G75*
G03X153777Y148304I2J-6571*
G01*
G75*
G03X153556Y148272I67J-1256*
G01*
G75*
G03X153398Y148212I144J-618*
G01*
G75*
G03X153265Y148113I276J-508*
G01*
X154365Y148019D02*
G75*
G02X154342Y147980I-44D01*
G01*
G75*
G02X154255Y147943I-270J513*
G01*
G75*
G02X154133Y147912I-272J817*
G01*
G75*
G02X153990Y147893I-273J1522*
G01*
G75*
G03X153823Y147871I135J-1633*
G01*
G75*
G03X153707Y147833I85J-453*
G01*
G75*
G03X153639Y147780I90J-185*
G01*
G75*
G03Y147645I81J-67*
G01*
G75*
G03X153707Y147592I158J132*
G01*
G75*
G03X153823Y147554I200J415*
G01*
G75*
G03X153990Y147531I302J1611*
G01*
G75*
G02X154133Y147513I-139J-1647*
G01*
G75*
G02X154255Y147483I-155J-899*
G01*
G75*
G02X154343Y147448I-191J-606*
G01*
G75*
G02Y147376I-18J-36*
G01*
G75*
G02X154255Y147341I-278J570*
G01*
G75*
G02X154133Y147312I-276J870*
G01*
G75*
G02X153990Y147293I-283J1628*
G01*
X153615Y147263*
X153586Y146437*
G75*
G02X153565Y146019I-14178J496*
G01*
G75*
G02X153532Y145784I-1640J109*
G01*
G75*
G02X153484Y145655I-444J94*
G01*
G75*
G02X153411Y145613I-73J41*
G01*
G75*
G02X153337Y145660I0J81*
G01*
G75*
G02X153293Y145809I515J230*
G01*
G75*
G02X153270Y146087I2243J324*
G01*
G75*
G02X153265Y146617I25070J526*
G01*
G75*
G02X153272Y147225I27578J0*
G01*
G75*
G02X153302Y147506I1649J-35*
G01*
G75*
G02X153373Y147691I565J-111*
G01*
G75*
G02X153510Y147867I781J-469*
G01*
G75*
G02X153731Y148018I513J-513*
G01*
G75*
G02X154028Y148108I524J-1192*
G01*
G75*
G02X154280Y148115I148J-832*
G01*
G75*
G02X154365Y148019I-12J-96*
G01*
X155446Y163910D02*
G75*
G02X155614Y163796I-1117J-1829D01*
G01*
G75*
G02X155698Y163704I-200J-269*
G01*
G75*
G02X155726Y163607I-159J-98*
G01*
G75*
G02X155709Y163485I-405J-4*
G01*
G75*
G02X155127Y162260I-4432J1353*
G01*
G75*
G02X154157Y161102I-5874J3933*
G01*
G75*
G02X152787Y160000I-6799J7061*
G01*
G75*
G02X150996Y158946I-10516J15809*
G01*
G75*
G02X150331Y158622I-7103J13734*
G01*
G75*
G02X149879Y158457I-1239J2700*
G01*
G75*
G02X149578Y158420I-282J1030*
G01*
G75*
G02X149415Y158513I4J196*
G01*
G75*
G03X149366Y158557I-106J-65*
G01*
G75*
G03X149243Y158615I-791J-1529*
G01*
G75*
G03X149087Y158673I-759J-1799*
G01*
G75*
G03X148916Y158722I-820J-2535*
G01*
G75*
G02X148622Y158822I481J1910*
G01*
G75*
G02X148457Y158947I167J392*
G01*
G75*
G02X148407Y159102I179J143*
G01*
G75*
G02X148460Y159291I448J-23*
G01*
G75*
G03X148506Y159404I-519J279*
G01*
G75*
G03X148587Y159691I-14321J4202*
G01*
G75*
G03X148676Y160036I-13602J3693*
G01*
G75*
G03X148765Y160413I-18972J4644*
G01*
G75*
G02X149085Y161589I13023J-2915*
G01*
G75*
G02X149463Y162472I4944J-1594*
G01*
G75*
G02X149902Y163090I2744J-1487*
G01*
G75*
G02X150415Y163457I1125J-1028*
G01*
G75*
G02X151207Y163757I3309J-7534*
G01*
G75*
G02X151969Y163949I1857J-5780*
G01*
G75*
G02X152824Y164056I1366J-7472*
G01*
G75*
G02X153915Y164098I1302J-19211*
G01*
G75*
G02X154593Y164099I358J-32093*
G01*
G75*
G02X154963Y164074I-35J-3301*
G01*
G75*
G02X155217Y164017I-156J-1280*
G01*
G75*
G02X155446Y163910I-363J-1075*
G01*
X158387Y147557D02*
G75*
G03X158266Y147435I280J-400D01*
G01*
G75*
G03X158200Y147283I344J-239*
G01*
G75*
G03X158171Y147036I1319J-281*
G01*
G75*
G03X158165Y146513I21064J-515*
G01*
G75*
G03X158213Y145756I6015J-1*
G01*
G75*
G03X158405Y145459I405J51*
G01*
G75*
G03X158826Y145333I448J737*
G01*
G75*
G03X160137Y145313I1304J40766*
G01*
X161665*
Y145913*
X160458*
G75*
G02X159982Y145920I-2J15024*
G01*
G75*
G02X159549Y145943I326J10292*
G01*
G75*
G02X159191Y145975I820J11123*
G01*
G75*
G02X159058Y146016I38J359*
G01*
G75*
G02X158969Y146087I153J285*
G01*
G75*
G02X158909Y146185I246J218*
G01*
G75*
G02X158875Y146322I502J195*
G01*
G75*
G02X158865Y146513I1743J189*
G01*
G75*
G02X158875Y146703I1749J1*
G01*
G75*
G02X158909Y146840I535J-58*
G01*
G75*
G02X158969Y146938I306J-120*
G01*
G75*
G02X159058Y147009I243J-213*
G01*
G75*
G02X159191Y147050I170J-319*
G01*
G75*
G02X159549Y147082I1179J-11091*
G01*
G75*
G02X159982Y147105I759J-10269*
G01*
G75*
G02X160458Y147113I487J-15017*
G01*
X161665*
Y147713*
X160137*
G75*
G03X159340Y147706I11J-48752*
G01*
G75*
G03X158871Y147681I108J-6491*
G01*
G75*
G03X158569Y147636I225J-2525*
G01*
G75*
G03X158387Y147557I103J-487*
G01*
X161326Y147456D02*
G75*
G02X161326Y147369I-5J-44D01*
G01*
G75*
G02X161042Y147339I-917J7452*
G01*
G75*
G02X160666Y147319I-543J6516*
G01*
G75*
G02X160173Y147313I-488J18874*
G01*
G75*
G03X159705Y147308I17J-24813*
G01*
G75*
G03X159285Y147294I304J-16138*
G01*
G75*
G03X158933Y147276I926J-20478*
G01*
G75*
G03X158823Y147252I23J-373*
G01*
G75*
G03X158746Y147186I54J-142*
G01*
G75*
G03X158698Y147062I366J-214*
G01*
G75*
G03X158672Y146856I1194J-256*
G01*
G75*
G03X158665Y146513I8393J-335*
G01*
G75*
G03X158672Y146169I8409J-9*
G01*
G75*
G03X158698Y145963I1220J50*
G01*
G75*
G03X158746Y145839I414J90*
G01*
G75*
G03X158823Y145773I131J76*
G01*
G75*
G03X158933Y145749I133J349*
G01*
G75*
G03X159285Y145730I1277J20459*
G01*
G75*
G03X159705Y145717I724J16124*
G01*
G75*
G03X160173Y145713I464J24808*
G01*
G75*
G02X160666Y145706I-10J-18881*
G01*
G75*
G02X161042Y145685I-167J-6536*
G01*
G75*
G02X161326Y145656I-632J-7481*
G01*
G75*
G02X161326Y145569I-6J-44*
G01*
G75*
G02X161031Y145539I-957J8193*
G01*
G75*
G02X160641Y145519I-562J6986*
G01*
G75*
G02X160128Y145513I-508J20506*
G01*
G75*
G02X159413Y145519I-13J39133*
G01*
G75*
G02X159054Y145547I55J3024*
G01*
G75*
G02X158823Y145608I137J987*
G01*
G75*
G02X158628Y145720I287J724*
G01*
G75*
G02X158487Y145856I616J783*
G01*
G75*
G02X158410Y145992I309J265*
G01*
G75*
G02X158374Y146179I686J228*
G01*
G75*
G02X158365Y146513I5939J328*
G01*
G75*
G02X158374Y146846I5941J5*
G01*
G75*
G02X158410Y147033I722J-41*
G01*
G75*
G02X158487Y147169I386J-129*
G01*
G75*
G02X158628Y147305I758J-647*
G01*
G75*
G02X158823Y147417I481J-613*
G01*
G75*
G02X159054Y147478I368J-926*
G01*
G75*
G02X159413Y147506I414J-2996*
G01*
G75*
G02X160128Y147513I724J-39127*
G01*
G75*
G02X160641Y147506I-11J-20512*
G01*
G75*
G02X161031Y147485I-172J-7007*
G01*
G75*
G02X161326Y147456I-662J-8222*
G01*
X163028Y147505D02*
G75*
G03X162877Y147351I524J-668D01*
G01*
G75*
G03X162802Y147188I333J-252*
G01*
G75*
G03X162771Y146929I1301J-285*
G01*
G75*
G03X162765Y146305I31644J-611*
G01*
Y145313*
X163465*
Y146109*
G75*
G02X163488Y146675I6993J2*
G01*
G75*
G02X163583Y146942I545J-44*
G01*
G75*
G02X163780Y147073I263J-182*
G01*
G75*
G02X164158Y147113I379J-1785*
G01*
G75*
G03X164332Y147122I2J1491*
G01*
G75*
G03X164414Y147162I-17J140*
G01*
G75*
G03X164454Y147243I-96J98*
G01*
G75*
G03X164465Y147413I-1368J171*
G01*
G75*
G03X164449Y147596I-1062J0*
G01*
G75*
G03X164391Y147675I-107J-19*
G01*
G75*
G03X164265Y147707I-135J-263*
G01*
G75*
G03X163878Y147713I-389J-13707*
G01*
G75*
G03X163581Y147702I5J-4139*
G01*
G75*
G03X163362Y147667I94J-1327*
G01*
G75*
G03X163186Y147604I209J-853*
G01*
G75*
G03X163028Y147505I380J-783*
G01*
X164165Y147413D02*
G75*
G02X164144Y147374I-46J0D01*
G01*
G75*
G02X164079Y147342I-157J234*
G01*
G75*
G02X163985Y147320I-157J460*
G01*
G75*
G02X163873Y147313I-110J855*
G01*
G75*
G03X163517Y147283I1J-2202*
G01*
G75*
G03X163354Y147178I40J-240*
G01*
G75*
G03X163280Y146957I369J-246*
G01*
G75*
G03X163265Y146402I9989J-554*
G01*
G75*
G02X163259Y145989I-14492J1*
G01*
G75*
G02X163235Y145769I-1388J41*
G01*
G75*
G02X163189Y145654I-325J62*
G01*
G75*
G02X163115Y145613I-74J47*
G01*
G75*
G02X163041Y145650I0J91*
G01*
G75*
G02X162995Y145755I228J162*
G01*
G75*
G02X162971Y145953I1111J237*
G01*
G75*
G02X162965Y146317I10857J358*
G01*
G75*
G02X162974Y146717I9148J2*
G01*
G75*
G02X163007Y146942I1090J-47*
G01*
G75*
G02X163079Y147106I534J-138*
G01*
G75*
G02X163210Y147267I840J-548*
G01*
G75*
G02X163446Y147422I493J-493*
G01*
G75*
G02X163781Y147513I567J-1430*
G01*
G75*
G02X164071Y147518I164J-1080*
G01*
G75*
G02X164165Y147413I-12J-106*
G01*
X165630Y147467D02*
G75*
G03X165486Y147308I791J-855D01*
G01*
G75*
G03X165409Y147154I396J-294*
G01*
G75*
G03X165374Y146946I849J-252*
G01*
G75*
G03X165365Y146575I7455J-368*
G01*
G75*
G03X165369Y146316I7397J-6*
G01*
G75*
G03X165383Y146071I5887J209*
G01*
G75*
G03X165403Y145866I5517J425*
G01*
G75*
G03X165427Y145767I402J45*
G01*
G75*
G03X165574Y145578I385J148*
G01*
G75*
G03X165852Y145434I659J930*
G01*
G75*
G03X166237Y145343I620J1750*
G01*
G75*
G03X166710Y145313I472J3715*
G01*
X167365*
Y145613*
G75*
G03X167354Y145786I-1365J-3*
G01*
G75*
G03X167311Y145865I-126J-16*
G01*
G75*
G03X167223Y145904I-103J-117*
G01*
G75*
G03X167023Y145913I-200J-2211*
G01*
G75*
G02X166754Y145926I-2J2607*
G01*
G75*
G02X166545Y145970I107J1030*
G01*
G75*
G02X166409Y146037I154J481*
G01*
G75*
G02X166365Y146123I61J86*
G01*
G75*
G02X166398Y146159I36*
G01*
G75*
G02X166732Y146186I1557J-17085*
G01*
G75*
G02X167135Y146206I644J-9052*
G01*
G75*
G02X167615Y146213I490J-17894*
G01*
X168865*
Y146699*
G75*
G03X168853Y146935I-2317J-1*
G01*
G75*
G03X168816Y147133I-1195J-122*
G01*
G75*
G03X168751Y147300I-906J-253*
G01*
G75*
G03X168657Y147449I-766J-380*
G01*
G75*
G03X168494Y147603I-594J-467*
G01*
G75*
G03X168311Y147678I-264J-381*
G01*
G75*
G03X168004Y147707I-330J-1867*
G01*
G75*
G03X167172Y147713I-856J-66442*
G01*
G75*
G03X166375Y147707I2J-54033*
G01*
G75*
G03X166039Y147678I35J-2367*
G01*
G75*
G03X165826Y147607I108J-677*
G01*
G75*
G03X165630Y147467I431J-817*
G01*
X165969Y147167D02*
G75*
G03X165925Y147098I246J-204D01*
G01*
G75*
G03X165894Y147012I469J-220*
G01*
G75*
G03X165878Y146922I494J-131*
G01*
G75*
G03X165883Y146842I296J-22*
G01*
G75*
G03X165953Y146745I140J27*
G01*
G75*
G03X166108Y146692I221J389*
G01*
G75*
G03X166414Y146667I340J2326*
G01*
G75*
G03X167115Y146663I678J48517*
G01*
G75*
G03X167839Y146667I11J53707*
G01*
G75*
G03X168133Y146692I-27J2084*
G01*
G75*
G03X168280Y146750I-56J356*
G01*
G75*
G03X168349Y146856I-93J137*
G01*
G75*
G03X168305Y147069I-278J53*
G01*
G75*
G03X168118Y147213I-315J-214*
G01*
G75*
G03X167732Y147291I-473J-1340*
G01*
G75*
G03X167058Y147313I-680J-10870*
G01*
G75*
G03X166581Y147306I2J-16181*
G01*
G75*
G03X166275Y147281I87J-2981*
G01*
G75*
G03X166075Y147237I173J-1283*
G01*
G75*
G03X165969Y147167I63J-211*
G01*
X167807Y147052D02*
G75*
G02X167924Y146959I-89J-234D01*
G01*
G75*
G02X167898Y146878I-44J-30*
G01*
G75*
G02X167627Y146826I-320J927*
G01*
G75*
G02X167115Y146813I-510J9994*
G01*
G75*
G02X166618Y146826I-4J9096*
G01*
G75*
G02X166338Y146878I61J1108*
G01*
G75*
G02X166301Y146957I18J57*
G01*
G75*
G02X166390Y147046I149J-59*
G01*
G75*
G02X166601Y147092I238J-589*
G01*
G75*
G02X167096Y147103I548J-13046*
G01*
G75*
G02X167591Y147096I53J-12867*
G01*
G75*
G02X167807Y147052I-24J-666*
G01*
X168380Y147213D02*
G75*
G02X168506Y147070I-1115J-1113D01*
G01*
G75*
G02X168594Y146933I-665J-521*
G01*
G75*
G02X168641Y146804I-524J-267*
G01*
G75*
G02X168647Y146688I-300J-72*
G01*
G75*
G02X168580Y146559I-217J31*
G01*
G75*
G02X168440Y146487I-198J211*
G01*
G75*
G02X168144Y146449I-392J1889*
G01*
G75*
G02X167316Y146413I-3693J74994*
G01*
G75*
G03X166542Y146378I2286J-59069*
G01*
G75*
G03X166217Y146340I131J-2541*
G01*
G75*
G03X166054Y146277I83J-459*
G01*
G75*
G03X165980Y146169I86J-139*
G01*
G75*
G03X166007Y145990I270J-51*
G01*
G75*
G03X166141Y145842I350J183*
G01*
G75*
G03X166376Y145744I379J584*
G01*
G75*
G03X166684Y145713I306J1456*
G01*
G75*
G02X166833Y145704I-3J-1402*
G01*
G75*
G02X166955Y145680I-73J-684*
G01*
G75*
G02X167039Y145644I-109J-374*
G01*
G75*
G02X167065Y145600I-26J-44*
G01*
G75*
G02X166957Y145494I-106J0*
G01*
G75*
G02X166541Y145533I49J2740*
G01*
G75*
G02X166091Y145647I498J2902*
G01*
G75*
G02X165811Y145815I248J731*
G01*
G75*
G02X165610Y146119I545J580*
G01*
G75*
G02X165548Y146500I942J349*
G01*
G75*
G02X165635Y146891I1084J-35*
G01*
G75*
G02X165857Y147220I962J-411*
G01*
G75*
G02X166059Y147391I1094J-1094*
G01*
G75*
G02X166242Y147472I301J-426*
G01*
G75*
G02X166505Y147506I292J-1259*
G01*
G75*
G02X167115Y147513I618J-26935*
G01*
G75*
G02X167728Y147506I-8J-27207*
G01*
G75*
G02X167990Y147472I-28J-1261*
G01*
G75*
G02X168172Y147389I-119J-503*
G01*
G75*
G02X168380Y147213I-973J-1355*
G01*
X170690Y146643D02*
G75*
G03X170574Y146602I80J-407D01*
G01*
G75*
G03X170507Y146533I77J-143*
G01*
G75*
G03X170474Y146417I276J-143*
G01*
G75*
G03X170465Y146207I2482J-207*
G01*
G75*
G03X170521Y145920I765J0*
G01*
G75*
G03X170678Y145773I237J96*
G01*
G75*
G03X171020Y145719I340J1037*
G01*
G75*
G03X171915Y145733I-80J33278*
G01*
X172915Y145763*
Y146663*
X171915Y146676*
G75*
G03X171515Y146677I-290J-22780*
G01*
G75*
G03X171143Y146671I88J-17328*
G01*
G75*
G03X170830Y146660I454J-17348*
G01*
G75*
G03X170690Y146643I41J-920*
G01*
X171646Y147437D02*
G75*
G02X171604Y147277I-574J67D01*
G01*
G75*
G02X171522Y147193I-151J64*
G01*
G75*
G02X171357Y147146I-226J489*
G01*
G75*
G02X170923Y147103I-1763J15465*
G01*
G75*
G03X170389Y147017I316J-3668*
G01*
G75*
G03X170080Y146856I162J-686*
G01*
G75*
G03X169917Y146584I361J-400*
G01*
G75*
G03X169865Y146150I1761J-433*
G01*
G75*
G03X169877Y145898I2685J-1*
G01*
G75*
G03X169919Y145750I407J38*
G01*
G75*
G03X170011Y145637I311J159*
G01*
G75*
G03X170190Y145511I1039J1285*
G01*
G75*
G03X170420Y145407I549J901*
G01*
G75*
G03X170689Y145348I448J1409*
G01*
G75*
G03X171089Y145320I475J3919*
G01*
G75*
G03X171822Y145313I759J38465*
G01*
G75*
G03X172633Y145318I6J58617*
G01*
G75*
G03X172972Y145346I-35J2488*
G01*
G75*
G03X173176Y145413I-96J637*
G01*
G75*
G03X173347Y145544I-306J578*
G01*
G75*
G03X173459Y145697I-561J528*
G01*
G75*
G03X173524Y145867I-563J313*
G01*
G75*
G03X173556Y146104I-1294J295*
G01*
G75*
G03X173565Y146498I-9015J395*
G01*
G75*
G03X173556Y146911I-9936J-2*
G01*
G75*
G03X173523Y147140I-1120J-47*
G01*
G75*
G03X173451Y147304I-534J-136*
G01*
G75*
G03X173319Y147467I-838J-543*
G01*
G75*
G03X173158Y147598I-710J-710*
G01*
G75*
G03X172995Y147670I-302J-463*
G01*
G75*
G03X172771Y147704I-273J-1046*
G01*
G75*
G03X172376Y147713I-401J-8861*
G01*
G75*
G03X171923Y147707I8J-19263*
G01*
G75*
G03X171765Y147676I11J-478*
G01*
G75*
G03X171687Y147600I48J-126*
G01*
G75*
G03X171646Y147437I592J-235*
G01*
X172713Y146415D02*
G75*
G02X172729Y146363I-90J-56D01*
G01*
G75*
G02X172724Y146286I-400J-14*
G01*
G75*
G02X172703Y146199I-507J81*
G01*
G75*
G02X172666Y146115I-547J189*
G01*
G75*
G02X172573Y146007I-282J150*
G01*
G75*
G02X172440Y145947I-211J289*
G01*
G75*
G02X172217Y145919I-259J1145*
G01*
G75*
G02X171769Y145913I-438J15190*
G01*
G75*
G02X171374Y145920I-1J9811*
G01*
G75*
G02X171114Y145948I79J2016*
G01*
G75*
G02X170936Y145997I156J906*
G01*
G75*
G02X170815Y146076I127J327*
G01*
G75*
G02X170750Y146255I161J161*
G01*
G75*
G02X170851Y146391I158J-12*
G01*
G75*
G02X171219Y146471I453J-1191*
G01*
G75*
G02X171934Y146501I939J-14062*
G01*
G75*
G02X172214Y146498I86J-5456*
G01*
G75*
G02X172459Y146480I-113J-3279*
G01*
G75*
G02X172657Y146452I-383J-3420*
G01*
G75*
G02X172713Y146415I-14J-81*
G01*
X173137Y147167D02*
G75*
G02X173322Y146843I-754J-648D01*
G01*
G75*
G02X173374Y146476I-914J-316*
G01*
G75*
G02X173284Y146111I-994J52*
G01*
G75*
G02X173064Y145796I-994J459*
G01*
X172763Y145495*
X171674Y145529*
G75*
G02X170891Y145579I364J11751*
G01*
G75*
G02X170466Y145693I131J1344*
G01*
G75*
G02X170246Y145896I196J432*
G01*
G75*
G02X170249Y146534I574J316*
G01*
G75*
G02X170476Y146737I410J-230*
G01*
G75*
G02X170923Y146847I572J-1354*
G01*
G75*
G02X171781Y146896I1283J-14973*
G01*
G75*
G03X172467Y146920I-1335J47959*
G01*
G75*
G03X172767Y146952I-99J2360*
G01*
G75*
G03X172906Y147007I-63J367*
G01*
G75*
G03X172944Y147096I-47J73*
G01*
G75*
G03X172902Y147175I-146J-27*
G01*
G75*
G03X172813Y147232I-185J-192*
G01*
G75*
G03X172667Y147270I-235J-604*
G01*
G75*
G03X172439Y147293I-428J-3115*
G01*
G75*
G02X172257Y147312I136J2147*
G01*
G75*
G02X172104Y147346I176J1158*
G01*
G75*
G02X171993Y147387I230J787*
G01*
G75*
G02X171965Y147431I20J43*
G01*
G75*
G02X171994Y147474I46*
G01*
G75*
G02X172087Y147497I136J-348*
G01*
G75*
G02X172234Y147502I102J-894*
G01*
G75*
G02X172437Y147485I-153J-3199*
G01*
G75*
G02X172671Y147446I-244J-2148*
G01*
G75*
G02X172853Y147384I-207J-917*
G01*
G75*
G02X173003Y147294I-311J-682*
G01*
G75*
G02X173137Y147167I-569J-733*
G01*
X174936Y148250D02*
G75*
G03X174909Y148210I92J-93D01*
G01*
G75*
G03X174886Y148145I451J-195*
G01*
G75*
G03X174870Y148069I563J-156*
G01*
G75*
G03X174865Y147993I556J-76*
G01*
G75*
G02X174854Y147917I-261J1*
G01*
G75*
G02X174821Y147844I-298J90*
G01*
G75*
G02X174772Y147785I-246J152*
G01*
G75*
G02X174715Y147748I-121J128*
G01*
G75*
G03X174606Y147636I66J-172*
G01*
G75*
G03X174568Y147413I662J-228*
G01*
G75*
G03X174604Y147190I696J-4*
G01*
G75*
G03X174711Y147078I172J57*
G01*
G75*
G02X174782Y147009I-46J-118*
G01*
G75*
G02X174831Y146850I-752J-318*
G01*
G75*
G02X174865Y146595I-2012J-397*
G01*
G75*
G02X174886Y146192I-11637J-816*
G01*
X174915Y145363*
X175615*
X175715Y147063*
X176165Y147113*
G75*
G03X176422Y147149I-473J4296*
G01*
G75*
G03X176540Y147196I-52J300*
G01*
G75*
G03X176596Y147274I-77J115*
G01*
G75*
G03X176615Y147413I-509J139*
G01*
G75*
G03X176596Y147550I-529J-1*
G01*
G75*
G03X176540Y147629I-133J-36*
G01*
G75*
G03X176423Y147676I-169J-252*
G01*
G75*
G03X176169Y147713I-724J-4131*
G01*
G75*
G02X175928Y147749I347J3136*
G01*
G75*
G02X175794Y147800I78J404*
G01*
G75*
G02X175716Y147881I111J187*
G01*
G75*
G02X175665Y148013I441J246*
G01*
G75*
G03X175621Y148133I-520J-121*
G01*
G75*
G03X175554Y148215I-216J-109*
G01*
G75*
G03X175454Y148265I-175J-225*
G01*
G75*
G03X175307Y148292I-235J-849*
G01*
G75*
G03X175187Y148298I-126J-1249*
G01*
G75*
G03X175075Y148292I-2J-980*
G01*
G75*
G03X174983Y148276I87J-786*
G01*
G75*
G03X174936Y148250I22J-94*
G01*
X175465Y147763D02*
G75*
G03X175530Y147637I584J221D01*
G01*
G75*
G03X175611Y147562I196J131*
G01*
G75*
G03X175728Y147524I156J279*
G01*
G75*
G03X175912Y147513I183J1506*
G01*
G75*
G02X176195Y147494I-2J-2196*
G01*
G75*
G02X176256Y147418I-9J-69*
G01*
G75*
G02X176181Y147335I-94J9*
G01*
G75*
G02X175890Y147293I-495J2419*
G01*
X175515Y147263*
X175465Y146463*
G75*
G02X175433Y146057I-12832J806*
G01*
G75*
G02X175394Y145829I-1530J144*
G01*
G75*
G02X175341Y145704I-418J106*
G01*
G75*
G02X175189Y145704I-76J47*
G01*
G75*
G02X175139Y145825I328J206*
G01*
G75*
G02X175107Y146050I1441J324*
G01*
G75*
G02X175085Y146459I13489J919*
G01*
G75*
G03X175067Y146769I-7005J-255*
G01*
G75*
G03X175036Y147040I-4174J-342*
G01*
G75*
G03X174998Y147259I-4761J-699*
G01*
G75*
G03X174959Y147316I-85J-17*
G01*
G75*
G02X174919Y147421I49J78*
G01*
G75*
G02X175020Y147691I2042J-611*
G01*
G75*
G02X175158Y147948I1964J-891*
G01*
G75*
G02X175274Y148013I117J-73*
G01*
G75*
G02X175318Y147996I0J-65*
G01*
G75*
G02X175370Y147939I-282J-311*
G01*
G75*
G02X175421Y147858I-469J-357*
G01*
G75*
G02X175465Y147763I-747J-399*
G01*
X177315Y166863D02*
G75*
G03X176221Y166690I5028J-35301D01*
G01*
G75*
G03X175315Y166507I2979J-17104*
G01*
G75*
G03X174324Y166256I5090J-22146*
G01*
G75*
G03X172915Y165852I24648J-88698*
G01*
G75*
G03X171251Y165267I4884J-16563*
G01*
G75*
G03X169759Y164546I5106J-12457*
G01*
G75*
G03X168594Y163784I5127J-9120*
G01*
G75*
G03X168006Y163093I1243J-1650*
G01*
G75*
G03X167887Y162750I1093J-572*
G01*
G75*
G03X167865Y162371I1440J-272*
G01*
G75*
G03X167939Y162022I1302J93*
G01*
G75*
G03X168102Y161766I655J237*
G01*
G75*
G03X168310Y161610I648J648*
G01*
G75*
G03X168627Y161461I1405J2573*
G01*
G75*
G03X168962Y161349I1099J2738*
G01*
G75*
G03X169233Y161313I276J1030*
G01*
G75*
G02X169291Y161296I-1J-111*
G01*
G75*
G02X169378Y161233I-471J-742*
G01*
G75*
G02X169474Y161145I-693J-848*
G01*
G75*
G02X169564Y161041I-1016J-973*
G01*
G75*
G03X169800Y160811I979J770*
G01*
G75*
G03X170092Y160646I813J1092*
G01*
G75*
G03X170440Y160546I614J1481*
G01*
G75*
G03X170840Y160513I399J2387*
G01*
X171293*
X171232Y159887*
G75*
G03X171093Y158148I53637J-5186*
G01*
G75*
G03X171011Y156429I50942J-3265*
G01*
G75*
G03X170993Y154883I43218J-1302*
G01*
G75*
G03X171045Y153696I15324J87*
G01*
G75*
G03X171099Y153113I34266J2848*
G01*
G75*
G03X171161Y152545I30891J3098*
G01*
G75*
G03X171223Y152059I27972J3331*
G01*
G75*
G03X171272Y151790I3076J420*
G01*
G75*
G03X171425Y151359I1924J439*
G01*
G75*
G03X171664Y151013I1267J622*
G01*
G75*
G03X171962Y150790I790J744*
G01*
G75*
G03X172286Y150713I324J637*
G01*
G75*
G02X172461Y150695I-1J-905*
G01*
G75*
G02X172615Y150644I-125J-635*
G01*
G75*
G02X172761Y150553I-325J-681*
G01*
G75*
G02X172915Y150413I-982J-1230*
G01*
G75*
G03X173196Y150203I761J728*
G01*
G75*
G03X173514Y150114I379J743*
G01*
G75*
G03X173848Y150155I64J868*
G01*
G75*
G03X174174Y150319I-374J1149*
G01*
X174465Y150526*
Y152113*
G75*
G02X174471Y152764I31907J16*
G01*
G75*
G02X174492Y153280I12865J-261*
G01*
G75*
G02X174522Y153692I19658J-1204*
G01*
G75*
G02X174565Y153763I92J-7*
G01*
G75*
G03X174604Y153821I-45J73*
G01*
G75*
G03X174635Y154037I-4204J714*
G01*
G75*
G03X174657Y154306I-3837J450*
G01*
G75*
G03X174665Y154613I-6472J311*
G01*
G75*
G02X174672Y154919I6471J4*
G01*
G75*
G02X174694Y155187I3859J-182*
G01*
G75*
G02X174725Y155404I4235J-498*
G01*
G75*
G02X174765Y155463I85J-15*
G01*
G75*
G03X174804Y155510I-49J80*
G01*
G75*
G03X174835Y155617I-810J299*
G01*
G75*
G03X174857Y155754I-1080J244*
G01*
G75*
G03X174865Y155904I-1525J151*
G01*
Y156283*
X175790Y156343*
G75*
G03X176578Y156440I-461J7037*
G01*
G75*
G03X177604Y156651I-3699J20576*
G01*
G75*
G03X178655Y156923I-4908J21140*
G01*
G75*
G03X179540Y157214I-3230J11311*
G01*
G75*
G02X179742Y157283I1533J-4117*
G01*
G75*
G02X179913Y157330I645J-2024*
G01*
G75*
G02X180048Y157356I450J-1967*
G01*
G75*
G02X180075Y157336I4J-24*
G01*
G75*
G02X180078Y157291I-322J-45*
G01*
G75*
G02X180077Y157189I-6242J21*
G01*
G75*
G02X180073Y157067I-6205J120*
G01*
G75*
G02X180067Y156937I-8165J306*
G01*
G75*
G03X180067Y156737I1942J-108*
G01*
G75*
G03X180106Y156657I112J6*
G01*
G75*
G03X180198Y156620I102J119*
G01*
G75*
G03X180451Y156613I249J4357*
G01*
G75*
G03X180609Y156620I2J1715*
G01*
G75*
G03X180753Y156642I-111J1207*
G01*
G75*
G03X180867Y156674I-203J939*
G01*
G75*
G03X180915Y156713I-31J88*
G01*
G75*
G02X180958Y156751I86J-54*
G01*
G75*
G02X181043Y156783I239J-502*
G01*
G75*
G02X181150Y156805I200J-700*
G01*
G75*
G02X181265Y156813I116J-893*
G01*
G75*
G03X181380Y156820I2J897*
G01*
G75*
G03X181487Y156842I-93J722*
G01*
G75*
G03X181572Y156874I-154J535*
G01*
G75*
G03X181615Y156913I-44J93*
G01*
G75*
G02X181652Y156951I108J-67*
G01*
G75*
G02X181711Y156983I187J-274*
G01*
G75*
G02X181783Y157005I151J-365*
G01*
G75*
G02X181857Y157013I74J-359*
G01*
G75*
G03X182112Y157070I0J598*
G01*
G75*
G03X182780Y157397I-10451J22149*
G01*
G75*
G03X183470Y157770I-7519J14751*
G01*
G75*
G03X184026Y158118I-4033J7065*
G01*
G75*
G03X184518Y158491I-3489J5108*
G01*
G75*
G03X185075Y158988I-8508J10107*
G01*
G75*
G03X185594Y159491I-17103J18157*
G01*
G75*
G03X185665Y159662I-171J172*
G01*
G75*
G02X185678Y159720I136J0*
G01*
G75*
G02X185720Y159796I567J-263*
G01*
G75*
G02X185781Y159878I641J-419*
G01*
G75*
G02X185853Y159952I620J-529*
G01*
G75*
G03X185937Y160057I-280J309*
G01*
G75*
G03X186037Y160254I-2383J1334*
G01*
G75*
G03X186134Y160491I-2898J1331*
G01*
G75*
G03X186215Y160740I-3232J1181*
G01*
G75*
G03X186319Y161313I-3015J844*
G01*
G75*
G03X186328Y161947I-4340J379*
G01*
G75*
G03X186250Y162525I-3896J-229*
G01*
G75*
G03X186087Y162913I-1085J-229*
G01*
G75*
G02X185885Y163226I8477J5674*
G01*
G75*
G02X185694Y163548I8876J5485*
G01*
G75*
G02X185501Y163901I10535J5990*
G01*
G75*
G02X185294Y164306I17486J9211*
G01*
G75*
G03X184758Y165100I-3254J-1617*
G01*
G75*
G03X184003Y165782I-3446J-3059*
G01*
G75*
G03X183046Y166333I-3196J-4439*
G01*
G75*
G03X181915Y166737I-3133J-6990*
G01*
G75*
G03X181038Y166894I-1335J-4925*
G01*
G75*
G03X179769Y166969I-1827J-20305*
G01*
G75*
G03X178434Y166963I-574J-21038*
G01*
G75*
G03X177315Y166863I384J-10651*
G01*
X177741Y148243D02*
G75*
G03X177725Y148178I124J-65D01*
G01*
G75*
G03X177724Y147766I63719J-328*
G01*
G75*
G03X177729Y147286I26621J44*
G01*
G75*
G03X177743Y146732I47236J931*
G01*
X177788Y145302*
X178101Y145332*
X178415Y145363*
Y148263*
X178099Y148293*
G75*
G03X177975Y148299I-121J-1244*
G01*
G75*
G03X177864Y148291I2J-821*
G01*
G75*
G03X177777Y148272I84J-607*
G01*
G75*
G03X177741Y148243I17J-57*
G01*
X178265Y146573D02*
G75*
G02X178258Y146146I-13927J5D01*
G01*
G75*
G02X178233Y145896I-1861J58*
G01*
G75*
G02X178189Y145747I-617J102*
G01*
G75*
G02X178115Y145676I-122J54*
G01*
G75*
G02X178039Y145695I-24J63*
G01*
G75*
G02X177993Y145794I157J135*
G01*
G75*
G02X177970Y146023I1446J260*
G01*
G75*
G02X177965Y146515I24408J480*
G01*
G75*
G02X177970Y146991I19906J7*
G01*
G75*
G02X177994Y147238I1750J-43*
G01*
G75*
G02X178039Y147368I403J-67*
G01*
G75*
G02X178190Y147370I76J-42*
G01*
G75*
G02X178235Y147248I-314J-187*
G01*
G75*
G02X178259Y147015I-1530J-273*
G01*
G75*
G02X178265Y146573I-16880J-446*
G01*
X179928Y147505D02*
G75*
G03X179781Y147359I576J-731D01*
G01*
G75*
G03X179705Y147211I311J-253*
G01*
G75*
G03X179672Y146989I945J-252*
G01*
G75*
G03X179665Y146520I14850J-459*
G01*
G75*
G03X179712Y145830I5041J-2*
G01*
G75*
G03X179895Y145527I444J62*
G01*
G75*
G03X180286Y145383I452J628*
G01*
G75*
G03X181321Y145329I1578J20174*
G01*
G75*
G03X182117Y145313I1543J57844*
G01*
G75*
G03X182427Y145334I25J1946*
G01*
G75*
G03X182622Y145403I-79J533*
G01*
G75*
G03X182811Y145550I-482J819*
G01*
G75*
G03X182948Y145716I-779J778*
G01*
G75*
G03X183022Y145880I-453J303*
G01*
G75*
G03X183056Y146106I-1031J270*
G01*
G75*
G03X183065Y146513I-9447J414*
G01*
G75*
G03X183056Y146915I-9331J-8*
G01*
G75*
G03X183022Y147142I-1099J-47*
G01*
G75*
G03X182950Y147305I-533J-138*
G01*
G75*
G03X182819Y147467I-840J-547*
G01*
G75*
G03X182636Y147606I-606J-606*
G01*
G75*
G03X182438Y147677I-301J-531*
G01*
G75*
G03X182122Y147706I-348J-2042*
G01*
G75*
G03X181383Y147713I-759J-45769*
G01*
G75*
G03X180697Y147706I0J-35161*
G01*
G75*
G03X180348Y147678I57J-2873*
G01*
G75*
G03X180121Y147617I138J-967*
G01*
G75*
G03X179928Y147505I294J-730*
G01*
X180340Y147204D02*
G75*
G03X180255Y147123I126J-217D01*
G01*
G75*
G03X180202Y147000I353J-225*
G01*
G75*
G03X180173Y146811I957J-243*
G01*
G75*
G03X180165Y146511I5577J-296*
G01*
G75*
G03X180206Y146054I2587J0*
G01*
G75*
G03X180348Y145836I329J59*
G01*
G75*
G03X180645Y145735I335J498*
G01*
G75*
G03X181350Y145713I703J11195*
G01*
G75*
G03X182085Y145727I5J18315*
G01*
G75*
G03X182328Y145811I-18J447*
G01*
G75*
G03X182439Y146003I-157J220*
G01*
G75*
G03X182465Y146513I-5064J510*
G01*
G75*
G03X182458Y146856I-8400J-1*
G01*
G75*
G03X182432Y147062I-1220J-50*
G01*
G75*
G03X182383Y147186I-414J-90*
G01*
G75*
G03X182307Y147252I-131J-76*
G01*
G75*
G03X182005Y147310I-315J-821*
G01*
G75*
G03X181297Y147307I-273J-18252*
G01*
G75*
G03X180583Y147278I518J-21459*
G01*
G75*
G03X180340Y147204I31J-544*
G01*
X182071Y147009D02*
G75*
G02X182161Y146938I-153J-285D01*
G01*
G75*
G02X182221Y146840I-246J-218*
G01*
G75*
G02X182254Y146703I-502J-195*
G01*
G75*
G02X182265Y146513I-1739J-193*
G01*
G75*
G02X182218Y146209I-1008*
G01*
G75*
G02X182080Y146030I-315J100*
G01*
G75*
G02X181811Y145937I-330J522*
G01*
G75*
G02X181315Y145913I-493J4974*
G01*
G75*
G02X180833Y145937I-2J4794*
G01*
G75*
G02X180560Y146025I69J682*
G01*
G75*
G02X180416Y146192I167J290*
G01*
G75*
G02X180365Y146460I681J268*
G01*
G75*
G02X180426Y146755I744J0*
G01*
G75*
G02X180596Y146959I429J-185*
G01*
G75*
G02X180894Y147076I420J-631*
G01*
G75*
G02X181344Y147113I451J-2759*
G01*
G75*
G02X181562Y147105I-4J-3144*
G01*
G75*
G02X181778Y147082I-210J-3018*
G01*
G75*
G02X181963Y147049I-368J-2585*
G01*
G75*
G02X182071Y147009I-88J-408*
G01*
X182270Y163260D02*
G75*
G02X182425Y163163I-520J-1008D01*
G01*
G75*
G02X182511Y163065I-183J-245*
G01*
G75*
G02X182552Y162934I-314J-172*
G01*
G75*
G02X182565Y162724I-1793J-213*
G01*
G75*
G02X182237Y161657I-1904J0*
G01*
G75*
G02X181189Y160409I-6526J4420*
G01*
G75*
G02X179632Y159151I-7868J8143*
G01*
G75*
G02X177715Y158037I-9485J14127*
G01*
G75*
G02X176902Y157654I-9827J19790*
G01*
G75*
G02X176253Y157397I-3321J7433*
G01*
G75*
G02X175745Y157250I-1615J4645*
G01*
G75*
G02X175393Y157230I-234J1011*
G01*
G75*
G02X175240Y157263I93J796*
G01*
G75*
G02X175157Y157323I51J159*
G01*
G75*
G02X175110Y157432I206J152*
G01*
G75*
G02X175083Y157650I2501J422*
G01*
G75*
G02X175079Y157807I1443J118*
G01*
G75*
G02X175092Y157956I1210J-30*
G01*
G75*
G02X175119Y158079I958J-148*
G01*
G75*
G02X175158Y158146I148J-42*
G01*
G75*
G03X175200Y158220I-111J111*
G01*
G75*
G03X175233Y158390I-2062J499*
G01*
G75*
G03X175257Y158599I-2392J376*
G01*
G75*
G03X175265Y158826I-3308J228*
G01*
G75*
G02X175272Y159051I3461J3*
G01*
G75*
G02X175294Y159250I2197J-142*
G01*
G75*
G02X175326Y159408I1976J-311*
G01*
G75*
G02X175365Y159463I86J-21*
G01*
G75*
G03X175404Y159508I-50J82*
G01*
G75*
G03X175435Y159606I-659J269*
G01*
G75*
G03X175457Y159728I-894J224*
G01*
G75*
G03X175465Y159863I-1221J135*
G01*
G75*
G02X175472Y159996I1225J2*
G01*
G75*
G02X175494Y160119I917J-101*
G01*
G75*
G02X175526Y160217I691J-172*
G01*
G75*
G02X175565Y160263I90J-37*
G01*
G75*
G03X175604Y160308I-50J82*
G01*
G75*
G03X175635Y160406I-659J269*
G01*
G75*
G03X175657Y160528I-894J224*
G01*
G75*
G03X175665Y160663I-1221J135*
G01*
G75*
G02X175672Y160796I1225J2*
G01*
G75*
G02X175694Y160919I917J-101*
G01*
G75*
G02X175726Y161017I691J-172*
G01*
G75*
G02X175765Y161063I90J-37*
G01*
G75*
G03X175803Y161098I-72J117*
G01*
G75*
G03X175835Y161153I-244J180*
G01*
G75*
G03X175857Y161218I-314J143*
G01*
G75*
G03X175865Y161283I-284J66*
G01*
G75*
G02X175885Y161370I194J0*
G01*
G75*
G02X175967Y161520I1989J-988*
G01*
G75*
G02X176080Y161693I2185J-1305*
G01*
G75*
G02X176214Y161868I2674J-1909*
G01*
G75*
G02X176615Y162241I1564J-1281*
G01*
G75*
G02X177235Y162624I3554J-5053*
G01*
G75*
G02X177878Y162924I2931J-5434*
G01*
G75*
G02X178335Y163013I458J-1144*
G01*
G75*
G03X178461Y163020I2J1090*
G01*
G75*
G03X178578Y163042I-98J836*
G01*
G75*
G03X178670Y163074I-163J624*
G01*
G75*
G03X178715Y163113I-40J91*
G01*
G75*
G02X178762Y163152I82J-52*
G01*
G75*
G02X178867Y163186I318J-796*
G01*
G75*
G02X179000Y163211I269J-1057*
G01*
G75*
G02X179146Y163222I189J-1470*
G01*
G75*
G03X179305Y163232I-61J2386*
G01*
G75*
G03X179480Y163253I-326J3474*
G01*
G75*
G03X179643Y163281I-472J3198*
G01*
G75*
G03X179765Y163313I-214J1082*
G01*
G75*
G02X180242Y163396I547J-1711*
G01*
G75*
G02X181072Y163404I545J-13724*
G01*
G75*
G02X181898Y163365I-330J-15609*
G01*
G75*
G02X182270Y163260I-71J-963*
G01*
X182624Y147182D02*
G75*
G02X182731Y147033I-826J-710D01*
G01*
G75*
G02X182806Y146875I-769J-463*
G01*
G75*
G02X182850Y146703I-869J-313*
G01*
G75*
G02X182865Y146513I-1230J-193*
G01*
G75*
G02X182850Y146322I-1247J2*
G01*
G75*
G02X182806Y146150I-913J141*
G01*
G75*
G02X182731Y145992I-844J304*
G01*
G75*
G02X182624Y145843I-934J561*
G01*
G75*
G02X182452Y145682I-831J715*
G01*
G75*
G02X182280Y145598I-301J399*
G01*
G75*
G02X182020Y145556I-341J1278*
G01*
G75*
G02X181442Y145528I-1433J23639*
G01*
G75*
G02X180857Y145514I-880J24263*
G01*
G75*
G02X180590Y145537I-15J1371*
G01*
G75*
G02X180399Y145609I106J572*
G01*
G75*
G02X180183Y145762I822J1389*
G01*
G75*
G02X180011Y145927I1218J1446*
G01*
G75*
G02X179920Y146067I359J332*
G01*
G75*
G02X179877Y146239I526J223*
G01*
G75*
G02X179865Y146513I3022J272*
G01*
G75*
G02X179877Y146786I3030J2*
G01*
G75*
G02X179920Y146957I569J-51*
G01*
G75*
G02X180011Y147098I450J-192*
G01*
G75*
G02X180183Y147263I1390J-1281*
G01*
G75*
G02X180399Y147416I1038J-1236*
G01*
G75*
G02X180590Y147487I297J-501*
G01*
G75*
G02X180857Y147511I252J-1348*
G01*
G75*
G02X181442Y147496I-295J-24277*
G01*
G75*
G02X182020Y147469I-856J-23667*
G01*
G75*
G02X182280Y147426I-80J-1320*
G01*
G75*
G02X182452Y147343I-128J-483*
G01*
G75*
G02X182624Y147182I-660J-876*
G01*
X184382Y147481D02*
G75*
G03X184265Y147315I528J-495D01*
G01*
G75*
G03X184201Y147126I609J-312*
G01*
G75*
G03X184172Y146838I1850J-335*
G01*
G75*
G03X184165Y146281I21918J-542*
G01*
Y145313*
X184865*
Y146109*
G75*
G02X184893Y146711I6503J4*
G01*
G75*
G02X185012Y146965I413J-39*
G01*
G75*
G02X185265Y147084I292J-291*
G01*
G75*
G02X185865Y147113I603J-6394*
G01*
G75*
G02X186465Y147084I-3J-6418*
G01*
G75*
G02X186718Y146965I-39J-410*
G01*
G75*
G02X186837Y146711I-293J-293*
G01*
G75*
G02X186865Y146109I-6476J-602*
G01*
Y145313*
X187572*
X187543Y146385*
G75*
G03X187520Y147061I-41816J-1122*
G01*
G75*
G03X187484Y147325I-1435J-61*
G01*
G75*
G03X187408Y147472I-331J-76*
G01*
G75*
G03X187265Y147583I-358J-315*
G01*
G75*
G03X187092Y147638I-258J-510*
G01*
G75*
G03X186765Y147677I-791J-5300*
G01*
G75*
G03X186337Y147702I-669J-7598*
G01*
G75*
G03X185807Y147711I-554J-17701*
G01*
G75*
G03X185066Y147706I-46J-46911*
G01*
G75*
G03X184746Y147678I32J-2211*
G01*
G75*
G03X184550Y147611I97J-604*
G01*
G75*
G03X184382Y147481I323J-591*
G01*
X187155Y147272D02*
G75*
G02X187263Y147139I-389J-428D01*
G01*
G75*
G02X187326Y146981I-468J-278*
G01*
G75*
G02X187357Y146750I-1239J-282*
G01*
G75*
G02X187365Y146347I-10135J-409*
G01*
G75*
G02X187359Y145966I-12080J9*
G01*
G75*
G02X187335Y145760I-1221J38*
G01*
G75*
G02X187289Y145652I-291J60*
G01*
G75*
G02X187140Y145654I-74J50*
G01*
G75*
G02X187094Y145769I279J177*
G01*
G75*
G02X187070Y145989I1364J260*
G01*
G75*
G02X187065Y146402I14487J400*
G01*
G75*
G03X187058Y146811I-12678J-3*
G01*
G75*
G03X187033Y147044I-1549J-52*
G01*
G75*
G03X186985Y147181I-482J-89*
G01*
G75*
G03X186907Y147252I-132J-69*
G01*
G75*
G03X186648Y147302I-275J-717*
G01*
G75*
G03X185865Y147311I-795J-36471*
G01*
G75*
G03X185081Y147302I12J-36498*
G01*
G75*
G03X184823Y147252I17J-768*
G01*
G75*
G03X184744Y147181I53J-139*
G01*
G75*
G03X184697Y147044I435J-226*
G01*
G75*
G03X184671Y146811I1523J-285*
G01*
G75*
G03X184665Y146402I12671J-400*
G01*
G75*
G02X184659Y145989I-14492J1*
G01*
G75*
G02X184635Y145769I-1388J41*
G01*
G75*
G02X184589Y145654I-325J62*
G01*
G75*
G02X184515Y145613I-74J47*
G01*
G75*
G02X184441Y145650I0J91*
G01*
G75*
G02X184395Y145755I228J162*
G01*
G75*
G02X184371Y145953I1111J237*
G01*
G75*
G02X184365Y146317I10857J358*
G01*
G75*
G02X184374Y146721I9272J3*
G01*
G75*
G02X184408Y146945I1053J-46*
G01*
G75*
G02X184482Y147109I526J-139*
G01*
G75*
G02X184619Y147276I926J-622*
G01*
G75*
G02X184802Y147422I737J-736*
G01*
G75*
G02X184982Y147490I263J-420*
G01*
G75*
G02X185256Y147512I255J-1481*
G01*
G75*
G02X185909Y147496I-493J-34862*
G01*
G75*
G02X186461Y147471I-676J-20562*
G01*
G75*
G02X186785Y147432I-163J-2742*
G01*
G75*
G02X186998Y147370I-191J-1054*
G01*
G75*
G02X187155Y147272I-200J-493*
G01*
X280415Y167113D02*
Y162933D01*
X281122Y162862*
G75*
G02X281465Y162819I-768J-7585*
G01*
G75*
G02X281685Y162770I-214J-1459*
G01*
G75*
G02X281822Y162708I-175J-571*
G01*
G75*
G02X281887Y162626I-82J-133*
G01*
G75*
G03X282014Y162386I881J310*
G01*
G75*
G03X282206Y162188I796J581*
G01*
G75*
G03X282436Y162057I560J719*
G01*
G75*
G03X282677Y162013I241J622*
G01*
G75*
G02X282806Y162005I-1J-1146*
G01*
G75*
G02X282926Y161983I-99J-870*
G01*
G75*
G02X283020Y161951I-167J-651*
G01*
G75*
G02X283065Y161913I-38J-91*
G01*
G75*
G03X283147Y161865I85J52*
G01*
G75*
G03X284270Y161838I7604J291089*
G01*
G75*
G03X285674Y161819I1951J89069*
G01*
G75*
G03X287602Y161813I1909J308554*
G01*
G75*
G02X290064Y161807I-17J-600317*
G01*
G75*
G02X291293Y161785I-193J-44979*
G01*
G75*
G02X292046Y161749I-721J-22836*
G01*
G75*
G02X292271Y161666I-26J-417*
G01*
G75*
G03X292356Y161609I519J683*
G01*
G75*
G03X292449Y161561I495J851*
G01*
G75*
G03X292538Y161527I353J784*
G01*
G75*
G03X292606Y161516I72J227*
G01*
G75*
G02X292911Y161445I-18J-774*
G01*
G75*
G02X293370Y161205I-2131J-4631*
G01*
G75*
G02X293813Y160911I-2529J-4288*
G01*
G75*
G02X294092Y160639I-882J-1185*
G01*
G75*
G02X294495Y160024I-3333J-2623*
G01*
G75*
G02X294824Y159297I-5148J-2766*
G01*
G75*
G02X295043Y158554I-5215J-1940*
G01*
G75*
G02X295115Y157891I-3004J-664*
G01*
Y157513*
X295622*
G75*
G02X295987Y157491I-2J-3084*
G01*
G75*
G02X296270Y157423I-148J-1243*
G01*
G75*
G02X296453Y157318I-214J-581*
G01*
G75*
G02X296516Y157184I-113J-135*
G01*
G75*
G03X296541Y157125I84J1*
G01*
G75*
G03X296640Y157039I750J765*
G01*
G75*
G03X296775Y156948I826J1076*
G01*
G75*
G03X296935Y156863I1052J1775*
G01*
G75*
G03X297298Y156748I588J1226*
G01*
G75*
G03X297813Y156692I742J4433*
G01*
G75*
G03X298713Y156667I981J19589*
G01*
G75*
G03X300913Y156663I2187J506315*
G01*
G75*
G03X303028Y156667I20J464200*
G01*
G75*
G03X303949Y156691I-100J22243*
G01*
G75*
G03X304472Y156738I-278J5987*
G01*
G75*
G03X304743Y156839I-87J648*
G01*
G75*
G03X305063Y157117I-865J1319*
G01*
G75*
G03X305246Y157437I-686J604*
G01*
G75*
G03X305343Y157921I-1993J650*
G01*
G75*
G03X305396Y158837I-21256J1683*
G01*
G75*
G03X305400Y160158I-20001J720*
G01*
G75*
G03X305303Y161231I-8926J-265*
G01*
G75*
G03X305097Y162140I-6407J-973*
G01*
G75*
G03X304770Y162957I-4946J-1500*
G01*
G75*
G03X304138Y164005I-7011J-3519*
G01*
G75*
G03X303306Y165024I-8493J-6082*
G01*
G75*
G03X302396Y165887I-7101J-6578*
G01*
G75*
G03X301529Y166456I-2923J-3515*
G01*
G75*
G03X300450Y166854I-2296J-4557*
G01*
G75*
G03X299231Y167037I-1600J-6520*
G01*
G75*
G03X297082Y167100I-2257J-39815*
G01*
G75*
G03X289990Y167111I-7553J-2673193*
G01*
X280415Y167113*
X280839Y159487D02*
G75*
G03X280874Y158924I13926J604D01*
G01*
G75*
G03X280930Y158460I6617J561*
G01*
G75*
G03X281011Y158052I5056J783*
G01*
G75*
G03X281122Y157663I4457J1071*
G01*
G75*
G03X281434Y156939I4546J1528*
G01*
G75*
G03X281891Y156191I6462J3434*
G01*
G75*
G03X282436Y155499I6068J4223*
G01*
G75*
G03X283016Y154943I3820J3402*
G01*
G75*
G02X283306Y154705I-243152J-296990*
G01*
G75*
G02X283644Y154428I-440327J-537130*
G01*
G75*
G02X283974Y154157I-431559J-525222*
G01*
G75*
G02X284241Y153937I-185301J-225352*
G01*
G75*
G03X284470Y153752I7753J9402*
G01*
G75*
G03X284684Y153590I5168J6578*
G01*
G75*
G03X284866Y153460I5536J7558*
G01*
G75*
G03X284941Y153423I159J227*
G01*
G75*
G02X285006Y153396I-121J-383*
G01*
G75*
G02X285107Y153341I-1234J-2370*
G01*
G75*
G02X285220Y153272I-1514J-2610*
G01*
G75*
G02X285331Y153198I-1659J-2609*
G01*
G75*
G03X285447Y153127I621J889*
G01*
G75*
G03X285578Y153067I624J1183*
G01*
G75*
G03X285703Y153025I437J1100*
G01*
G75*
G03X285800Y153013I96J356*
G01*
G75*
G02X285882Y153005I0J-464*
G01*
G75*
G02X285962Y152983I-81J-449*
G01*
G75*
G02X286027Y152951I-130J-344*
G01*
G75*
G02X286065Y152913I-62J-102*
G01*
G75*
G03X286106Y152874I94J57*
G01*
G75*
G03X286179Y152842I211J381*
G01*
G75*
G03X286269Y152820I176J528*
G01*
G75*
G03X286365Y152813I94J619*
G01*
G75*
G02X286461Y152805I-1J-624*
G01*
G75*
G02X286552Y152783I-86J-550*
G01*
G75*
G02X286625Y152751I-138J-413*
G01*
G75*
G02X286665Y152713I-53J-96*
G01*
G75*
G03X286711Y152674I83J50*
G01*
G75*
G03X286808Y152642I269J659*
G01*
G75*
G03X286931Y152620I224J894*
G01*
G75*
G03X287065Y152613I132J1221*
G01*
G75*
G02X287199Y152605I-1J-1225*
G01*
G75*
G02X287322Y152583I-101J-917*
G01*
G75*
G02X287420Y152551I-172J-691*
G01*
G75*
G02X287465Y152513I-37J-90*
G01*
G75*
G03X287525Y152473I73J44*
G01*
G75*
G03X287770Y152442I852J5725*
G01*
G75*
G03X288070Y152420I501J4776*
G01*
G75*
G03X288415Y152413I341J8198*
G01*
G75*
G02X288760Y152405I-6J-8196*
G01*
G75*
G02X289061Y152383I-200J-4798*
G01*
G75*
G02X289305Y152352I-608J-5756*
G01*
G75*
G02X289365Y152313I-12J-85*
G01*
G75*
G03X289425Y152273I73J44*
G01*
G75*
G03X289670Y152242I852J5725*
G01*
G75*
G03X289970Y152220I501J4776*
G01*
G75*
G03X290315Y152213I341J8198*
G01*
G75*
G02X290660Y152205I-6J-8196*
G01*
G75*
G02X290961Y152183I-200J-4798*
G01*
G75*
G02X291205Y152152I-608J-5756*
G01*
G75*
G02X291265Y152113I-12J-85*
G01*
G75*
G03X291311Y152074I83J50*
G01*
G75*
G03X291408Y152042I269J659*
G01*
G75*
G03X291531Y152020I224J894*
G01*
G75*
G03X291665Y152013I132J1221*
G01*
G75*
G02X291799Y152005I-1J-1225*
G01*
G75*
G02X291922Y151983I-101J-917*
G01*
G75*
G02X292020Y151951I-172J-691*
G01*
G75*
G02X292065Y151913I-37J-90*
G01*
G75*
G03X292105Y151874I95J58*
G01*
G75*
G03X292177Y151842I208J367*
G01*
G75*
G03X292266Y151820I174J511*
G01*
G75*
G03X292359Y151813I91J583*
G01*
G75*
G02X292598Y151779I-1J-884*
G01*
G75*
G02X292936Y151667I-1054J-3745*
G01*
G75*
G02X293404Y151471I-2900J-7565*
G01*
G75*
G02X294094Y151147I-16230J-35467*
G01*
G75*
G02X295004Y150576I-2080J-4325*
G01*
G75*
G02X295742Y149827I-2739J-3435*
G01*
G75*
G02X296250Y148963I-3153J-2438*
G01*
G75*
G02X296487Y148051I-2868J-1232*
G01*
X296543Y147513*
X297060*
G75*
G02X297380Y147500I-2J-4126*
G01*
G75*
G02X297548Y147451I-33J-426*
G01*
G75*
G02X297685Y147339I-210J-396*
G01*
G75*
G02X297886Y147073I-3663J-2988*
G01*
G75*
G03X298089Y146813I2731J1922*
G01*
G75*
G03X298253Y146680I461J400*
G01*
G75*
G03X298469Y146596I403J718*
G01*
G75*
G03X298893Y146509I1912J8236*
G01*
G75*
G03X299495Y146442I812J4541*
G01*
G75*
G03X300268Y146432I539J11968*
G01*
G75*
G03X301447Y146476I-648J33686*
G01*
G75*
G03X303615Y146600I-18190J334956*
G01*
G75*
G03X304622Y146675I-2365J38850*
G01*
G75*
G03X305153Y146761I-319J3658*
G01*
G75*
G03X305494Y146894I-303J1274*
G01*
G75*
G03X305765Y147111I-529J940*
G01*
G75*
G03X305876Y147301I-404J364*
G01*
G75*
G03X305933Y147565I-1130J383*
G01*
G75*
G03X305957Y148017I-4848J484*
G01*
G75*
G03X305960Y149048I-99493J744*
G01*
G75*
G03X305950Y150156I-93904J-314*
G01*
G75*
G03X305916Y150624I-4101J-61*
G01*
G75*
G03X305832Y150972I-1670J-218*
G01*
G75*
G03X305652Y151413I-4809J-1713*
G01*
G75*
G03X305524Y151671I-5520J-2569*
G01*
G75*
G03X305389Y151912I-4474J-2346*
G01*
G75*
G03X305265Y152109I-3912J-2335*
G01*
G75*
G03X305182Y152200I-349J-234*
G01*
G75*
G02X305118Y152259I474J576*
G01*
G75*
G02X305064Y152323I463J444*
G01*
G75*
G02X305026Y152383I412J305*
G01*
G75*
G02X305015Y152426I80J43*
G01*
G75*
G03X304951Y152609I-292*
G01*
G75*
G03X304501Y153152I-19390J-15613*
G01*
G75*
G03X304024Y153682I-10253J-8738*
G01*
G75*
G03X303632Y154048I-3222J-3057*
G01*
G75*
G03X302692Y154678I-3604J-4360*
G01*
G75*
G03X301657Y155100I-2546J-4764*
G01*
G75*
G03X300363Y155364I-2246J-7724*
G01*
G75*
G03X298604Y155511I-2972J-24931*
G01*
G75*
G02X297269Y155612I1201J24689*
G01*
G75*
G02X295869Y155789I3128J30418*
G01*
G75*
G02X294631Y156001I4411J29444*
G01*
G75*
G02X293965Y156206I617J3183*
G01*
G75*
G03X293865Y156248I-1487J-3481*
G01*
G75*
G03X293721Y156304I-5404J-13543*
G01*
G75*
G03X293564Y156363I-5756J-15008*
G01*
G75*
G03X293415Y156417I-4366J-11784*
G01*
G75*
G02X292655Y156758I1824J5090*
G01*
G75*
G02X291946Y157215I2706J4978*
G01*
G75*
G02X291376Y157722I2901J3841*
G01*
G75*
G02X291039Y158213I1313J1259*
G01*
G75*
G03X290947Y158375I-1068J-500*
G01*
G75*
G03X290800Y158577I-3080J-2081*
G01*
G75*
G03X290628Y158783I-3207J-2506*
G01*
G75*
G03X290455Y158963I-2239J-1991*
G01*
G75*
G02X290228Y159200I2327J2450*
G01*
G75*
G02X290088Y159404I824J715*
G01*
G75*
G02X289994Y159639I1048J557*
G01*
G75*
G02X289911Y159987I4311J1203*
G01*
X289789Y160613*
X280790*
X280839Y159487*
X287715Y153317D02*
G75*
G02X288988Y153213I-1913J-31378D01*
G01*
G75*
G02X290026Y153069I-1456J-14298*
G01*
G75*
G02X290937Y152869I-1918J-10890*
G01*
G75*
G02X291815Y152594I-2692J-10150*
G01*
G75*
G02X292428Y152349I-3294J-9128*
G01*
G75*
G02X293026Y152061I-4011J-9107*
G01*
G75*
G02X293242Y151911I-477J-913*
G01*
G75*
G02X293215Y151863I-19J-21*
G01*
G75*
G03X293100Y151893I-1161J-4252*
G01*
G75*
G03X292957Y151926I-2335J-9485*
G01*
G75*
G03X292813Y151958I-2212J-9678*
G01*
G75*
G03X292689Y151983I-1117J-5178*
G01*
G75*
G02X292579Y152010I209J1110*
G01*
G75*
G02X292478Y152046I264J896*
G01*
G75*
G02X292397Y152086I296J700*
G01*
G75*
G02X292358Y152124I55J96*
G01*
G75*
G03X292316Y152158I-70J-43*
G01*
G75*
G03X292220Y152186I-265J-730*
G01*
G75*
G03X292099Y152206I-219J-963*
G01*
G75*
G03X291965Y152213I-136J-1371*
G01*
G75*
G02X291831Y152220I-2J1228*
G01*
G75*
G02X291708Y152242I101J917*
G01*
G75*
G02X291611Y152274I172J691*
G01*
G75*
G02X291565Y152313I37J89*
G01*
G75*
G03X291505Y152352I-72J-45*
G01*
G75*
G03X291261Y152383I-852J-5725*
G01*
G75*
G03X290960Y152405I-501J-4776*
G01*
G75*
G03X290615Y152413I-350J-8188*
G01*
G75*
G02X290270Y152420I-4J8205*
G01*
G75*
G02X289970Y152442I200J4798*
G01*
G75*
G02X289725Y152473I608J5756*
G01*
G75*
G02X289665Y152513I13J84*
G01*
G75*
G03X289605Y152552I-72J-45*
G01*
G75*
G03X289361Y152583I-852J-5725*
G01*
G75*
G03X289060Y152605I-501J-4776*
G01*
G75*
G03X288715Y152613I-350J-8188*
G01*
G75*
G02X288370Y152620I-4J8205*
G01*
G75*
G02X288070Y152642I200J4798*
G01*
G75*
G02X287825Y152673I608J5756*
G01*
G75*
G02X287765Y152713I13J84*
G01*
G75*
G03X287720Y152751I-82J-51*
G01*
G75*
G03X287622Y152783I-269J-659*
G01*
G75*
G03X287499Y152805I-224J-894*
G01*
G75*
G03X287365Y152813I-135J-1218*
G01*
G75*
G02X287231Y152820I-2J1228*
G01*
G75*
G02X287108Y152842I101J917*
G01*
G75*
G02X287011Y152874I172J691*
G01*
G75*
G02X286965Y152913I37J89*
G01*
G75*
G03X286925Y152951I-93J-58*
G01*
G75*
G03X286852Y152983I-211J-381*
G01*
G75*
G03X286761Y153005I-176J-528*
G01*
G75*
G03X286665Y153013I-96J-616*
G01*
G75*
G02X286569Y153020I-2J626*
G01*
G75*
G02X286479Y153042I86J550*
G01*
G75*
G02X286406Y153074I138J413*
G01*
G75*
G02X286365Y153113I54J96*
G01*
G75*
G03X286325Y153151I-94J-59*
G01*
G75*
G03X286254Y153183I-208J-367*
G01*
G75*
G03X286165Y153205I-174J-509*
G01*
G75*
G03X286072Y153213I-94J-585*
G01*
G75*
G02X285973Y153225J406*
G01*
G75*
G02X285867Y153261I152J613*
G01*
G75*
G02X285772Y153315I253J559*
G01*
G75*
G02X285702Y153378I191J280*
G01*
G75*
G02X285629Y153475I1143J945*
G01*
G75*
G02X285635Y153507I19J13*
G01*
G75*
G02X285683Y153516I35J-57*
G01*
G75*
G02X285865Y153478I-1269J-6579*
G01*
G75*
G03X286057Y153447I351J1578*
G01*
G75*
G03X286532Y153403I4100J41574*
G01*
G75*
G03X287100Y153358I3394J38952*
G01*
G75*
G03X287715Y153317I3924J53841*
G01*
X290969Y162658D02*
G75*
G02X291424Y162518I-1367J-5253D01*
G01*
G75*
G02X291993Y162302I-4825J-13590*
G01*
G75*
G02X292567Y162066I-17222J-42635*
G01*
G75*
G02X292615Y161993I-31J-73*
G01*
G75*
G02X292554Y161932I-62*
G01*
G75*
G02X288025Y161991I159934J12355036*
G01*
G75*
G02X283522Y162053I115047J8601165*
G01*
G75*
G02X283371Y162116I3J217*
G01*
G75*
G03X283314Y162154I-117J-116*
G01*
G75*
G03X283216Y162184I-288J-750*
G01*
G75*
G03X283098Y162206I-233J-951*
G01*
G75*
G03X282977Y162213I-121J-1036*
G01*
G75*
G02X282751Y162258I-1J578*
G01*
G75*
G02X282491Y162400I594J1396*
G01*
G75*
G02X282278Y162577I808J1190*
G01*
G75*
G02X282215Y162730I154J152*
G01*
G75*
G02X282248Y162764I33*
G01*
G75*
G02X283413Y162788I15784J-725747*
G01*
G75*
G02X284730Y162806I2091J-104177*
G01*
G75*
G02X286294Y162813I1614J-206495*
G01*
G75*
G02X288483Y162806I-55J-399426*
G01*
G75*
G02X289707Y162783I-244J-44353*
G01*
G75*
G02X290487Y162739I-553J-16843*
G01*
G75*
G02X290969Y162658I-222J-2799*
G01*
X304783Y162236D02*
G75*
G02X304981Y161637I-2580J-1187D01*
G01*
G75*
G02X305122Y160782I-9544J-2017*
G01*
G75*
G02X305197Y159815I-11379J-1367*
G01*
G75*
G02X305190Y158849I-11248J-396*
G01*
G75*
G02X305130Y158111I-12272J630*
G01*
G75*
G02X305024Y157691I-1600J179*
G01*
G75*
G02X304828Y157383I-917J367*
G01*
G75*
G02X304477Y157069I-1951J1827*
G01*
G75*
G02X304209Y156948I-407J546*
G01*
G75*
G02X303783Y156891I-594J2830*
G01*
G75*
G02X303004Y156867I-837J14488*
G01*
G75*
G02X300926Y156863I-2064J491785*
G01*
G75*
G02X298916Y156867I-42J409888*
G01*
G75*
G02X298077Y156892I84J17069*
G01*
G75*
G02X297589Y156948I219J4033*
G01*
G75*
G02X297235Y157063I241J1356*
G01*
G75*
G02X296998Y157287I229J479*
G01*
G75*
G02X297078Y157445I94J51*
G01*
G75*
G02X297903Y157509I912J-6468*
G01*
G75*
G02X300590Y157536I5600J-414956*
G01*
X304365Y157563*
X304392Y160137*
G75*
G02X304407Y161125I92599J-983*
G01*
G75*
G02X304432Y161956I46674J-978*
G01*
G75*
G02X304462Y162682I228811J-8932*
G01*
G75*
G02X304492Y162711I30J-1*
G01*
G75*
G02X304530Y162690I-1J-48*
G01*
G75*
G02X304607Y162570I-2284J-1570*
G01*
G75*
G02X304694Y162417I-2111J-1292*
G01*
G75*
G02X304783Y162236I-3787J-1965*
G01*
X305519Y151039D02*
G75*
G02X305643Y150719I-2039J-976D01*
G01*
G75*
G02X305711Y150398I-1820J-549*
G01*
G75*
G02X305743Y149947I-4595J-559*
G01*
G75*
G02X305756Y149096I-49678J-1161*
G01*
G75*
G02X305757Y148154I-83949J-541*
G01*
G75*
G02X305730Y147789I-2750J16*
G01*
G75*
G02X305660Y147566I-687J94*
G01*
G75*
G02X305515Y147361I-811J419*
G01*
G75*
G02X305128Y147073I-996J932*
G01*
G75*
G02X304648Y146921I-720J1443*
G01*
G75*
G02X303759Y146827I-1521J10127*
G01*
G75*
G02X300765Y146648I-44613J723555*
G01*
G75*
G02X299934Y146634I-590J10197*
G01*
G75*
G02X299232Y146698I126J5318*
G01*
G75*
G02X298685Y146829I552J3504*
G01*
G75*
G02X298346Y147030I281J859*
G01*
G75*
G02X298238Y147286I235J250*
G01*
G75*
G02X298381Y147450I169J-3*
G01*
G75*
G02X299079Y147509I766J-4832*
G01*
G75*
G02X301540Y147536I5564J-398372*
G01*
X304965Y147563*
X305022Y149563*
G75*
G02X305046Y150331I247509J-7219*
G01*
G75*
G02X305069Y150984I128899J-4107*
G01*
G75*
G02X305090Y151567I1076944J-39730*
G01*
G75*
G02X305098Y151593I59J-2*
G01*
G75*
G02X305156Y151605I34J-19*
G01*
G75*
G02X305252Y151509I-311J-407*
G01*
G75*
G02X305376Y151318I-1237J-939*
G01*
G75*
G02X305519Y151039I-4746J-2613*
G01*
X311556Y147502D02*
G75*
G03X311454Y147335I386J-349D01*
G01*
G75*
G03X311398Y147110I950J-356*
G01*
G75*
G03X311371Y146745I3270J-423*
G01*
G75*
G03X311365Y146027I41018J-696*
G01*
Y144763*
X311711*
G75*
G03X311895Y144773I1J1643*
G01*
G75*
G03X312002Y144810I-29J257*
G01*
G75*
G03X312069Y144883I-95J152*
G01*
G75*
G03X312115Y145013I-545J269*
G01*
G75*
G02X312189Y145157I331J-77*
G01*
G75*
G02X312316Y145236I188J-163*
G01*
G75*
G02X312573Y145275I335J-1331*
G01*
G75*
G02X313303Y145313I3188J-55081*
G01*
G75*
G03X314215Y145385I-579J13140*
G01*
G75*
G03X314591Y145545I-81J712*
G01*
G75*
G03X314769Y145865I-320J387*
G01*
G75*
G03X314815Y146566I-5266J701*
G01*
G75*
G03X314807Y147002I-12267J-3*
G01*
G75*
G03X314774Y147216I-911J-33*
G01*
G75*
G03X314698Y147361I-384J-107*
G01*
G75*
G03X314552Y147505I-733J-602*
G01*
G75*
G03X314356Y147617I-478J-609*
G01*
G75*
G03X314122Y147678I-369J-942*
G01*
G75*
G03X313756Y147706I-422J-3117*
G01*
G75*
G03X313017Y147713I-753J-42333*
G01*
G75*
G03X312257Y147707I8J-49954*
G01*
G75*
G03X311915Y147680I42J-2688*
G01*
G75*
G03X311711Y147618I101J-704*
G01*
G75*
G03X311556Y147502I214J-452*
G01*
X312035Y147227D02*
G75*
G03X311977Y147152I75J-118D01*
G01*
G75*
G03X311943Y147000I805J-260*
G01*
G75*
G03X311928Y146776I1757J-230*
G01*
G75*
G03X311935Y146454I7191J-12*
G01*
X311965Y145763*
X312940Y145734*
G75*
G03X313767Y145731I476J16259*
G01*
G75*
G03X314106Y145822I-16J730*
G01*
G75*
G03X314267Y146040I-159J286*
G01*
G75*
G03X314315Y146496I-2135J457*
G01*
G75*
G03X314306Y146726I-2999J-4*
G01*
G75*
G03X314280Y146938I-2274J-174*
G01*
G75*
G03X314242Y147112I-1913J-330*
G01*
G75*
G03X314195Y147193I-174J-46*
G01*
G75*
G03X313986Y147285I-224J-224*
G01*
G75*
G03X313142Y147311I-1298J-28021*
G01*
G75*
G03X312309Y147309I-373J-23146*
G01*
G75*
G03X312035Y147227I11J-531*
G01*
X313932Y146947D02*
G75*
G02X314074Y146741I-362J-400D01*
G01*
G75*
G02X314113Y146485I-564J-217*
G01*
G75*
G02X314042Y146240I-589J38*
G01*
G75*
G02X313876Y146060I-442J242*
G01*
G75*
G02X313722Y145988I-330J503*
G01*
G75*
G02X313525Y145945I-354J1152*
G01*
G75*
G02X313262Y145927I-280J2147*
G01*
G75*
G02X312901Y145933I-67J7472*
G01*
X312165Y145963*
X312133Y146409*
G75*
G02X312154Y146772I1414J101*
G01*
G75*
G02X312285Y146979I326J-61*
G01*
G75*
G02X312561Y147085I335J-459*
G01*
G75*
G02X313102Y147113I540J-5279*
G01*
G75*
G02X313412Y147103I-7J-5332*
G01*
G75*
G02X313641Y147074I-96J-1669*
G01*
G75*
G02X313811Y147023I-183J-919*
G01*
G75*
G02X313932Y146947I-156J-381*
G01*
X314043Y147421D02*
G75*
G02X314315Y147280I-479J-1256D01*
G01*
G75*
G02X314489Y147102I-339J-506*
G01*
G75*
G02X314583Y146862I-564J-361*
G01*
G75*
G02X314612Y146530I-1755J-319*
G01*
G75*
G02X314523Y146019I-1581J11*
G01*
G75*
G02X314273Y145712I-548J192*
G01*
G75*
G02X313791Y145554I-591J990*
G01*
G75*
G02X312906Y145513I-881J9289*
G01*
G75*
G03X312333Y145507I5J-30328*
G01*
G75*
G03X312118Y145478I18J-925*
G01*
G75*
G03X312000Y145403I58J-224*
G01*
G75*
G03X311912Y145254I391J-331*
G01*
G75*
G02X311865Y145159I-549J209*
G01*
G75*
G02X311806Y145084I-320J193*
G01*
G75*
G02X311744Y145041I-161J166*
G01*
G75*
G02X311689Y145038I-31J67*
G01*
G75*
G02X311631Y145102I29J85*
G01*
G75*
G02X311594Y145296I1576J394*
G01*
G75*
G02X311572Y145593I3134J391*
G01*
G75*
G02X311565Y146039I15096J436*
G01*
G75*
G02X311572Y146609I22907J1*
G01*
G75*
G02X311603Y146887I1629J-39*
G01*
G75*
G02X311674Y147074I606J-121*
G01*
G75*
G02X311807Y147255I840J-484*
G01*
G75*
G02X311977Y147399I740J-698*
G01*
G75*
G02X312146Y147473I283J-415*
G01*
G75*
G02X312398Y147505I285J-1241*
G01*
G75*
G02X312926Y147513I538J-19326*
G01*
G75*
G02X313279Y147506I-10J-9284*
G01*
G75*
G02X313616Y147485I-290J-7699*
G01*
G75*
G02X313899Y147456I-579J-7023*
G01*
G75*
G02X314043Y147421I-74J-613*
G01*
X315961Y148189D02*
G75*
G03X315941Y148089I282J-109D01*
G01*
G75*
G03X315933Y147697I32430J-913*
G01*
G75*
G03X315930Y147233I21123J-340*
G01*
G75*
G03X315937Y146707I34432J176*
G01*
X315965Y145363*
X316665*
Y148263*
X316339Y148294*
G75*
G03X316198Y148298I-108J-1105*
G01*
G75*
G03X316085Y148281I16J-476*
G01*
G75*
G03X316006Y148244I73J-262*
G01*
G75*
G03X315961Y148189I67J-98*
G01*
X316465Y146804D02*
G75*
G02X316460Y146187I-35527J9D01*
G01*
G75*
G02X316437Y145878I-2741J47*
G01*
G75*
G02X316393Y145714I-637J84*
G01*
G75*
G02X316315Y145663I-78J32*
G01*
G75*
G02X316237Y145712J86*
G01*
G75*
G02X316189Y145866I543J255*
G01*
G75*
G02X316157Y146154I2351J403*
G01*
G75*
G02X316137Y146706I26658J1285*
G01*
G75*
G02X316125Y147431I30466J842*
G01*
G75*
G02X316153Y147789I2228J8*
G01*
G75*
G02X316223Y147952I352J-56*
G01*
G75*
G02X316340Y147987I83J-65*
G01*
G75*
G02X316401Y147920I-29J-87*
G01*
G75*
G02X316437Y147694I-2168J-459*
G01*
G75*
G02X316459Y147346I-4229J-448*
G01*
G75*
G02X316465Y146804I-23333J-542*
G01*
X317760Y167617D02*
G75*
G03X317485Y167438I321J-794D01*
G01*
G75*
G03X317192Y167105I1939J-2004*
G01*
G75*
G03X316935Y166698I2495J-1863*
G01*
G75*
G03X316767Y166289I1979J-1050*
G01*
G75*
G03X316256Y163967I15582J-4646*
G01*
G75*
G03X315933Y160963I41298J-5958*
G01*
G75*
G03X315821Y157790I44498J-3162*
G01*
G75*
G03X315959Y154913I30260J7*
G01*
G75*
G03X316096Y153670I42055J4033*
G01*
G75*
G03X316245Y152745I13474J1695*
G01*
G75*
G03X316421Y152026I7993J1573*
G01*
G75*
G03X316642Y151435I4123J1205*
G01*
G75*
G03X316833Y151104I1938J895*
G01*
G75*
G03X317066Y150841I1259J882*
G01*
G75*
G03X317317Y150670I763J852*
G01*
G75*
G03X317561Y150613I244J487*
G01*
G75*
G02X317662Y150595J-296*
G01*
G75*
G02X317785Y150539I-297J-818*
G01*
G75*
G02X317909Y150458I-485J-877*
G01*
G75*
G02X318015Y150363I-522J-689*
G01*
G75*
G03X318163Y150233I741J693*
G01*
G75*
G03X318311Y150159I304J424*
G01*
G75*
G03X318506Y150122I249J798*
G01*
G75*
G03X318815Y150113I304J4685*
G01*
G75*
G03X319326Y150167J2432*
G01*
G75*
G03X319620Y150342I-111J520*
G01*
G75*
G03X319772Y150680I-507J432*
G01*
G75*
G03X319815Y151288I-4254J609*
G01*
G75*
G03X319808Y151565I-5305J-4*
G01*
G75*
G03X319786Y151809I-3219J-168*
G01*
G75*
G03X319755Y152005I-3293J-423*
G01*
G75*
G03X319715Y152063I-85J-16*
G01*
G75*
G02X319601Y152266I126J204*
G01*
G75*
G02X319610Y153432I50890J188*
G01*
G75*
G02X319654Y154552I28845J-554*
G01*
G75*
G02X319771Y154994I1136J-66*
G01*
G75*
G02X320117Y155465I1538J-768*
G01*
G75*
G02X320546Y155686I582J-604*
G01*
G75*
G02X321042Y155639I166J-893*
G01*
G75*
G02X321581Y155330I-763J-1959*
G01*
G75*
G03X322606Y154530I81718J103483*
G01*
G75*
G03X323506Y153843I46543J60161*
G01*
G75*
G03X324307Y153244I172811J230375*
G01*
G75*
G03X324404Y153213I96J130*
G01*
G75*
G02X324446Y153202I-1J-91*
G01*
G75*
G02X324501Y153169I-202J-398*
G01*
G75*
G02X324560Y153121I-319J-456*
G01*
G75*
G02X324613Y153065I-422J-449*
G01*
G75*
G03X324745Y152941I560J463*
G01*
G75*
G03X324944Y152813I1215J1677*
G01*
G75*
G03X325320Y152610I5613J9930*
G01*
G75*
G03X326433Y152037I241887J468609*
G01*
G75*
G03X326905Y151803I8817J17175*
G01*
G75*
G03X327357Y151595I6650J13874*
G01*
G75*
G03X327744Y151431I5891J13386*
G01*
G75*
G03X327940Y151374I386J946*
G01*
G75*
G03X328128Y151355I201J1078*
G01*
G75*
G03X328453Y151357I111J8470*
G01*
G75*
G03X328830Y151374I-250J9520*
G01*
G75*
G03X329211Y151407I-669J10183*
G01*
G75*
G03X329738Y151470I-1672J16119*
G01*
G75*
G03X330031Y151534I-257J1875*
G01*
G75*
G03X330237Y151627I-252J832*
G01*
G75*
G03X330430Y151776I-616J994*
G01*
G75*
G03X330559Y151920I-929J968*
G01*
G75*
G03X330648Y152063I-603J472*
G01*
G75*
G03X330698Y152213I-606J287*
G01*
G75*
G03X330715Y152378I-787J166*
G01*
G75*
G03X330659Y152661I-744*
G01*
G75*
G03X330501Y152828I-296J-122*
G01*
G75*
G03X330230Y152876I-222J-465*
G01*
G75*
G03X329828Y152800I218J-2257*
G01*
G75*
G02X329637Y152752I-857J3015*
G01*
G75*
G02X329443Y152717I-652J3020*
G01*
G75*
G02X329272Y152697I-400J2658*
G01*
G75*
G02X329165Y152700I-39J440*
G01*
G75*
G02X328848Y152795I197J1244*
G01*
G75*
G02X328257Y153074I6409J14342*
G01*
G75*
G02X327644Y153398I6229J12519*
G01*
G75*
G02X327165Y153696I3037J5411*
G01*
G75*
G02X326032Y154544I10113J14699*
G01*
G75*
G02X324842Y155569I16989J20935*
G01*
G75*
G02X323812Y156554I20836J22807*
G01*
G75*
G02X323451Y157089I1205J1203*
G01*
G75*
G02X323381Y157281I1735J740*
G01*
G75*
G02X323365Y157416I371J113*
G01*
G75*
G02X323395Y157552I417J-23*
G01*
G75*
G02X323488Y157750I2166J-895*
G01*
G75*
G02X323732Y158088I1322J-698*
G01*
G75*
G02X324482Y158851I32167J-30869*
G01*
G75*
G02X325287Y159641I66460J-66914*
G01*
G75*
G02X325465Y159713I178J-183*
G01*
G75*
G03X325511Y159726J83*
G01*
G75*
G03X325652Y159822I-3746J5679*
G01*
G75*
G03X325819Y159944I-2857J4089*
G01*
G75*
G03X326002Y160087I-4956J6502*
G01*
G75*
G02X326191Y160238I10356J-12837*
G01*
G75*
G02X326377Y160381I8960J-11426*
G01*
G75*
G02X326538Y160502I8043J-10618*
G01*
G75*
G02X326628Y160563I792J-1073*
G01*
G75*
G03X326734Y160639I-471J769*
G01*
G75*
G03X327059Y160912I-37254J44552*
G01*
G75*
G03X327442Y161241I-27996J32972*
G01*
G75*
G03X327866Y161613I-43737J50333*
G01*
G75*
G02X328289Y161981I24286J-27491*
G01*
G75*
G02X328672Y162302I15023J-17525*
G01*
G75*
G02X328999Y162567I20731J-25271*
G01*
G75*
G02X329103Y162627I254J-318*
G01*
G75*
G03X329298Y162749I-238J600*
G01*
G75*
G03X329549Y163002I-2281J2506*
G01*
G75*
G03X329800Y163315I-2867J2557*
G01*
G75*
G03X330006Y163641I-2666J1917*
G01*
G75*
G03X330163Y164054I-1369J758*
G01*
G75*
G03X330221Y164543I-2307J521*
G01*
G75*
G03X330179Y164987I-2050J28*
G01*
G75*
G03X330028Y165251I-480J-100*
G01*
G75*
G02X329948Y165351I261J288*
G01*
G75*
G02X329878Y165504I1010J559*
G01*
G75*
G02X329822Y165689I1363J516*
G01*
G75*
G02X329787Y165888I1709J396*
G01*
G75*
G03X329744Y166139I-2065J-231*
G01*
G75*
G03X329674Y166328I-812J-194*
G01*
G75*
G03X329559Y166496I-764J-395*
G01*
G75*
G03X329376Y166684I-1729J-1502*
G01*
G75*
G03X329147Y166872I-1822J-1985*
G01*
G75*
G03X328967Y166963I-362J-496*
G01*
G75*
G03X328743Y167002I-268J-858*
G01*
G75*
G03X328323Y167013I-424J-8800*
G01*
G75*
G03X328040Y167006I7J-5930*
G01*
G75*
G03X327764Y166985I254J-5393*
G01*
G75*
G03X327529Y166956I476J-4748*
G01*
G75*
G03X327397Y166920I88J-589*
G01*
G75*
G03X327107Y166744I377J-947*
G01*
G75*
G03X325803Y165608I169264J-195633*
G01*
G75*
G03X324199Y164181I98045J-111835*
G01*
G75*
G03X322186Y162351I254204J-281537*
G01*
G75*
G02X321531Y161761I-36897J40278*
G01*
G75*
G02X320957Y161264I-20111J22685*
G01*
G75*
G02X320457Y160847I-45751J54272*
G01*
G75*
G02X320361Y160813I-96J117*
G01*
G75*
G02X320293Y160844J90*
G01*
G75*
G02X320247Y160928I164J143*
G01*
G75*
G02X320222Y161083I705J192*
G01*
G75*
G02X320215Y161343I4922J257*
G01*
G75*
G02X320222Y161552I3304J6*
G01*
G75*
G02X320242Y161744I2371J-156*
G01*
G75*
G02X320271Y161901I2112J-306*
G01*
G75*
G02X320306Y161967I136J-30*
G01*
G75*
G03X320344Y162034I-114J109*
G01*
G75*
G03X320385Y162196I-2552J719*
G01*
G75*
G03X320420Y162395I-2799J596*
G01*
G75*
G03X320444Y162613I-3919J550*
G01*
G75*
G02X320470Y162876I8666J-735*
G01*
G75*
G02X320513Y163221I25190J-2927*
G01*
G75*
G02X320563Y163585I26815J-3471*
G01*
G75*
G02X320613Y163913I17730J-2539*
G01*
G75*
G03X320694Y164609I-7869J1274*
G01*
G75*
G03X320683Y165149I-2868J210*
G01*
G75*
G03X320580Y165574I-1763J-204*
G01*
G75*
G03X320381Y165912I-1093J-415*
G01*
G75*
G02X320273Y166061I959J809*
G01*
G75*
G02X320188Y166224I1066J657*
G01*
G75*
G02X320133Y166385I1006J431*
G01*
G75*
G02X320115Y166530I564J144*
G01*
G75*
G03X320063Y166813I-799J-1*
G01*
G75*
G03X319909Y167110I-1341J-507*
G01*
G75*
G03X319681Y167375I-1282J-871*
G01*
G75*
G03X319412Y167564I-827J-893*
G01*
G75*
G03X319103Y167661I-433J-835*
G01*
G75*
G03X318599Y167702I-666J-5073*
G01*
G75*
G03X318091Y167693I-164J-5077*
G01*
G75*
G03X317760Y167617I74J-1074*
G01*
X318251Y147613D02*
G75*
G03X318012Y147460I285J-706D01*
G01*
G75*
G03X317844Y147229I534J-563*
G01*
G75*
G03X317746Y146907I1035J-491*
G01*
G75*
G03X317715Y146482I2852J-422*
G01*
G75*
G03X317726Y146148I5202J-2*
G01*
G75*
G03X317765Y145947I796J50*
G01*
G75*
G03X317849Y145787I533J178*
G01*
G75*
G03X318007Y145605I1375J1034*
G01*
G75*
G03X318198Y145441I1193J1193*
G01*
G75*
G03X318365Y145358I317J428*
G01*
G75*
G03X318586Y145321I262J895*
G01*
G75*
G03X319007Y145313I412J9806*
G01*
X319715*
Y145613*
G75*
G03X319703Y145789I-1326J-3*
G01*
G75*
G03X319658Y145868I-119J-16*
G01*
G75*
G03X319562Y145904I-107J-140*
G01*
G75*
G03X319328Y145913I-239J-3463*
G01*
G75*
G02X319166Y145923I-1J1227*
G01*
G75*
G02X319015Y145955I133J1005*
G01*
G75*
G02X318891Y146003I222J755*
G01*
G75*
G02X318815Y146063I100J205*
G01*
G75*
G02X318820Y146138I42J35*
G01*
G75*
G02X318926Y146187I131J-146*
G01*
G75*
G02X319225Y146208I327J-2482*
G01*
G75*
G02X319953Y146213I741J-63288*
G01*
X321215*
Y146755*
G75*
G03X321205Y147059I-4631J-4*
G01*
G75*
G03X321169Y147239I-674J-44*
G01*
G75*
G03X321091Y147372I-391J-137*
G01*
G75*
G03X320952Y147505I-761J-656*
G01*
G75*
G03X320763Y147616I-497J-632*
G01*
G75*
G03X320544Y147676I-351J-846*
G01*
G75*
G03X320213Y147703I-372J-2543*
G01*
G75*
G03X319577Y147706I-464J-29460*
G01*
G75*
G03X319135Y147697I86J-15632*
G01*
G75*
G03X318729Y147676I377J-11326*
G01*
G75*
G03X318390Y147648I815J-11616*
G01*
G75*
G03X318251Y147613I50J-504*
G01*
X318431Y147224D02*
G75*
G03X318383Y147175I80J-128D01*
G01*
G75*
G03X318347Y147094I313J-188*
G01*
G75*
G03X318328Y146999I424J-131*
G01*
G75*
G03X318331Y146901I443J-35*
G01*
G75*
G03X318392Y146764I274J39*
G01*
G75*
G03X318509Y146693I158J130*
G01*
G75*
G03X318761Y146667I266J1324*
G01*
G75*
G03X319514Y146663I752J65246*
G01*
G75*
G03X320206Y146667I15J48394*
G01*
G75*
G03X320490Y146693I-29J1938*
G01*
G75*
G03X320631Y146750I-55J337*
G01*
G75*
G03X320700Y146856I-97J137*
G01*
G75*
G03X320657Y147067I-278J54*
G01*
G75*
G03X320475Y147211I-312J-208*
G01*
G75*
G03X320104Y147290I-460J-1241*
G01*
G75*
G03X319471Y147311I-620J-9211*
G01*
G75*
G03X319114Y147304I27J-10324*
G01*
G75*
G03X318792Y147285I245J-6924*
G01*
G75*
G03X318526Y147258I637J-7573*
G01*
G75*
G03X318431Y147224I27J-224*
G01*
X320157Y147052D02*
G75*
G02X320275Y146959I-89J-234D01*
G01*
G75*
G02X320248Y146878I-44J-30*
G01*
G75*
G02X319978Y146826I-320J927*
G01*
G75*
G02X319465Y146813I-510J9994*
G01*
G75*
G02X318969Y146826I-4J9096*
G01*
G75*
G02X318689Y146878I61J1108*
G01*
G75*
G02X318651Y146957I18J57*
G01*
G75*
G02X318740Y147046I149J-59*
G01*
G75*
G02X318951Y147092I238J-589*
G01*
G75*
G02X319446Y147103I548J-13046*
G01*
G75*
G02X319941Y147096I53J-12867*
G01*
G75*
G02X320157Y147052I-24J-666*
G01*
X320713Y147249D02*
G75*
G02X320859Y147111I-1103J-1312D01*
G01*
G75*
G02X320949Y146986I-432J-406*
G01*
G75*
G02X320992Y146861I-360J-194*
G01*
G75*
G02X320996Y146724I-475J-82*
G01*
X320965Y146463*
X319666Y146413*
G75*
G03X318892Y146378I2286J-59069*
G01*
G75*
G03X318567Y146340I131J-2541*
G01*
G75*
G03X318404Y146277I83J-459*
G01*
G75*
G03X318330Y146169I86J-139*
G01*
G75*
G03X318357Y145990I270J-51*
G01*
G75*
G03X318492Y145842I350J183*
G01*
G75*
G03X318727Y145744I379J584*
G01*
G75*
G03X319034Y145713I306J1456*
G01*
G75*
G02X319180Y145705I-2J-1475*
G01*
G75*
G02X319303Y145683I-78J-789*
G01*
G75*
G02X319391Y145651I-126J-481*
G01*
G75*
G02X319390Y145574I-18J-39*
G01*
G75*
G02X319295Y145542I-235J543*
G01*
G75*
G02X319162Y145520I-216J889*
G01*
G75*
G02X319005Y145513I-156J1702*
G01*
G75*
G02X318618Y145594I0J964*
G01*
G75*
G02X318259Y145828I526J1198*
G01*
G75*
G02X318004Y146157I835J910*
G01*
G75*
G02X317915Y146513I668J355*
G01*
G75*
G02X317935Y146680I717J0*
G01*
G75*
G02X317993Y146837I680J-163*
G01*
G75*
G02X318097Y146996I836J-431*
G01*
G75*
G02X318255Y147172I1723J-1387*
G01*
G75*
G02X318487Y147378I1815J-1815*
G01*
G75*
G02X318668Y147469I316J-404*
G01*
G75*
G02X318915Y147505I274J-999*
G01*
G75*
G02X319498Y147513I584J-22799*
G01*
G75*
G02X320036Y147505I-1J-18514*
G01*
G75*
G02X320308Y147471I-45J-1489*
G01*
G75*
G02X320504Y147396I-143J-661*
G01*
G75*
G02X320713Y147249I-733J-1266*
G01*
X322990Y146606D02*
G75*
G03X322861Y146446I151J-254D01*
G01*
G75*
G03X322813Y146171I871J-294*
G01*
G75*
G03X322850Y145905I849J-17*
G01*
G75*
G03X322973Y145773I197J61*
G01*
G75*
G03X323081Y145749I135J350*
G01*
G75*
G03X323387Y145730I1052J14573*
G01*
G75*
G03X323755Y145717I642J12571*
G01*
G75*
G03X324161Y145713I402J18617*
G01*
G75*
G03X324910Y145731J15503*
G01*
G75*
G03X325232Y145815I-39J806*
G01*
G75*
G03X325375Y145996I-121J242*
G01*
G75*
G03X325397Y146331I-1015J235*
G01*
X325365Y146663*
X324265Y146686*
G75*
G03X323822Y146688I-279J-12929*
G01*
G75*
G03X323430Y146673I104J-7857*
G01*
G75*
G03X323113Y146647I481J-7697*
G01*
G75*
G03X322990Y146606I31J-302*
G01*
X323998Y147448D02*
G75*
G02X323958Y147281I-715J81D01*
G01*
G75*
G02X323883Y147196I-147J54*
G01*
G75*
G02X323734Y147150I-199J383*
G01*
G75*
G02X323350Y147113I-1293J11270*
G01*
G75*
G03X322832Y147031I289J-3545*
G01*
G75*
G03X322529Y146876I159J-683*
G01*
G75*
G03X322368Y146615I344J-393*
G01*
G75*
G03X322315Y146204I1573J-409*
G01*
G75*
G03X322326Y145944I3025J-2*
G01*
G75*
G03X322365Y145778I607J53*
G01*
G75*
G03X322443Y145649I403J154*
G01*
G75*
G03X322579Y145520I761J666*
G01*
G75*
G03X322776Y145407I474J602*
G01*
G75*
G03X323015Y145346I372J965*
G01*
G75*
G03X323391Y145319I430J3283*
G01*
G75*
G03X324160Y145313I769J46886*
G01*
G75*
G03X325261Y145339I5J22430*
G01*
G75*
G03X325672Y145477I-39J804*
G01*
G75*
G03X325865Y145785I-252J371*
G01*
G75*
G03X325915Y146501I-5060J716*
G01*
G75*
G03X325876Y147146I-5317*
G01*
G75*
G03X325726Y147461I-546J-67*
G01*
G75*
G03X325416Y147625I-404J-389*
G01*
G75*
G03X324764Y147696I-935J-5503*
G01*
X324030Y147733*
X323998Y147448*
X325155Y146429D02*
G75*
G02X325165Y146382I-60J-37D01*
G01*
G75*
G02X325147Y146306I-426J59*
G01*
G75*
G02X325109Y146218I-561J188*
G01*
G75*
G02X325056Y146129I-723J378*
G01*
G75*
G02X324942Y146014I-394J276*
G01*
G75*
G02X324802Y145950I-235J327*
G01*
G75*
G02X324584Y145920I-257J1052*
G01*
G75*
G02X324168Y145913I-409J11775*
G01*
G75*
G02X323874Y145917I-4J9706*
G01*
G75*
G02X323601Y145930I220J7283*
G01*
G75*
G02X323374Y145949I481J7169*
G01*
G75*
G02X323273Y145973I39J386*
G01*
G75*
G02X323155Y146061I98J255*
G01*
G75*
G02X323123Y146185I128J99*
G01*
G75*
G02X323190Y146313I220J-33*
G01*
G75*
G02X323340Y146409I330J-349*
G01*
G75*
G02X323660Y146481I378J-943*
G01*
G75*
G02X324329Y146504I826J-14143*
G01*
G75*
G02X325026Y146502I288J-26763*
G01*
G75*
G02X325155Y146429I-2J-155*
G01*
X325471Y147207D02*
G75*
G02X325665Y146903I-504J-536D01*
G01*
G75*
G02X325732Y146491I-1233J-412*
G01*
G75*
G02X325665Y146074I-1327J2*
G01*
G75*
G02X325470Y145758I-765J254*
G01*
G75*
G02X325292Y145620I-636J636*
G01*
G75*
G02X325104Y145549I-296J500*
G01*
G75*
G02X324815Y145519I-326J1711*
G01*
G75*
G02X324178Y145513I-627J31210*
G01*
G75*
G02X323539Y145519I-13J29203*
G01*
G75*
G02X323241Y145551I39J1799*
G01*
G75*
G02X323035Y145625I131J680*
G01*
G75*
G02X322823Y145771I644J1165*
G01*
G75*
G02X322705Y145884I831J987*
G01*
G75*
G02X322606Y146007I858J793*
G01*
G75*
G02X322536Y146125I774J539*
G01*
G75*
G02X322515Y146213I176J87*
G01*
G75*
G02X322536Y146300I195J0*
G01*
G75*
G02X322606Y146417I844J-422*
G01*
G75*
G02X322705Y146541I958J-670*
G01*
G75*
G02X322823Y146654I949J-874*
G01*
G75*
G02X323037Y146800I847J-1005*
G01*
G75*
G02X323245Y146874I335J-611*
G01*
G75*
G02X323550Y146906I343J-1850*
G01*
G75*
G02X324217Y146913I681J-32739*
G01*
G75*
G03X324683Y146919I7J15731*
G01*
G75*
G03X325037Y146942I-161J5341*
G01*
G75*
G03X325298Y146974I-433J4522*
G01*
G75*
G03X325372Y147024I-16J106*
G01*
G75*
G03X325376Y147133I-94J58*
G01*
G75*
G03X325281Y147227I-192J-100*
G01*
G75*
G03X325078Y147290I-298J-596*
G01*
G75*
G03X324796Y147311I-291J-2022*
G01*
G75*
G02X324650Y147320I6J1281*
G01*
G75*
G02X324515Y147346I116J980*
G01*
G75*
G02X324407Y147383I193J733*
G01*
G75*
G02X324356Y147427I45J104*
G01*
G75*
G02X324410Y147525I55J34*
G01*
G75*
G02X324764Y147493I19J-1724*
G01*
G75*
G02X325201Y147372I-593J-3004*
G01*
G75*
G02X325471Y147207I-262J-732*
G01*
X327120Y147468D02*
G75*
G03X327006Y147327I879J-827D01*
G01*
G75*
G03X326948Y147202I337J-232*
G01*
G75*
G03X326934Y147061I424J-115*
G01*
G75*
G03X326957Y146868I1521J88*
G01*
G75*
G03X327092Y146555I766J143*
G01*
G75*
G03X327341Y146353I502J364*
G01*
G75*
G03X327754Y146244I536J1195*
G01*
G75*
G03X328419Y146213I663J7049*
G01*
G75*
G02X328814Y146207I-6J-13604*
G01*
G75*
G02X329043Y146185I-53J-1754*
G01*
G75*
G02X329165Y146147I-70J-442*
G01*
G75*
G02X329191Y146087I-21J-44*
G01*
G75*
G02X329125Y146027I-87J29*
G01*
G75*
G02X328904Y145985I-531J2202*
G01*
G75*
G02X328574Y145954I-541J3927*
G01*
G75*
G02X328082Y145934I-987J18154*
G01*
X327015Y145906*
Y145313*
X328343*
G75*
G03X329381Y145333I4J25626*
G01*
G75*
G03X329828Y145432I-52J1294*
G01*
G75*
G03X330041Y145651I-150J359*
G01*
G75*
G03X330115Y146053I-1042J402*
G01*
G75*
G03X330063Y146444I-1491J0*
G01*
G75*
G03X329902Y146669I-383J-104*
G01*
G75*
G03X329588Y146782I-383J-567*
G01*
G75*
G03X328991Y146813I-600J-5922*
G01*
G75*
G02X328688Y146817I-4J10295*
G01*
G75*
G02X328408Y146830I225J7646*
G01*
G75*
G02X328174Y146849I498J7622*
G01*
G75*
G02X328073Y146873I38J383*
G01*
G75*
G02X327936Y146957I158J412*
G01*
G75*
G02X327938Y147037I35J39*
G01*
G75*
G02X328081Y147097I173J-211*
G01*
G75*
G02X328365Y147113I285J-2564*
G01*
G75*
G03X328647Y147119I3J5796*
G01*
G75*
G03X328753Y147154I-10J209*
G01*
G75*
G03X328802Y147232I-63J94*
G01*
G75*
G03X328815Y147413I-1237J183*
G01*
Y147713*
X328083*
G75*
G03X327662Y147704I0J-10730*
G01*
G75*
G03X327435Y147671I44J-1097*
G01*
G75*
G03X327275Y147600I126J-493*
G01*
G75*
G03X327120Y147468I510J-757*
G01*
X328515Y147418D02*
G75*
G02X328489Y147379I-42D01*
G01*
G75*
G02X328376Y147342I-367J928*
G01*
G75*
G02X328223Y147311I-335J1271*
G01*
G75*
G02X328041Y147293I-339J2425*
G01*
G75*
G03X327797Y147269I234J-3621*
G01*
G75*
G03X327656Y147230I68J-520*
G01*
G75*
G03X327574Y147165I85J-193*
G01*
G75*
G03X327530Y147069I179J-138*
G01*
G75*
G03X327570Y146863I278J-53*
G01*
G75*
G03X327744Y146719I315J202*
G01*
G75*
G03X328090Y146636I443J1089*
G01*
G75*
G03X328653Y146613I562J6787*
G01*
G75*
G02X329098Y146604I-6J-12293*
G01*
G75*
G02X329350Y146573I-54J-1484*
G01*
G75*
G02X329526Y146509I-135J-637*
G01*
G75*
G02X329684Y146395I-360J-666*
G01*
G75*
G02X329855Y146202I-956J-1017*
G01*
G75*
G02X329901Y146048I-195J-143*
G01*
G75*
G02X329841Y145898I-243J12*
G01*
G75*
G02X329652Y145720I-1072J944*
G01*
G75*
G02X329466Y145610I-502J639*
G01*
G75*
G02X329253Y145549I-359J844*
G01*
G75*
G02X328935Y145520I-377J2365*
G01*
G75*
G02X328352Y145513I-577J23454*
G01*
G75*
G02X327928Y145519I-8J13751*
G01*
G75*
G02X327599Y145540I155J5035*
G01*
G75*
G02X327352Y145570I510J5243*
G01*
G75*
G02X327352Y145655I6J43*
G01*
G75*
G02X327597Y145685I758J-5118*
G01*
G75*
G02X327922Y145707I485J-4919*
G01*
G75*
G02X328340Y145714I435J-13339*
G01*
G75*
G03X328743Y145721I-30J13146*
G01*
G75*
G03X329104Y145740I-267J8556*
G01*
G75*
G03X329402Y145767I-750J10048*
G01*
G75*
G03X329499Y145800I-24J222*
G01*
G75*
G03X329548Y145850I-80J128*
G01*
G75*
G03X329583Y145930I-313J188*
G01*
G75*
G03X329602Y146026I-424J131*
G01*
G75*
G03X329599Y146124I-443J35*
G01*
G75*
G03X329545Y146259I-308J-43*
G01*
G75*
G03X329441Y146335I-163J-115*
G01*
G75*
G03X329226Y146376I-287J-934*
G01*
G75*
G03X328660Y146413I-2234J-30134*
G01*
G75*
G02X328233Y146445I546J9952*
G01*
G75*
G02X327906Y146493I349J3534*
G01*
G75*
G02X327659Y146556I401J2074*
G01*
G75*
G02X327485Y146640I220J685*
G01*
G75*
G02X327293Y146793I726J1105*
G01*
G75*
G02X327230Y146927I146J152*
G01*
G75*
G02X327269Y147076I231J19*
G01*
G75*
G02X327433Y147281I1370J-926*
G01*
G75*
G02X327560Y147391I585J-552*
G01*
G75*
G02X327697Y147461I334J-479*
G01*
G75*
G02X327865Y147500I251J-707*
G01*
G75*
G02X328083Y147513I221J-1928*
G01*
G75*
G02X328248Y147506I-3J-2015*
G01*
G75*
G02X328388Y147485I-87J-1061*
G01*
G75*
G02X328490Y147455I-156J-719*
G01*
G75*
G02X328515Y147418I-14J-37*
G01*
X331215Y146728D02*
G75*
G03X331256Y145861I9276J-1D01*
G01*
G75*
G03X331436Y145533I467J44*
G01*
G75*
G03X331829Y145389I425J550*
G01*
G75*
G03X332985Y145363I1153J25185*
G01*
G75*
G03X334098Y145392I3J21196*
G01*
G75*
G03X334493Y145544I-35J679*
G01*
G75*
G03X334674Y145885I-315J387*
G01*
G75*
G03X334715Y146774I-9636J889*
G01*
Y147713*
X334015*
Y146968*
G75*
G02X333977Y146385I-4429J0*
G01*
G75*
G02X333834Y146095I-502J67*
G01*
G75*
G02X333544Y145951I-356J355*
G01*
G75*
G02X332965Y145913I-577J4300*
G01*
G75*
G02X332386Y145951I-2J4342*
G01*
G75*
G02X332096Y146095I67J498*
G01*
G75*
G02X331954Y146385I359J357*
G01*
G75*
G02X331915Y146968I4391J580*
G01*
Y147713*
X331215*
Y146728*
X331715Y146666D02*
G75*
G03X331750Y146089I4816J0D01*
G01*
G75*
G03X331889Y145845I358J43*
G01*
G75*
G03X332187Y145735I329J431*
G01*
G75*
G03X332965Y145713I777J13444*
G01*
G75*
G03X333744Y145735I2J13460*
G01*
G75*
G03X334041Y145845I-31J541*
G01*
G75*
G03X334180Y146089I-219J287*
G01*
G75*
G03X334215Y146666I-4781J580*
G01*
G75*
G02X334221Y147054I12596J2*
G01*
G75*
G02X334245Y147263I1257J-39*
G01*
G75*
G02X334291Y147373I298J-59*
G01*
G75*
G02X334365Y147413I74J-50*
G01*
G75*
G02X334437Y147378I0J-94*
G01*
G75*
G02X334484Y147286I-178J-148*
G01*
G75*
G02X334509Y147113I-846J-209*
G01*
G75*
G02X334515Y146806I-7361J-314*
G01*
G75*
G02X334439Y146144I-2911J1*
G01*
G75*
G02X334197Y145763I-665J155*
G01*
G75*
G02X333730Y145567I-588J744*
G01*
G75*
G02X332878Y145513I-850J6618*
G01*
G75*
G02X332380Y145520I-11J15049*
G01*
G75*
G02X332117Y145554I46J1416*
G01*
G75*
G02X331926Y145629I149J663*
G01*
G75*
G02X331723Y145771I707J1224*
G01*
G75*
G02X331546Y145944I1070J1270*
G01*
G75*
G02X331461Y146094I319J282*
G01*
G75*
G02X331424Y146300I733J238*
G01*
G75*
G02X331415Y146721I10287J413*
G01*
G75*
G02X331421Y147078I10349J7*
G01*
G75*
G02X331446Y147272I1094J-39*
G01*
G75*
G02X331492Y147375I268J-57*
G01*
G75*
G02X331565Y147413I74J-54*
G01*
G75*
G02X331639Y147373I0J-89*
G01*
G75*
G02X331685Y147263I-252J-169*
G01*
G75*
G02X331709Y147054I-1233J-248*
G01*
G75*
G02X331715Y146666I-12590J-398*
G01*
X336033Y147481D02*
G75*
G03X335916Y147315I528J-495D01*
G01*
G75*
G03X335852Y147126I609J-312*
G01*
G75*
G03X335822Y146838I1850J-335*
G01*
G75*
G03X335815Y146281I21918J-542*
G01*
Y145313*
X336515*
Y146109*
G75*
G02X336538Y146675I6993J2*
G01*
G75*
G02X336633Y146942I545J-44*
G01*
G75*
G02X336830Y147073I263J-182*
G01*
G75*
G02X337209Y147113I379J-1785*
G01*
G75*
G03X337382Y147122I2J1491*
G01*
G75*
G03X337465Y147162I-17J140*
G01*
G75*
G03X337505Y147243I-96J98*
G01*
G75*
G03X337515Y147413I-1368J171*
G01*
Y147713*
X336883*
G75*
G03X336535Y147703I5J-6576*
G01*
G75*
G03X336327Y147670I52J-993*
G01*
G75*
G03X336175Y147601I138J-507*
G01*
G75*
G03X336033Y147481I443J-670*
G01*
X337215Y147413D02*
G75*
G02X337194Y147374I-46J0D01*
G01*
G75*
G02X337130Y147342I-157J234*
G01*
G75*
G02X337035Y147320I-157J460*
G01*
G75*
G02X336923Y147313I-110J855*
G01*
G75*
G03X336567Y147283I1J-2202*
G01*
G75*
G03X336405Y147178I40J-240*
G01*
G75*
G03X336331Y146957I369J-246*
G01*
G75*
G03X336315Y146402I9989J-554*
G01*
G75*
G02X336309Y145989I-14492J1*
G01*
G75*
G02X336285Y145769I-1388J41*
G01*
G75*
G02X336240Y145654I-325J62*
G01*
G75*
G02X336165Y145613I-74J47*
G01*
G75*
G02X336091Y145650I0J91*
G01*
G75*
G02X336046Y145755I228J162*
G01*
G75*
G02X336021Y145953I1111J237*
G01*
G75*
G02X336015Y146317I10857J358*
G01*
G75*
G02X336024Y146717I9148J2*
G01*
G75*
G02X336057Y146942I1090J-47*
G01*
G75*
G02X336130Y147106I534J-138*
G01*
G75*
G02X336261Y147267I840J-548*
G01*
G75*
G02X336497Y147422I493J-493*
G01*
G75*
G02X336831Y147513I567J-1430*
G01*
G75*
G02X337121Y147518I164J-1080*
G01*
G75*
G02X337215Y147413I-12J-106*
G01*
X338865Y147597D02*
G75*
G03X338780Y147544I433J-796D01*
G01*
G75*
G03X338687Y147474I900J-1284*
G01*
G75*
G03X338602Y147399I960J-1172*
G01*
G75*
G03X338540Y147331I466J-488*
G01*
G75*
G03X338456Y147124I309J-246*
G01*
G75*
G03X338419Y146596I8720J-877*
G01*
G75*
G03X338417Y146067I7293J-298*
G01*
G75*
G03X338477Y145767I919J30*
G01*
G75*
G03X338624Y145578I385J148*
G01*
G75*
G03X338902Y145434I659J930*
G01*
G75*
G03X339287Y145343I620J1750*
G01*
G75*
G03X339760Y145313I472J3715*
G01*
X340415*
Y145613*
G75*
G03X340404Y145786I-1365J-3*
G01*
G75*
G03X340362Y145865I-126J-16*
G01*
G75*
G03X340273Y145904I-103J-117*
G01*
G75*
G03X340073Y145913I-200J-2211*
G01*
G75*
G02X339804Y145926I-2J2607*
G01*
G75*
G02X339595Y145970I107J1030*
G01*
G75*
G02X339460Y146037I154J481*
G01*
G75*
G02X339415Y146123I61J86*
G01*
G75*
G02X339448Y146159I36*
G01*
G75*
G02X339782Y146186I1557J-17085*
G01*
G75*
G02X340186Y146206I644J-9052*
G01*
G75*
G02X340665Y146213I490J-17894*
G01*
X341915*
Y146717*
G75*
G03X341904Y146983I-3109J-4*
G01*
G75*
G03X341866Y147169I-822J-70*
G01*
G75*
G03X341792Y147319I-565J-184*
G01*
G75*
G03X341670Y147467I-848J-579*
G01*
G75*
G03X341487Y147606I-610J-610*
G01*
G75*
G03X341290Y147677I-298J-522*
G01*
G75*
G03X340978Y147705I-339J-2002*
G01*
G75*
G03X340245Y147709I-632J-44894*
G01*
G75*
G03X339774Y147700I36J-14162*
G01*
G75*
G03X339350Y147676I334J-9344*
G01*
G75*
G03X339002Y147641I773J-9422*
G01*
G75*
G03X338865Y147597I45J-374*
G01*
X339019Y147167D02*
G75*
G03X338976Y147098I246J-204D01*
G01*
G75*
G03X338944Y147012I469J-220*
G01*
G75*
G03X338929Y146922I494J-131*
G01*
G75*
G03X338933Y146842I296J-22*
G01*
G75*
G03X339003Y146745I140J27*
G01*
G75*
G03X339159Y146692I221J389*
G01*
G75*
G03X339464Y146667I340J2326*
G01*
G75*
G03X340165Y146663I678J48517*
G01*
G75*
G03X340889Y146667I11J53707*
G01*
G75*
G03X341183Y146692I-27J2084*
G01*
G75*
G03X341330Y146750I-56J356*
G01*
G75*
G03X341400Y146856I-93J137*
G01*
G75*
G03X341356Y147069I-278J53*
G01*
G75*
G03X341168Y147213I-315J-214*
G01*
G75*
G03X340782Y147291I-473J-1340*
G01*
G75*
G03X340108Y147313I-680J-10870*
G01*
G75*
G03X339632Y147306I2J-16181*
G01*
G75*
G03X339326Y147281I87J-2981*
G01*
G75*
G03X339126Y147237I173J-1283*
G01*
G75*
G03X339019Y147167I63J-211*
G01*
X340857Y147052D02*
G75*
G02X340975Y146959I-89J-234D01*
G01*
G75*
G02X340948Y146878I-44J-30*
G01*
G75*
G02X340678Y146826I-320J927*
G01*
G75*
G02X340165Y146813I-510J9994*
G01*
G75*
G02X339658Y146822I-6J13865*
G01*
G75*
G02X339414Y146862I36J981*
G01*
G75*
G02X339347Y146939I28J91*
G01*
G75*
G02X339382Y147046I123J19*
G01*
G75*
G02X339510Y147101I134J-134*
G01*
G75*
G02X340070Y147111I643J-21537*
G01*
G75*
G02X340613Y147102I52J-13092*
G01*
G75*
G02X340857Y147052I-28J-761*
G01*
X341430Y147213D02*
G75*
G02X341556Y147070I-1115J-1113D01*
G01*
G75*
G02X341644Y146933I-665J-521*
G01*
G75*
G02X341692Y146804I-524J-267*
G01*
G75*
G02X341697Y146688I-300J-72*
G01*
G75*
G02X341630Y146559I-217J31*
G01*
G75*
G02X341491Y146487I-198J211*
G01*
G75*
G02X341195Y146449I-392J1889*
G01*
G75*
G02X340366Y146413I-3693J74994*
G01*
G75*
G03X339592Y146378I2286J-59069*
G01*
G75*
G03X339267Y146340I131J-2541*
G01*
G75*
G03X339104Y146277I83J-459*
G01*
G75*
G03X339030Y146169I86J-139*
G01*
G75*
G03X339057Y145990I270J-51*
G01*
G75*
G03X339192Y145842I350J183*
G01*
G75*
G03X339427Y145744I379J584*
G01*
G75*
G03X339734Y145713I306J1456*
G01*
G75*
G02X339883Y145704I-3J-1402*
G01*
G75*
G02X340006Y145680I-73J-684*
G01*
G75*
G02X340090Y145644I-109J-374*
G01*
G75*
G02X340084Y145553I-25J-44*
G01*
G75*
G02X339986Y145528I-143J346*
G01*
G75*
G02X339827Y145521I-121J983*
G01*
G75*
G02X339596Y145537I178J4204*
G01*
G75*
G02X339165Y145634I167J1756*
G01*
G75*
G02X338858Y145830I282J779*
G01*
G75*
G02X338678Y146128I531J526*
G01*
G75*
G02X338615Y146526I1241J398*
G01*
G75*
G02X338630Y146737I1499J0*
G01*
G75*
G02X338676Y146905I672J-95*
G01*
G75*
G02X338764Y147056I640J-269*
G01*
G75*
G02X338907Y147220I1292J-986*
G01*
G75*
G02X339110Y147391I1094J-1094*
G01*
G75*
G02X339292Y147472I301J-426*
G01*
G75*
G02X339556Y147506I292J-1259*
G01*
G75*
G02X340165Y147513I618J-26935*
G01*
G75*
G02X340778Y147506I-8J-27207*
G01*
G75*
G02X341041Y147472I-28J-1261*
G01*
G75*
G02X341223Y147389I-119J-503*
G01*
G75*
G02X341430Y147213I-973J-1355*
G01*
X345616Y147428D02*
G75*
G03X345454Y147244I1321J-1324D01*
G01*
G75*
G03X345367Y147084I459J-351*
G01*
G75*
G03X345327Y146889I709J-249*
G01*
G75*
G03X345315Y146575I4296J-313*
G01*
G75*
G03X345341Y146132I3754J-2*
G01*
G75*
G03X345425Y145807I1256J149*
G01*
G75*
G03X345570Y145577I711J288*
G01*
G75*
G03X345781Y145424I481J440*
G01*
G75*
G03X345933Y145380I220J481*
G01*
G75*
G03X346261Y145345I1007J7883*
G01*
G75*
G03X346655Y145320I717J8379*
G01*
G75*
G03X347075Y145313I413J10846*
G01*
G75*
G03X348071Y145354I3J11953*
G01*
G75*
G03X348526Y145528I-73J874*
G01*
G75*
G03X348749Y145892I-351J465*
G01*
G75*
G03X348814Y146626I-4233J744*
G01*
G75*
G03X348804Y146902I-3627J9*
G01*
G75*
G03X348771Y147115I-1351J-99*
G01*
G75*
G03X348713Y147284I-870J-207*
G01*
G75*
G03X348624Y147426I-617J-285*
G01*
G75*
G03X348469Y147560I-446J-361*
G01*
G75*
G03X348276Y147632I-303J-514*
G01*
G75*
G03X347948Y147669I-423J-2281*
G01*
G75*
G03X347175Y147696I-2158J-51897*
G01*
X345916Y147729*
X345616Y147428*
X346040Y147246D02*
G75*
G03X345919Y147080I72J-180D01*
G01*
G75*
G03X345906Y146509I6259J-432*
G01*
G75*
G03X345945Y145939I6246J141*
G01*
G75*
G03X346073Y145773I200J23*
G01*
G75*
G03X346376Y145714I320J834*
G01*
G75*
G03X347068Y145715I326J16979*
G01*
G75*
G03X347764Y145743I-428J19056*
G01*
G75*
G03X348022Y145816I-36J622*
G01*
G75*
G03X348120Y145900I-143J267*
G01*
G75*
G03X348178Y146020I-274J207*
G01*
G75*
G03X348207Y146213I-891J233*
G01*
G75*
G03X348215Y146555I-7743J349*
G01*
G75*
G03X348208Y146874I-7014J-5*
G01*
G75*
G03X348181Y147069I-1106J-50*
G01*
G75*
G03X348133Y147188I-389J-88*
G01*
G75*
G03X348057Y147252I-131J-80*
G01*
G75*
G03X347818Y147298I-251J-652*
G01*
G75*
G03X347046Y147303I-656J-40691*
G01*
G75*
G03X346273Y147294I102J-41680*
G01*
G75*
G03X346040Y147246I15J-659*
G01*
X346115Y166959D02*
G75*
G03X343643Y166554I4221J-33579D01*
G01*
G75*
G03X341624Y166012I3264J-16182*
G01*
G75*
G03X340141Y165386I3481J-10312*
G01*
G75*
G03X339465Y164713I713J-1392*
G01*
G75*
G03X339407Y164572I759J-394*
G01*
G75*
G03X339359Y164385I2055J-629*
G01*
G75*
G03X339326Y164187I2239J-479*
G01*
G75*
G03X339315Y164006I1484J-178*
G01*
G75*
G03X339331Y163772I1706J-3*
G01*
G75*
G03X339383Y163604I552J77*
G01*
G75*
G03X339488Y163449I598J292*
G01*
G75*
G03X339683Y163252I2231J2022*
G01*
G75*
G03X339849Y163118I1170J1277*
G01*
G75*
G03X340041Y162995I1326J1863*
G01*
G75*
G03X340230Y162900I1024J1795*
G01*
G75*
G03X340383Y162852I282J636*
G01*
G75*
G02X340538Y162803I-125J-663*
G01*
G75*
G02X340735Y162702I-926J-2036*
G01*
G75*
G02X340938Y162570I-1263J-2170*
G01*
G75*
G02X341116Y162426I-1179J-1645*
G01*
X341518Y162063*
X341325Y160513*
G75*
G03X341100Y158554I109562J-13614*
G01*
G75*
G03X340980Y157119I32196J-3415*
G01*
G75*
G03X340931Y155779I26774J-1646*
G01*
G75*
G03X340936Y154163I56475J-630*
G01*
G75*
G03X340963Y152959I111812J1920*
G01*
G75*
G03X341000Y152251I14847J414*
G01*
G75*
G03X341052Y151792I5973J454*
G01*
G75*
G03X341137Y151510I1052J162*
G01*
G75*
G03X341308Y151205I1994J917*
G01*
G75*
G03X341502Y150986I900J603*
G01*
G75*
G03X341735Y150839I611J710*
G01*
G75*
G03X342022Y150750I530J1202*
G01*
G75*
G02X342168Y150714I-233J-1250*
G01*
G75*
G02X342323Y150657I-552J-1750*
G01*
G75*
G02X342464Y150591I-654J-1572*
G01*
G75*
G02X342565Y150524I-293J-555*
G01*
G75*
G03X343018Y150223I1851J2291*
G01*
G75*
G03X343404Y150114I435J806*
G01*
G75*
G03X343754Y150189I36J685*
G01*
G75*
G03X344096Y150442I-598J1165*
G01*
X344415Y150772*
Y152386*
G75*
G02X344422Y153049I33187J16*
G01*
G75*
G02X344443Y153574I13261J-265*
G01*
G75*
G02X344472Y153992I20454J-1234*
G01*
G75*
G02X344515Y154063I92J-7*
G01*
G75*
G03X344554Y154107I-51J83*
G01*
G75*
G03X344586Y154202I-619J261*
G01*
G75*
G03X344608Y154321I-848J219*
G01*
G75*
G03X344615Y154451I-1139J131*
G01*
G75*
G02X344669Y154715I683J0*
G01*
G75*
G02X344823Y154967I894J-374*
G01*
G75*
G02X345037Y155150I669J-567*
G01*
G75*
G02X345261Y155213I225J-370*
G01*
G75*
G02X345369Y155178I0J-186*
G01*
G75*
G02X345629Y154983I-4318J-6042*
G01*
G75*
G02X345931Y154731I-4150J-5295*
G01*
G75*
G02X346256Y154433I-6970J-7902*
G01*
G75*
G03X346631Y154086I8827J9182*
G01*
G75*
G03X347093Y153687I17032J19239*
G01*
G75*
G03X347563Y153300I16560J19611*
G01*
G75*
G03X347967Y152989I7859J9783*
G01*
G75*
G02X348332Y152717I-72211J-97500*
G01*
G75*
G02X348687Y152452I-65171J-87458*
G01*
G75*
G02X348991Y152222I-59795J-79632*
G01*
G75*
G02X349158Y152093I-6481J-8551*
G01*
G75*
G03X349281Y151999I2675J3375*
G01*
G75*
G03X349411Y151908I2757J3772*
G01*
G75*
G03X349528Y151831I2324J3423*
G01*
G75*
G03X349608Y151787I424J667*
G01*
G75*
G02X349693Y151742I-604J-1254*
G01*
G75*
G02X349836Y151659I-5349J-9367*
G01*
G75*
G02X350000Y151560I-6101J-10363*
G01*
G75*
G02X350165Y151457I-6638J-10841*
G01*
G75*
G03X350357Y151343I2376J3752*
G01*
G75*
G03X350609Y151204I5813J10285*
G01*
G75*
G03X350875Y151067I5858J10989*
G01*
G75*
G03X351115Y150951I3480J6937*
G01*
G75*
G02X351354Y150840I-13739J-29837*
G01*
G75*
G02X351617Y150716I-20772J-44185*
G01*
G75*
G02X351864Y150597I-19680J-41240*
G01*
G75*
G02X352050Y150505I-6637J-13678*
G01*
G75*
G03X352224Y150431I662J1326*
G01*
G75*
G03X352430Y150369I822J2333*
G01*
G75*
G03X352635Y150326I586J2311*
G01*
G75*
G03X352805Y150313I170J1037*
G01*
G75*
G02X352954Y150304I-3J-1407*
G01*
G75*
G02X353098Y150281I-131J-1247*
G01*
G75*
G02X353217Y150246I-230J-1002*
G01*
G75*
G02X353283Y150204I-60J-168*
G01*
G75*
G03X353448Y150122I204J204*
G01*
G75*
G03X353656Y150141I63J461*
G01*
G75*
G03X353856Y150255I-181J549*
G01*
G75*
G03X353994Y150437I-373J426*
G01*
G75*
G02X354079Y150579I793J-379*
G01*
G75*
G02X354172Y150660I231J-170*
G01*
G75*
G02X354298Y150702I172J-310*
G01*
G75*
G02X354496Y150715I206J-1616*
G01*
G75*
G03X354873Y150765I-9J1500*
G01*
G75*
G03X355282Y150913I-656J2461*
G01*
G75*
G03X355642Y151118I-995J2160*
G01*
G75*
G03X355862Y151343I-468J676*
G01*
G75*
G03X355928Y151463I-771J506*
G01*
G75*
G03X355993Y151620I-1962J904*
G01*
G75*
G03X356047Y151787I-2110J775*
G01*
G75*
G03X356081Y151938I-1313J370*
G01*
G75*
G03X356051Y152422I-1089J176*
G01*
G75*
G03X355804Y152690I-392J-113*
G01*
G75*
G03X355404Y152674I-181J-481*
G01*
G75*
G03X354959Y152363I664J-1422*
G01*
G75*
G02X354548Y152102I-785J785*
G01*
G75*
G02X354052Y152033I-417J1164*
G01*
G75*
G02X353412Y152163I153J2392*
G01*
G75*
G02X352539Y152517I3252J9263*
G01*
G75*
G03X352292Y152630I-13724J-29704*
G01*
G75*
G03X352078Y152726I-7484J-16535*
G01*
G75*
G03X351891Y152807I-20654J-47170*
G01*
G75*
G03X351864Y152813I-28J-64*
G01*
G75*
G02X351837Y152820I0J53*
G01*
G75*
G02X351638Y152936I29708J51014*
G01*
G75*
G02X351409Y153072I9330J15945*
G01*
G75*
G02X351146Y153233I17518J28880*
G01*
G75*
G02X349949Y154046I8944J14461*
G01*
G75*
G02X348978Y154867I6090J8194*
G01*
G75*
G02X348299Y155611I5148J5378*
G01*
G75*
G02X348113Y156138I670J533*
G01*
G75*
G03X348070Y156407I-893J-6*
G01*
G75*
G03X347946Y156662I-995J-322*
G01*
G75*
G03X347755Y156882I-923J-612*
G01*
G75*
G03X347511Y157046I-750J-852*
G01*
G75*
G02X347331Y157175I315J631*
G01*
G75*
G02X347237Y157335I252J256*
G01*
G75*
G02X347263Y157458I131J36*
G01*
G75*
G02X347383Y157515I122J-102*
G01*
G75*
G03X347750Y157579I-15J1177*
G01*
G75*
G03X348728Y157928I-14861J43208*
G01*
G75*
G03X349800Y158345I-11631J31465*
G01*
G75*
G03X350798Y158777I-10180J24891*
G01*
G75*
G02X351078Y158896I2388J-5227*
G01*
G75*
G02X351160Y158879I28J-71*
G01*
G75*
G02X351161Y158809I-35J-36*
G01*
G75*
G02X350965Y158612I-3081J2878*
G01*
G75*
G03X350863Y158496I579J-613*
G01*
G75*
G03X350783Y158365I676J-498*
G01*
G75*
G03X350732Y158227I688J-332*
G01*
G75*
G03X350715Y158095I502J-131*
G01*
G75*
G03X350726Y157940I1103J-2*
G01*
G75*
G03X350766Y157861I133J19*
G01*
G75*
G03X350847Y157823I99J103*
G01*
G75*
G03X351009Y157813I161J1270*
G01*
G75*
G03X351126Y157820I2J934*
G01*
G75*
G03X351235Y157842I-94J742*
G01*
G75*
G03X351322Y157874I-156J552*
G01*
G75*
G03X351365Y157913I-43J92*
G01*
G75*
G02X351402Y157951I106J-66*
G01*
G75*
G02X351463Y157983I189J-283*
G01*
G75*
G02X351537Y158005I154J-378*
G01*
G75*
G02X351613Y158013I76J-382*
G01*
G75*
G03X351720Y158031I1J321*
G01*
G75*
G03X351930Y158111I-1553J4372*
G01*
G75*
G03X352176Y158220I-1889J4604*
G01*
G75*
G03X352432Y158348I-2764J5822*
G01*
G75*
G02X352712Y158497I93592J-176419*
G01*
G75*
G02X353031Y158665I155878J-294981*
G01*
G75*
G02X353340Y158828I150052J-285161*
G01*
G75*
G02X353584Y158956I58771J-111640*
G01*
G75*
G03X353791Y159070I-2476J4730*
G01*
G75*
G03X353985Y159189I-2282J3935*
G01*
G75*
G03X354144Y159298I-2229J3430*
G01*
G75*
G03X354221Y159370I-241J336*
G01*
G75*
G02X354275Y159424I346J-287*
G01*
G75*
G02X354339Y159470I321J-376*
G01*
G75*
G02X354402Y159502I221J-362*
G01*
G75*
G02X354455Y159513I53J-132*
G01*
G75*
G03X354674Y159604I0J306*
G01*
G75*
G03X355276Y160237I-19085J18739*
G01*
G75*
G03X355837Y160882I-11310J10406*
G01*
G75*
G03X356105Y161306I-1578J1296*
G01*
G75*
G03X356201Y161548I-1806J854*
G01*
G75*
G03X356266Y161803I-2003J646*
G01*
G75*
G03X356303Y162088I-2506J474*
G01*
G75*
G03X356315Y162420I-4504J332*
G01*
G75*
G03X356296Y162872I-5289J-4*
G01*
G75*
G03X356231Y163180I-1296J-111*
G01*
G75*
G03X356087Y163496I-1652J-564*
G01*
G75*
G03X355775Y164006I-11719J-6828*
G01*
G75*
G02X355656Y164198I5125J3294*
G01*
G75*
G02X355535Y164409I7043J4174*
G01*
G75*
G02X355430Y164607I6545J3607*
G01*
G75*
G02X355360Y164756I1927J995*
G01*
G75*
G03X354933Y165422I-2138J-902*
G01*
G75*
G03X354250Y166011I-2850J-2613*
G01*
G75*
G03X353357Y166489I-2744J-4057*
G01*
G75*
G03X352306Y166822I-2594J-6355*
G01*
G75*
G03X351144Y166997I-1706J-7391*
G01*
G75*
G03X349401Y167079I-2517J-34991*
G01*
G75*
G03X347583Y167072I-778J-35408*
G01*
G75*
G03X346115Y166959I451J-15400*
G01*
X347822Y147009D02*
G75*
G02X347912Y146937I-153J-285D01*
G01*
G75*
G02X347972Y146839I-246J-217*
G01*
G75*
G02X348005Y146700I-509J-195*
G01*
G75*
G02X348015Y146506I-1828J-197*
G01*
G75*
G02X348005Y146289I-2322J0*
G01*
G75*
G02X347968Y146163I-343J32*
G01*
G75*
G02X347893Y146079I-200J104*
G01*
G75*
G02X347759Y146010I-374J563*
G01*
G75*
G02X347446Y145937I-430J1132*
G01*
G75*
G02X346999Y145916I-429J4388*
G01*
G75*
G02X346562Y145939I18J4534*
G01*
G75*
G02X346309Y146016I69J678*
G01*
G75*
G02X346161Y146191I146J273*
G01*
G75*
G02X346107Y146507I1007J336*
G01*
G75*
G02X346149Y146824I1060J19*
G01*
G75*
G02X346290Y147004I296J-87*
G01*
G75*
G02X346546Y147085I305J-525*
G01*
G75*
G02X347049Y147106I524J-6313*
G01*
G75*
G02X347554Y147087I20J-6219*
G01*
G75*
G02X347822Y147009I-53J-678*
G01*
X348374Y147182D02*
G75*
G02X348578Y146795I-745J-640D01*
G01*
G75*
G02X348600Y146350I-1022J-274*
G01*
G75*
G02X348437Y145944I-998J164*
G01*
G75*
G02X348124Y145667I-705J481*
G01*
G75*
G02X347749Y145554I-491J948*
G01*
G75*
G02X347101Y145514I-767J7123*
G01*
G75*
G02X346451Y145532I-123J7117*
G01*
G75*
G02X346062Y145632I85J1139*
G01*
G75*
G02X345773Y145850I346J760*
G01*
G75*
G02X345586Y146180I760J648*
G01*
G75*
G02X345532Y146565I1000J336*
G01*
G75*
G02X345623Y146939I1015J-48*
G01*
G75*
G02X345824Y147224I852J-387*
G01*
G75*
G02X346107Y147398I538J-557*
G01*
G75*
G02X346531Y147482I507J-1448*
G01*
G75*
G02X347199Y147490I429J-8074*
G01*
G75*
G02X347775Y147466I-698J-23668*
G01*
G75*
G02X348032Y147426I-69J-1286*
G01*
G75*
G02X348203Y147343I-124J-470*
G01*
G75*
G02X348374Y147182I-669J-885*
G01*
X350115Y148113D02*
G75*
G03X350006Y147950I356J-356D01*
G01*
G75*
G03X349948Y147733I796J-330*
G01*
G75*
G03X349921Y147372I3065J-409*
G01*
G75*
G03X349915Y146613I48477J-757*
G01*
Y145313*
X350615*
Y147102*
X351090Y147132*
X351565Y147163*
X351595Y147737*
X351625Y148313*
X350970*
G75*
G03X350628Y148304I2J-6571*
G01*
G75*
G03X350407Y148272I67J-1256*
G01*
G75*
G03X350248Y148212I144J-618*
G01*
G75*
G03X350115Y148113I276J-508*
G01*
X351215Y148019D02*
G75*
G02X351192Y147980I-44D01*
G01*
G75*
G02X351105Y147943I-270J513*
G01*
G75*
G02X350984Y147912I-272J817*
G01*
G75*
G02X350840Y147893I-273J1522*
G01*
G75*
G03X350673Y147871I135J-1633*
G01*
G75*
G03X350558Y147833I85J-453*
G01*
G75*
G03X350490Y147780I90J-185*
G01*
G75*
G03Y147645I81J-67*
G01*
G75*
G03X350558Y147592I158J132*
G01*
G75*
G03X350673Y147554I200J415*
G01*
G75*
G03X350840Y147531I302J1611*
G01*
G75*
G02X350984Y147513I-139J-1647*
G01*
G75*
G02X351105Y147483I-155J-899*
G01*
G75*
G02X351193Y147448I-191J-606*
G01*
G75*
G02Y147376I-18J-36*
G01*
G75*
G02X351105Y147341I-278J570*
G01*
G75*
G02X350984Y147312I-276J870*
G01*
G75*
G02X350840Y147293I-283J1628*
G01*
X350465Y147263*
X350436Y146437*
G75*
G02X350415Y146019I-14178J496*
G01*
G75*
G02X350383Y145784I-1640J109*
G01*
G75*
G02X350334Y145655I-444J94*
G01*
G75*
G02X350261Y145613I-73J41*
G01*
G75*
G02X350187Y145660I0J81*
G01*
G75*
G02X350144Y145809I515J230*
G01*
G75*
G02X350121Y146087I2243J324*
G01*
G75*
G02X350115Y146617I25070J526*
G01*
G75*
G02X350122Y147225I27578J0*
G01*
G75*
G02X350152Y147506I1649J-35*
G01*
G75*
G02X350224Y147691I565J-111*
G01*
G75*
G02X350361Y147867I781J-469*
G01*
G75*
G02X350581Y148018I513J-513*
G01*
G75*
G02X350879Y148108I524J-1192*
G01*
G75*
G02X351130Y148115I148J-832*
G01*
G75*
G02X351215Y148019I-12J-96*
G01*
X352296Y163910D02*
G75*
G02X352465Y163796I-1117J-1829D01*
G01*
G75*
G02X352549Y163704I-200J-269*
G01*
G75*
G02X352577Y163607I-159J-98*
G01*
G75*
G02X352559Y163485I-405J-4*
G01*
G75*
G02X351978Y162260I-4432J1353*
G01*
G75*
G02X351008Y161102I-5874J3933*
G01*
G75*
G02X349637Y160000I-6799J7061*
G01*
G75*
G02X347846Y158946I-10516J15809*
G01*
G75*
G02X347182Y158622I-7103J13734*
G01*
G75*
G02X346730Y158457I-1239J2700*
G01*
G75*
G02X346428Y158420I-282J1030*
G01*
G75*
G02X346265Y158513I4J196*
G01*
G75*
G03X346217Y158557I-106J-65*
G01*
G75*
G03X346093Y158615I-791J-1529*
G01*
G75*
G03X345938Y158673I-759J-1799*
G01*
G75*
G03X345766Y158722I-820J-2535*
G01*
G75*
G02X345472Y158822I481J1910*
G01*
G75*
G02X345307Y158947I167J392*
G01*
G75*
G02X345257Y159102I179J143*
G01*
G75*
G02X345310Y159291I448J-23*
G01*
G75*
G03X345357Y159404I-519J279*
G01*
G75*
G03X345438Y159691I-14321J4202*
G01*
G75*
G03X345527Y160036I-13602J3693*
G01*
G75*
G03X345615Y160413I-18972J4644*
G01*
G75*
G02X345935Y161589I13023J-2915*
G01*
G75*
G02X346313Y162472I4944J-1594*
G01*
G75*
G02X346753Y163090I2744J-1487*
G01*
G75*
G02X347265Y163457I1125J-1028*
G01*
G75*
G02X348058Y163757I3309J-7534*
G01*
G75*
G02X348819Y163949I1857J-5780*
G01*
G75*
G02X349675Y164056I1366J-7472*
G01*
G75*
G02X350765Y164098I1302J-19211*
G01*
G75*
G02X351444Y164099I358J-32093*
G01*
G75*
G02X351814Y164074I-35J-3301*
G01*
G75*
G02X352068Y164017I-156J-1280*
G01*
G75*
G02X352296Y163910I-363J-1075*
G01*
X355237Y147557D02*
G75*
G03X355116Y147435I280J-400D01*
G01*
G75*
G03X355051Y147283I344J-239*
G01*
G75*
G03X355022Y147036I1319J-281*
G01*
G75*
G03X355015Y146513I21064J-515*
G01*
G75*
G03X355063Y145756I6015J-1*
G01*
G75*
G03X355256Y145459I405J51*
G01*
G75*
G03X355676Y145333I448J737*
G01*
G75*
G03X356987Y145313I1304J40766*
G01*
X358515*
Y145913*
X357309*
G75*
G02X356832Y145920I-2J15024*
G01*
G75*
G02X356400Y145943I326J10292*
G01*
G75*
G02X356041Y145975I820J11123*
G01*
G75*
G02X355909Y146016I38J359*
G01*
G75*
G02X355819Y146087I153J285*
G01*
G75*
G02X355759Y146185I246J218*
G01*
G75*
G02X355726Y146322I502J195*
G01*
G75*
G02X355715Y146513I1743J189*
G01*
G75*
G02X355726Y146703I1749J1*
G01*
G75*
G02X355759Y146840I535J-58*
G01*
G75*
G02X355819Y146938I306J-120*
G01*
G75*
G02X355909Y147009I243J-213*
G01*
G75*
G02X356041Y147050I170J-319*
G01*
G75*
G02X356400Y147082I1179J-11091*
G01*
G75*
G02X356832Y147105I759J-10269*
G01*
G75*
G02X357309Y147113I487J-15017*
G01*
X358515*
Y147713*
X356987*
G75*
G03X356190Y147706I11J-48752*
G01*
G75*
G03X355721Y147681I108J-6491*
G01*
G75*
G03X355420Y147636I225J-2525*
G01*
G75*
G03X355237Y147557I103J-487*
G01*
X358176Y147456D02*
G75*
G02X358177Y147369I-5J-44D01*
G01*
G75*
G02X357892Y147339I-917J7452*
G01*
G75*
G02X357516Y147319I-543J6516*
G01*
G75*
G02X357023Y147313I-488J18874*
G01*
G75*
G03X356555Y147308I17J-24813*
G01*
G75*
G03X356135Y147294I304J-16138*
G01*
G75*
G03X355784Y147276I926J-20478*
G01*
G75*
G03X355673Y147252I23J-373*
G01*
G75*
G03X355596Y147186I54J-142*
G01*
G75*
G03X355548Y147062I366J-214*
G01*
G75*
G03X355522Y146856I1194J-256*
G01*
G75*
G03X355515Y146513I8393J-335*
G01*
G75*
G03X355522Y146169I8409J-9*
G01*
G75*
G03X355548Y145963I1220J50*
G01*
G75*
G03X355596Y145839I414J90*
G01*
G75*
G03X355673Y145773I131J76*
G01*
G75*
G03X355784Y145749I133J349*
G01*
G75*
G03X356135Y145730I1277J20459*
G01*
G75*
G03X356555Y145717I724J16124*
G01*
G75*
G03X357023Y145713I464J24808*
G01*
G75*
G02X357516Y145706I-10J-18881*
G01*
G75*
G02X357892Y145685I-167J-6536*
G01*
G75*
G02X358177Y145656I-632J-7481*
G01*
G75*
G02X358176Y145569I-6J-44*
G01*
G75*
G02X357881Y145539I-957J8193*
G01*
G75*
G02X357491Y145519I-562J6986*
G01*
G75*
G02X356979Y145513I-508J20506*
G01*
G75*
G02X356263Y145519I-13J39133*
G01*
G75*
G02X355904Y145547I55J3024*
G01*
G75*
G02X355673Y145608I137J987*
G01*
G75*
G02X355479Y145720I287J724*
G01*
G75*
G02X355337Y145856I616J783*
G01*
G75*
G02X355260Y145992I309J265*
G01*
G75*
G02X355224Y146179I686J228*
G01*
G75*
G02X355215Y146513I5939J328*
G01*
G75*
G02X355224Y146846I5941J5*
G01*
G75*
G02X355260Y147033I722J-41*
G01*
G75*
G02X355337Y147169I386J-129*
G01*
G75*
G02X355479Y147305I758J-647*
G01*
G75*
G02X355673Y147417I481J-613*
G01*
G75*
G02X355904Y147478I368J-926*
G01*
G75*
G02X356263Y147506I414J-2996*
G01*
G75*
G02X356979Y147513I724J-39127*
G01*
G75*
G02X357491Y147506I-11J-20512*
G01*
G75*
G02X357881Y147485I-172J-7007*
G01*
G75*
G02X358176Y147456I-662J-8222*
G01*
X359879Y147505D02*
G75*
G03X359727Y147351I524J-668D01*
G01*
G75*
G03X359652Y147188I333J-252*
G01*
G75*
G03X359621Y146929I1301J-285*
G01*
G75*
G03X359615Y146305I31644J-611*
G01*
Y145313*
X360315*
Y146109*
G75*
G02X360338Y146675I6993J2*
G01*
G75*
G02X360433Y146942I545J-44*
G01*
G75*
G02X360630Y147073I263J-182*
G01*
G75*
G02X361009Y147113I379J-1785*
G01*
G75*
G03X361182Y147122I2J1491*
G01*
G75*
G03X361265Y147162I-17J140*
G01*
G75*
G03X361305Y147243I-96J98*
G01*
G75*
G03X361315Y147413I-1368J171*
G01*
G75*
G03X361299Y147596I-1062J0*
G01*
G75*
G03X361241Y147675I-107J-19*
G01*
G75*
G03X361115Y147707I-135J-263*
G01*
G75*
G03X360729Y147713I-389J-13707*
G01*
G75*
G03X360432Y147702I5J-4139*
G01*
G75*
G03X360212Y147667I94J-1327*
G01*
G75*
G03X360037Y147604I209J-853*
G01*
G75*
G03X359879Y147505I380J-783*
G01*
X361015Y147413D02*
G75*
G02X360994Y147374I-46J0D01*
G01*
G75*
G02X360930Y147342I-157J234*
G01*
G75*
G02X360835Y147320I-157J460*
G01*
G75*
G02X360723Y147313I-110J855*
G01*
G75*
G03X360367Y147283I1J-2202*
G01*
G75*
G03X360205Y147178I40J-240*
G01*
G75*
G03X360131Y146957I369J-246*
G01*
G75*
G03X360115Y146402I9989J-554*
G01*
G75*
G02X360109Y145989I-14492J1*
G01*
G75*
G02X360085Y145769I-1388J41*
G01*
G75*
G02X360040Y145654I-325J62*
G01*
G75*
G02X359965Y145613I-74J47*
G01*
G75*
G02X359891Y145650I0J91*
G01*
G75*
G02X359846Y145755I228J162*
G01*
G75*
G02X359821Y145953I1111J237*
G01*
G75*
G02X359815Y146317I10857J358*
G01*
G75*
G02X359824Y146717I9148J2*
G01*
G75*
G02X359857Y146942I1090J-47*
G01*
G75*
G02X359930Y147106I534J-138*
G01*
G75*
G02X360061Y147267I840J-548*
G01*
G75*
G02X360297Y147422I493J-493*
G01*
G75*
G02X360631Y147513I567J-1430*
G01*
G75*
G02X360921Y147518I164J-1080*
G01*
G75*
G02X361015Y147413I-12J-106*
G01*
X362480Y147467D02*
G75*
G03X362337Y147308I791J-855D01*
G01*
G75*
G03X362260Y147154I396J-294*
G01*
G75*
G03X362224Y146946I849J-252*
G01*
G75*
G03X362215Y146575I7455J-368*
G01*
G75*
G03X362220Y146316I7397J-6*
G01*
G75*
G03X362233Y146071I5887J209*
G01*
G75*
G03X362253Y145866I5517J425*
G01*
G75*
G03X362277Y145767I402J45*
G01*
G75*
G03X362424Y145578I385J148*
G01*
G75*
G03X362702Y145434I659J930*
G01*
G75*
G03X363087Y145343I620J1750*
G01*
G75*
G03X363560Y145313I472J3715*
G01*
X364215*
Y145613*
G75*
G03X364204Y145786I-1365J-3*
G01*
G75*
G03X364162Y145865I-126J-16*
G01*
G75*
G03X364073Y145904I-103J-117*
G01*
G75*
G03X363873Y145913I-200J-2211*
G01*
G75*
G02X363604Y145926I-2J2607*
G01*
G75*
G02X363395Y145970I107J1030*
G01*
G75*
G02X363260Y146037I154J481*
G01*
G75*
G02X363215Y146123I61J86*
G01*
G75*
G02X363248Y146159I36*
G01*
G75*
G02X363582Y146186I1557J-17085*
G01*
G75*
G02X363986Y146206I644J-9052*
G01*
G75*
G02X364465Y146213I490J-17894*
G01*
X365715*
Y146699*
G75*
G03X365703Y146935I-2317J-1*
G01*
G75*
G03X365666Y147133I-1195J-122*
G01*
G75*
G03X365602Y147300I-906J-253*
G01*
G75*
G03X365508Y147449I-766J-380*
G01*
G75*
G03X365344Y147603I-594J-467*
G01*
G75*
G03X365161Y147678I-264J-381*
G01*
G75*
G03X364854Y147707I-330J-1867*
G01*
G75*
G03X364022Y147713I-856J-66442*
G01*
G75*
G03X363226Y147707I2J-54033*
G01*
G75*
G03X362889Y147678I35J-2367*
G01*
G75*
G03X362677Y147607I108J-677*
G01*
G75*
G03X362480Y147467I431J-817*
G01*
X362819Y147167D02*
G75*
G03X362776Y147098I246J-204D01*
G01*
G75*
G03X362744Y147012I469J-220*
G01*
G75*
G03X362729Y146922I494J-131*
G01*
G75*
G03X362733Y146842I296J-22*
G01*
G75*
G03X362803Y146745I140J27*
G01*
G75*
G03X362959Y146692I221J389*
G01*
G75*
G03X363264Y146667I340J2326*
G01*
G75*
G03X363965Y146663I678J48517*
G01*
G75*
G03X364689Y146667I11J53707*
G01*
G75*
G03X364983Y146692I-27J2084*
G01*
G75*
G03X365130Y146750I-56J356*
G01*
G75*
G03X365200Y146856I-93J137*
G01*
G75*
G03X365156Y147069I-278J53*
G01*
G75*
G03X364968Y147213I-315J-214*
G01*
G75*
G03X364582Y147291I-473J-1340*
G01*
G75*
G03X363908Y147313I-680J-10870*
G01*
G75*
G03X363432Y147306I2J-16181*
G01*
G75*
G03X363126Y147281I87J-2981*
G01*
G75*
G03X362926Y147237I173J-1283*
G01*
G75*
G03X362819Y147167I63J-211*
G01*
X364657Y147052D02*
G75*
G02X364775Y146959I-89J-234D01*
G01*
G75*
G02X364748Y146878I-44J-30*
G01*
G75*
G02X364478Y146826I-320J927*
G01*
G75*
G02X363965Y146813I-510J9994*
G01*
G75*
G02X363469Y146826I-4J9096*
G01*
G75*
G02X363189Y146878I61J1108*
G01*
G75*
G02X363151Y146957I18J57*
G01*
G75*
G02X363240Y147046I149J-59*
G01*
G75*
G02X363451Y147092I238J-589*
G01*
G75*
G02X363946Y147103I548J-13046*
G01*
G75*
G02X364441Y147096I53J-12867*
G01*
G75*
G02X364657Y147052I-24J-666*
G01*
X365230Y147213D02*
G75*
G02X365356Y147070I-1115J-1113D01*
G01*
G75*
G02X365444Y146933I-665J-521*
G01*
G75*
G02X365492Y146804I-524J-267*
G01*
G75*
G02X365497Y146688I-300J-72*
G01*
G75*
G02X365430Y146559I-217J31*
G01*
G75*
G02X365291Y146487I-198J211*
G01*
G75*
G02X364995Y146449I-392J1889*
G01*
G75*
G02X364166Y146413I-3693J74994*
G01*
G75*
G03X363392Y146378I2286J-59069*
G01*
G75*
G03X363067Y146340I131J-2541*
G01*
G75*
G03X362904Y146277I83J-459*
G01*
G75*
G03X362830Y146169I86J-139*
G01*
G75*
G03X362857Y145990I270J-51*
G01*
G75*
G03X362992Y145842I350J183*
G01*
G75*
G03X363227Y145744I379J584*
G01*
G75*
G03X363534Y145713I306J1456*
G01*
G75*
G02X363683Y145704I-3J-1402*
G01*
G75*
G02X363806Y145680I-73J-684*
G01*
G75*
G02X363890Y145644I-109J-374*
G01*
G75*
G02X363915Y145600I-26J-44*
G01*
G75*
G02X363807Y145494I-106J0*
G01*
G75*
G02X363391Y145533I49J2740*
G01*
G75*
G02X362942Y145647I498J2902*
G01*
G75*
G02X362662Y145815I248J731*
G01*
G75*
G02X362461Y146119I545J580*
G01*
G75*
G02X362398Y146500I942J349*
G01*
G75*
G02X362485Y146891I1084J-35*
G01*
G75*
G02X362707Y147220I962J-411*
G01*
G75*
G02X362910Y147391I1094J-1094*
G01*
G75*
G02X363092Y147472I301J-426*
G01*
G75*
G02X363356Y147506I292J-1259*
G01*
G75*
G02X363965Y147513I618J-26935*
G01*
G75*
G02X364578Y147506I-8J-27207*
G01*
G75*
G02X364841Y147472I-28J-1261*
G01*
G75*
G02X365023Y147389I-119J-503*
G01*
G75*
G02X365230Y147213I-973J-1355*
G01*
X367540Y146643D02*
G75*
G03X367424Y146602I80J-407D01*
G01*
G75*
G03X367357Y146533I77J-143*
G01*
G75*
G03X367324Y146417I276J-143*
G01*
G75*
G03X367315Y146207I2482J-207*
G01*
G75*
G03X367371Y145920I765J0*
G01*
G75*
G03X367529Y145773I237J96*
G01*
G75*
G03X367870Y145719I340J1037*
G01*
G75*
G03X368765Y145733I-80J33278*
G01*
X369765Y145763*
Y146663*
X368765Y146676*
G75*
G03X368366Y146677I-290J-22780*
G01*
G75*
G03X367993Y146671I88J-17328*
G01*
G75*
G03X367680Y146660I454J-17348*
G01*
G75*
G03X367540Y146643I41J-920*
G01*
X368497Y147437D02*
G75*
G02X368454Y147277I-574J67D01*
G01*
G75*
G02X368372Y147193I-151J64*
G01*
G75*
G02X368207Y147146I-226J489*
G01*
G75*
G02X367774Y147103I-1763J15465*
G01*
G75*
G03X367240Y147017I316J-3668*
G01*
G75*
G03X366930Y146856I162J-686*
G01*
G75*
G03X366768Y146584I361J-400*
G01*
G75*
G03X366715Y146150I1761J-433*
G01*
G75*
G03X366727Y145898I2685J-1*
G01*
G75*
G03X366770Y145750I407J38*
G01*
G75*
G03X366861Y145637I311J159*
G01*
G75*
G03X367040Y145511I1039J1285*
G01*
G75*
G03X367270Y145407I549J901*
G01*
G75*
G03X367539Y145348I448J1409*
G01*
G75*
G03X367939Y145320I475J3919*
G01*
G75*
G03X368673Y145313I759J38465*
G01*
G75*
G03X369483Y145318I6J58617*
G01*
G75*
G03X369822Y145346I-35J2488*
G01*
G75*
G03X370026Y145413I-96J637*
G01*
G75*
G03X370198Y145544I-306J578*
G01*
G75*
G03X370310Y145697I-561J528*
G01*
G75*
G03X370375Y145867I-563J313*
G01*
G75*
G03X370407Y146104I-1294J295*
G01*
G75*
G03X370415Y146498I-9015J395*
G01*
G75*
G03X370407Y146911I-9936J-2*
G01*
G75*
G03X370373Y147140I-1120J-47*
G01*
G75*
G03X370301Y147304I-534J-136*
G01*
G75*
G03X370170Y147467I-838J-543*
G01*
G75*
G03X370009Y147598I-710J-710*
G01*
G75*
G03X369846Y147670I-302J-463*
G01*
G75*
G03X369622Y147704I-273J-1046*
G01*
G75*
G03X369226Y147713I-401J-8861*
G01*
G75*
G03X368773Y147707I8J-19263*
G01*
G75*
G03X368616Y147676I11J-478*
G01*
G75*
G03X368538Y147600I48J-126*
G01*
G75*
G03X368497Y147437I592J-235*
G01*
X369564Y146415D02*
G75*
G02X369580Y146363I-90J-56D01*
G01*
G75*
G02X369575Y146286I-400J-14*
G01*
G75*
G02X369553Y146199I-507J81*
G01*
G75*
G02X369516Y146115I-547J189*
G01*
G75*
G02X369424Y146007I-282J150*
G01*
G75*
G02X369291Y145947I-211J289*
G01*
G75*
G02X369067Y145919I-259J1145*
G01*
G75*
G02X368619Y145913I-438J15190*
G01*
G75*
G02X368225Y145920I-1J9811*
G01*
G75*
G02X367965Y145948I79J2016*
G01*
G75*
G02X367787Y145997I156J906*
G01*
G75*
G02X367666Y146076I127J327*
G01*
G75*
G02X367600Y146255I161J161*
G01*
G75*
G02X367702Y146391I158J-12*
G01*
G75*
G02X368069Y146471I453J-1191*
G01*
G75*
G02X368784Y146501I939J-14062*
G01*
G75*
G02X369064Y146498I86J-5456*
G01*
G75*
G02X369310Y146480I-113J-3279*
G01*
G75*
G02X369507Y146452I-383J-3420*
G01*
G75*
G02X369564Y146415I-14J-81*
G01*
X369987Y147167D02*
G75*
G02X370173Y146843I-754J-648D01*
G01*
G75*
G02X370224Y146476I-914J-316*
G01*
G75*
G02X370134Y146111I-994J52*
G01*
G75*
G02X369914Y145796I-994J459*
G01*
X369613Y145495*
X368524Y145529*
G75*
G02X367742Y145579I364J11751*
G01*
G75*
G02X367316Y145693I131J1344*
G01*
G75*
G02X367096Y145896I196J432*
G01*
G75*
G02X367100Y146534I574J316*
G01*
G75*
G02X367326Y146737I410J-230*
G01*
G75*
G02X367774Y146847I572J-1354*
G01*
G75*
G02X368631Y146896I1283J-14973*
G01*
G75*
G03X369317Y146920I-1335J47959*
G01*
G75*
G03X369617Y146952I-99J2360*
G01*
G75*
G03X369757Y147007I-63J367*
G01*
G75*
G03X369795Y147096I-47J73*
G01*
G75*
G03X369752Y147175I-146J-27*
G01*
G75*
G03X369664Y147232I-185J-192*
G01*
G75*
G03X369517Y147270I-235J-604*
G01*
G75*
G03X369289Y147293I-428J-3115*
G01*
G75*
G02X369107Y147312I136J2147*
G01*
G75*
G02X368954Y147346I176J1158*
G01*
G75*
G02X368843Y147387I230J787*
G01*
G75*
G02X368815Y147431I20J43*
G01*
G75*
G02X368844Y147474I46*
G01*
G75*
G02X368937Y147497I136J-348*
G01*
G75*
G02X369084Y147502I102J-894*
G01*
G75*
G02X369287Y147485I-153J-3199*
G01*
G75*
G02X369521Y147446I-244J-2148*
G01*
G75*
G02X369704Y147384I-207J-917*
G01*
G75*
G02X369853Y147294I-311J-682*
G01*
G75*
G02X369987Y147167I-569J-733*
G01*
X371787Y148250D02*
G75*
G03X371759Y148210I92J-93D01*
G01*
G75*
G03X371736Y148145I451J-195*
G01*
G75*
G03X371720Y148069I563J-156*
G01*
G75*
G03X371715Y147993I556J-76*
G01*
G75*
G02X371704Y147917I-261J1*
G01*
G75*
G02X371671Y147844I-298J90*
G01*
G75*
G02X371622Y147785I-246J152*
G01*
G75*
G02X371565Y147748I-121J128*
G01*
G75*
G03X371457Y147636I66J-172*
G01*
G75*
G03X371419Y147413I662J-228*
G01*
G75*
G03X371454Y147190I696J-4*
G01*
G75*
G03X371561Y147078I172J57*
G01*
G75*
G02X371632Y147009I-46J-118*
G01*
G75*
G02X371681Y146850I-752J-318*
G01*
G75*
G02X371715Y146595I-2012J-397*
G01*
G75*
G02X371736Y146192I-11637J-816*
G01*
X371765Y145363*
X372465*
X372565Y147063*
X373015Y147113*
G75*
G03X373273Y147149I-473J4296*
G01*
G75*
G03X373390Y147196I-52J300*
G01*
G75*
G03X373447Y147274I-77J115*
G01*
G75*
G03X373465Y147413I-509J139*
G01*
G75*
G03X373447Y147550I-529J-1*
G01*
G75*
G03X373391Y147629I-133J-36*
G01*
G75*
G03X373274Y147676I-169J-252*
G01*
G75*
G03X373019Y147713I-724J-4131*
G01*
G75*
G02X372778Y147749I347J3136*
G01*
G75*
G02X372645Y147800I78J404*
G01*
G75*
G02X372566Y147881I111J187*
G01*
G75*
G02X372515Y148013I441J246*
G01*
G75*
G03X372471Y148133I-520J-121*
G01*
G75*
G03X372405Y148215I-216J-109*
G01*
G75*
G03X372305Y148265I-175J-225*
G01*
G75*
G03X372157Y148292I-235J-849*
G01*
G75*
G03X372038Y148298I-126J-1249*
G01*
G75*
G03X371925Y148292I-2J-980*
G01*
G75*
G03X371833Y148276I87J-786*
G01*
G75*
G03X371787Y148250I22J-94*
G01*
X372315Y147763D02*
G75*
G03X372380Y147637I584J221D01*
G01*
G75*
G03X372461Y147562I196J131*
G01*
G75*
G03X372578Y147524I156J279*
G01*
G75*
G03X372763Y147513I183J1506*
G01*
G75*
G02X373046Y147494I-2J-2196*
G01*
G75*
G02X373106Y147418I-9J-69*
G01*
G75*
G02X373031Y147335I-94J9*
G01*
G75*
G02X372740Y147293I-495J2419*
G01*
X372365Y147263*
X372315Y146463*
G75*
G02X372283Y146057I-12832J806*
G01*
G75*
G02X372244Y145829I-1530J144*
G01*
G75*
G02X372191Y145704I-418J106*
G01*
G75*
G02X372040Y145704I-76J47*
G01*
G75*
G02X371990Y145825I328J206*
G01*
G75*
G02X371957Y146050I1441J324*
G01*
G75*
G02X371935Y146459I13489J919*
G01*
G75*
G03X371917Y146769I-7005J-255*
G01*
G75*
G03X371886Y147040I-4174J-342*
G01*
G75*
G03X371849Y147259I-4761J-699*
G01*
G75*
G03X371809Y147316I-85J-17*
G01*
G75*
G02X371769Y147421I49J78*
G01*
G75*
G02X371870Y147691I2042J-611*
G01*
G75*
G02X372009Y147948I1964J-891*
G01*
G75*
G02X372125Y148013I117J-73*
G01*
G75*
G02X372168Y147996I0J-65*
G01*
G75*
G02X372220Y147939I-282J-311*
G01*
G75*
G02X372272Y147858I-469J-357*
G01*
G75*
G02X372315Y147763I-747J-399*
G01*
X374165Y166863D02*
G75*
G03X373071Y166690I5028J-35301D01*
G01*
G75*
G03X372166Y166507I2979J-17104*
G01*
G75*
G03X371174Y166256I5090J-22146*
G01*
G75*
G03X369765Y165852I24648J-88698*
G01*
G75*
G03X368101Y165267I4884J-16563*
G01*
G75*
G03X366609Y164546I5106J-12457*
G01*
G75*
G03X365444Y163784I5127J-9120*
G01*
G75*
G03X364857Y163093I1243J-1650*
G01*
G75*
G03X364737Y162750I1093J-572*
G01*
G75*
G03X364716Y162371I1440J-272*
G01*
G75*
G03X364790Y162022I1302J93*
G01*
G75*
G03X364952Y161766I655J237*
G01*
G75*
G03X365160Y161610I648J648*
G01*
G75*
G03X365477Y161461I1405J2573*
G01*
G75*
G03X365813Y161349I1099J2738*
G01*
G75*
G03X366083Y161313I276J1030*
G01*
G75*
G02X366142Y161296I-1J-111*
G01*
G75*
G02X366229Y161233I-471J-742*
G01*
G75*
G02X366324Y161145I-693J-848*
G01*
G75*
G02X366415Y161041I-1016J-973*
G01*
G75*
G03X366650Y160811I979J770*
G01*
G75*
G03X366942Y160646I813J1092*
G01*
G75*
G03X367290Y160546I614J1481*
G01*
G75*
G03X367691Y160513I399J2387*
G01*
X368143*
X368083Y159887*
G75*
G03X367943Y158148I53637J-5186*
G01*
G75*
G03X367862Y156429I50942J-3265*
G01*
G75*
G03X367843Y154883I43218J-1302*
G01*
G75*
G03X367896Y153696I15324J87*
G01*
G75*
G03X367949Y153113I34266J2848*
G01*
G75*
G03X368011Y152545I30891J3098*
G01*
G75*
G03X368074Y152059I27972J3331*
G01*
G75*
G03X368122Y151790I3076J420*
G01*
G75*
G03X368275Y151359I1924J439*
G01*
G75*
G03X368514Y151013I1267J622*
G01*
G75*
G03X368812Y150790I790J744*
G01*
G75*
G03X369137Y150713I324J637*
G01*
G75*
G02X369312Y150695I-1J-905*
G01*
G75*
G02X369465Y150644I-125J-635*
G01*
G75*
G02X369612Y150553I-325J-681*
G01*
G75*
G02X369765Y150413I-982J-1230*
G01*
G75*
G03X370046Y150203I761J728*
G01*
G75*
G03X370364Y150114I379J743*
G01*
G75*
G03X370698Y150155I64J868*
G01*
G75*
G03X371025Y150319I-374J1149*
G01*
X371315Y150526*
Y152113*
G75*
G02X371322Y152764I31907J16*
G01*
G75*
G02X371343Y153280I12865J-261*
G01*
G75*
G02X371372Y153692I19658J-1204*
G01*
G75*
G02X371415Y153763I92J-7*
G01*
G75*
G03X371455Y153821I-45J73*
G01*
G75*
G03X371486Y154037I-4204J714*
G01*
G75*
G03X371508Y154306I-3837J450*
G01*
G75*
G03X371515Y154613I-6472J311*
G01*
G75*
G02X371522Y154919I6471J4*
G01*
G75*
G02X371544Y155187I3859J-182*
G01*
G75*
G02X371576Y155404I4235J-498*
G01*
G75*
G02X371615Y155463I85J-15*
G01*
G75*
G03X371654Y155510I-49J80*
G01*
G75*
G03X371686Y155617I-810J299*
G01*
G75*
G03X371708Y155754I-1080J244*
G01*
G75*
G03X371715Y155904I-1525J151*
G01*
Y156283*
X372640Y156343*
G75*
G03X373428Y156440I-461J7037*
G01*
G75*
G03X374454Y156651I-3699J20576*
G01*
G75*
G03X375506Y156923I-4908J21140*
G01*
G75*
G03X376390Y157214I-3230J11311*
G01*
G75*
G02X376592Y157283I1533J-4117*
G01*
G75*
G02X376764Y157330I645J-2024*
G01*
G75*
G02X376898Y157356I450J-1967*
G01*
G75*
G02X376925Y157336I4J-24*
G01*
G75*
G02X376928Y157291I-322J-45*
G01*
G75*
G02X376927Y157189I-6242J21*
G01*
G75*
G02X376924Y157067I-6205J120*
G01*
G75*
G02X376918Y156937I-8165J306*
G01*
G75*
G03X376917Y156737I1942J-108*
G01*
G75*
G03X376957Y156657I112J6*
G01*
G75*
G03X377049Y156620I102J119*
G01*
G75*
G03X377302Y156613I249J4357*
G01*
G75*
G03X377460Y156620I2J1715*
G01*
G75*
G03X377604Y156642I-111J1207*
G01*
G75*
G03X377717Y156674I-203J939*
G01*
G75*
G03X377765Y156713I-31J88*
G01*
G75*
G02X377808Y156751I86J-54*
G01*
G75*
G02X377893Y156783I239J-502*
G01*
G75*
G02X378000Y156805I200J-700*
G01*
G75*
G02X378115Y156813I116J-893*
G01*
G75*
G03X378230Y156820I2J897*
G01*
G75*
G03X378337Y156842I-93J722*
G01*
G75*
G03X378422Y156874I-154J535*
G01*
G75*
G03X378465Y156913I-44J93*
G01*
G75*
G02X378502Y156951I108J-67*
G01*
G75*
G02X378562Y156983I187J-274*
G01*
G75*
G02X378634Y157005I151J-365*
G01*
G75*
G02X378707Y157013I74J-359*
G01*
G75*
G03X378962Y157070I0J598*
G01*
G75*
G03X379630Y157397I-10451J22149*
G01*
G75*
G03X380320Y157770I-7519J14751*
G01*
G75*
G03X380877Y158118I-4033J7065*
G01*
G75*
G03X381368Y158491I-3489J5108*
G01*
G75*
G03X381926Y158988I-8508J10107*
G01*
G75*
G03X382444Y159491I-17103J18157*
G01*
G75*
G03X382515Y159662I-171J172*
G01*
G75*
G02X382528Y159720I136J0*
G01*
G75*
G02X382570Y159796I567J-263*
G01*
G75*
G02X382631Y159878I641J-419*
G01*
G75*
G02X382703Y159952I620J-529*
G01*
G75*
G03X382787Y160057I-280J309*
G01*
G75*
G03X382887Y160254I-2383J1334*
G01*
G75*
G03X382985Y160491I-2898J1331*
G01*
G75*
G03X383065Y160740I-3232J1181*
G01*
G75*
G03X383169Y161313I-3015J844*
G01*
G75*
G03X383178Y161947I-4340J379*
G01*
G75*
G03X383101Y162525I-3896J-229*
G01*
G75*
G03X382937Y162913I-1085J-229*
G01*
G75*
G02X382736Y163226I8477J5674*
G01*
G75*
G02X382544Y163548I8876J5485*
G01*
G75*
G02X382352Y163901I10535J5990*
G01*
G75*
G02X382144Y164306I17486J9211*
G01*
G75*
G03X381609Y165100I-3254J-1617*
G01*
G75*
G03X380853Y165782I-3446J-3059*
G01*
G75*
G03X379897Y166333I-3196J-4439*
G01*
G75*
G03X378765Y166737I-3133J-6990*
G01*
G75*
G03X377889Y166894I-1335J-4925*
G01*
G75*
G03X376619Y166969I-1827J-20305*
G01*
G75*
G03X375285Y166963I-574J-21038*
G01*
G75*
G03X374165Y166863I384J-10651*
G01*
X374591Y148243D02*
G75*
G03X374575Y148178I124J-65D01*
G01*
G75*
G03X374574Y147766I63719J-328*
G01*
G75*
G03X374580Y147286I26621J44*
G01*
G75*
G03X374594Y146732I47236J931*
G01*
X374638Y145302*
X374952Y145332*
X375265Y145363*
Y148263*
X374950Y148293*
G75*
G03X374826Y148299I-121J-1244*
G01*
G75*
G03X374714Y148291I2J-821*
G01*
G75*
G03X374628Y148272I84J-607*
G01*
G75*
G03X374591Y148243I17J-57*
G01*
X375115Y146573D02*
G75*
G02X375109Y146146I-13927J5D01*
G01*
G75*
G02X375084Y145896I-1861J58*
G01*
G75*
G02X375039Y145747I-617J102*
G01*
G75*
G02X374965Y145676I-122J54*
G01*
G75*
G02X374890Y145695I-24J63*
G01*
G75*
G02X374843Y145794I157J135*
G01*
G75*
G02X374820Y146023I1446J260*
G01*
G75*
G02X374815Y146515I24408J480*
G01*
G75*
G02X374821Y146991I19906J7*
G01*
G75*
G02X374844Y147238I1750J-43*
G01*
G75*
G02X374889Y147368I403J-67*
G01*
G75*
G02X375040Y147370I76J-42*
G01*
G75*
G02X375086Y147248I-314J-187*
G01*
G75*
G02X375109Y147015I-1530J-273*
G01*
G75*
G02X375115Y146573I-16880J-446*
G01*
X376779Y147505D02*
G75*
G03X376631Y147359I576J-731D01*
G01*
G75*
G03X376555Y147211I311J-253*
G01*
G75*
G03X376522Y146989I945J-252*
G01*
G75*
G03X376515Y146520I14850J-459*
G01*
G75*
G03X376563Y145830I5041J-2*
G01*
G75*
G03X376745Y145527I444J62*
G01*
G75*
G03X377137Y145383I452J628*
G01*
G75*
G03X378172Y145329I1578J20174*
G01*
G75*
G03X378967Y145313I1543J57844*
G01*
G75*
G03X379278Y145334I25J1946*
G01*
G75*
G03X379472Y145403I-79J533*
G01*
G75*
G03X379662Y145550I-482J819*
G01*
G75*
G03X379798Y145716I-779J778*
G01*
G75*
G03X379872Y145880I-453J303*
G01*
G75*
G03X379906Y146106I-1031J270*
G01*
G75*
G03X379915Y146513I-9447J414*
G01*
G75*
G03X379906Y146915I-9331J-8*
G01*
G75*
G03X379873Y147142I-1099J-47*
G01*
G75*
G03X379801Y147305I-533J-138*
G01*
G75*
G03X379670Y147467I-840J-547*
G01*
G75*
G03X379487Y147606I-606J-606*
G01*
G75*
G03X379288Y147677I-301J-531*
G01*
G75*
G03X378973Y147706I-348J-2042*
G01*
G75*
G03X378233Y147713I-759J-45769*
G01*
G75*
G03X377548Y147706I0J-35161*
G01*
G75*
G03X377198Y147678I57J-2873*
G01*
G75*
G03X376971Y147617I138J-967*
G01*
G75*
G03X376779Y147505I294J-730*
G01*
X377190Y147204D02*
G75*
G03X377105Y147123I126J-217D01*
G01*
G75*
G03X377052Y147000I353J-225*
G01*
G75*
G03X377023Y146811I957J-243*
G01*
G75*
G03X377015Y146511I5577J-296*
G01*
G75*
G03X377056Y146054I2587J0*
G01*
G75*
G03X377198Y145836I329J59*
G01*
G75*
G03X377496Y145735I335J498*
G01*
G75*
G03X378200Y145713I703J11195*
G01*
G75*
G03X378935Y145727I5J18315*
G01*
G75*
G03X379178Y145811I-18J447*
G01*
G75*
G03X379290Y146003I-157J220*
G01*
G75*
G03X379315Y146513I-5064J510*
G01*
G75*
G03X379308Y146856I-8400J-1*
G01*
G75*
G03X379282Y147062I-1220J-50*
G01*
G75*
G03X379234Y147186I-414J-90*
G01*
G75*
G03X379157Y147252I-131J-76*
G01*
G75*
G03X378855Y147310I-315J-821*
G01*
G75*
G03X378147Y147307I-273J-18252*
G01*
G75*
G03X377433Y147278I518J-21459*
G01*
G75*
G03X377190Y147204I31J-544*
G01*
X378922Y147009D02*
G75*
G02X379011Y146938I-153J-285D01*
G01*
G75*
G02X379071Y146840I-246J-218*
G01*
G75*
G02X379105Y146703I-502J-195*
G01*
G75*
G02X379115Y146513I-1739J-193*
G01*
G75*
G02X379069Y146209I-1008*
G01*
G75*
G02X378930Y146030I-315J100*
G01*
G75*
G02X378661Y145937I-330J522*
G01*
G75*
G02X378165Y145913I-493J4974*
G01*
G75*
G02X377684Y145937I-2J4794*
G01*
G75*
G02X377410Y146025I69J682*
G01*
G75*
G02X377266Y146192I167J290*
G01*
G75*
G02X377215Y146460I681J268*
G01*
G75*
G02X377276Y146755I744J0*
G01*
G75*
G02X377446Y146959I429J-185*
G01*
G75*
G02X377744Y147076I420J-631*
G01*
G75*
G02X378194Y147113I451J-2759*
G01*
G75*
G02X378413Y147105I-4J-3144*
G01*
G75*
G02X378628Y147082I-210J-3018*
G01*
G75*
G02X378813Y147049I-368J-2585*
G01*
G75*
G02X378922Y147009I-88J-408*
G01*
X379120Y163260D02*
G75*
G02X379276Y163163I-520J-1008D01*
G01*
G75*
G02X379361Y163065I-183J-245*
G01*
G75*
G02X379403Y162934I-314J-172*
G01*
G75*
G02X379415Y162724I-1793J-213*
G01*
G75*
G02X379088Y161657I-1904J0*
G01*
G75*
G02X378039Y160409I-6526J4420*
G01*
G75*
G02X376483Y159151I-7868J8143*
G01*
G75*
G02X374565Y158037I-9485J14127*
G01*
G75*
G02X373752Y157654I-9827J19790*
G01*
G75*
G02X373103Y157397I-3321J7433*
G01*
G75*
G02X372595Y157250I-1615J4645*
G01*
G75*
G02X372243Y157230I-234J1011*
G01*
G75*
G02X372091Y157263I93J796*
G01*
G75*
G02X372007Y157323I51J159*
G01*
G75*
G02X371961Y157432I206J152*
G01*
G75*
G02X371933Y157650I2501J422*
G01*
G75*
G02X371929Y157807I1443J118*
G01*
G75*
G02X371942Y157956I1210J-30*
G01*
G75*
G02X371969Y158079I958J-148*
G01*
G75*
G02X372008Y158146I148J-42*
G01*
G75*
G03X372050Y158220I-111J111*
G01*
G75*
G03X372084Y158390I-2062J499*
G01*
G75*
G03X372107Y158599I-2392J376*
G01*
G75*
G03X372115Y158826I-3308J228*
G01*
G75*
G02X372122Y159051I3461J3*
G01*
G75*
G02X372144Y159250I2197J-142*
G01*
G75*
G02X372176Y159408I1976J-311*
G01*
G75*
G02X372215Y159463I86J-21*
G01*
G75*
G03X372254Y159508I-50J82*
G01*
G75*
G03X372286Y159606I-659J269*
G01*
G75*
G03X372308Y159728I-894J224*
G01*
G75*
G03X372315Y159863I-1221J135*
G01*
G75*
G02X372322Y159996I1225J2*
G01*
G75*
G02X372344Y160119I917J-101*
G01*
G75*
G02X372376Y160217I691J-172*
G01*
G75*
G02X372415Y160263I90J-37*
G01*
G75*
G03X372454Y160308I-50J82*
G01*
G75*
G03X372486Y160406I-659J269*
G01*
G75*
G03X372508Y160528I-894J224*
G01*
G75*
G03X372515Y160663I-1221J135*
G01*
G75*
G02X372522Y160796I1225J2*
G01*
G75*
G02X372544Y160919I917J-101*
G01*
G75*
G02X372576Y161017I691J-172*
G01*
G75*
G02X372615Y161063I90J-37*
G01*
G75*
G03X372654Y161098I-72J117*
G01*
G75*
G03X372686Y161153I-244J180*
G01*
G75*
G03X372708Y161218I-314J143*
G01*
G75*
G03X372715Y161283I-284J66*
G01*
G75*
G02X372735Y161370I194J0*
G01*
G75*
G02X372818Y161520I1989J-988*
G01*
G75*
G02X372931Y161693I2185J-1305*
G01*
G75*
G02X373065Y161868I2674J-1909*
G01*
G75*
G02X373465Y162241I1564J-1281*
G01*
G75*
G02X374085Y162624I3554J-5053*
G01*
G75*
G02X374728Y162924I2931J-5434*
G01*
G75*
G02X375185Y163013I458J-1144*
G01*
G75*
G03X375311Y163020I2J1090*
G01*
G75*
G03X375428Y163042I-98J836*
G01*
G75*
G03X375520Y163074I-163J624*
G01*
G75*
G03X375565Y163113I-40J91*
G01*
G75*
G02X375612Y163152I82J-52*
G01*
G75*
G02X375717Y163186I318J-796*
G01*
G75*
G02X375850Y163211I269J-1057*
G01*
G75*
G02X375996Y163222I189J-1470*
G01*
G75*
G03X376156Y163232I-61J2386*
G01*
G75*
G03X376330Y163253I-326J3474*
G01*
G75*
G03X376493Y163281I-472J3198*
G01*
G75*
G03X376615Y163313I-214J1082*
G01*
G75*
G02X377093Y163396I547J-1711*
G01*
G75*
G02X377922Y163404I545J-13724*
G01*
G75*
G02X378748Y163365I-330J-15609*
G01*
G75*
G02X379120Y163260I-71J-963*
G01*
X379474Y147182D02*
G75*
G02X379581Y147033I-826J-710D01*
G01*
G75*
G02X379657Y146875I-769J-463*
G01*
G75*
G02X379700Y146703I-869J-313*
G01*
G75*
G02X379715Y146513I-1230J-193*
G01*
G75*
G02X379700Y146322I-1247J2*
G01*
G75*
G02X379657Y146150I-913J141*
G01*
G75*
G02X379581Y145992I-844J304*
G01*
G75*
G02X379474Y145843I-934J561*
G01*
G75*
G02X379303Y145682I-831J715*
G01*
G75*
G02X379130Y145598I-301J399*
G01*
G75*
G02X378870Y145556I-341J1278*
G01*
G75*
G02X378293Y145528I-1433J23639*
G01*
G75*
G02X377707Y145514I-880J24263*
G01*
G75*
G02X377440Y145537I-15J1371*
G01*
G75*
G02X377250Y145609I106J572*
G01*
G75*
G02X377033Y145762I822J1389*
G01*
G75*
G02X376861Y145927I1218J1446*
G01*
G75*
G02X376770Y146067I359J332*
G01*
G75*
G02X376728Y146239I526J223*
G01*
G75*
G02X376715Y146513I3022J272*
G01*
G75*
G02X376728Y146786I3030J2*
G01*
G75*
G02X376770Y146957I569J-51*
G01*
G75*
G02X376861Y147098I450J-192*
G01*
G75*
G02X377033Y147263I1390J-1281*
G01*
G75*
G02X377250Y147416I1038J-1236*
G01*
G75*
G02X377440Y147487I297J-501*
G01*
G75*
G02X377707Y147511I252J-1348*
G01*
G75*
G02X378293Y147496I-295J-24277*
G01*
G75*
G02X378870Y147469I-856J-23667*
G01*
G75*
G02X379130Y147426I-80J-1320*
G01*
G75*
G02X379303Y147343I-128J-483*
G01*
G75*
G02X379474Y147182I-660J-876*
G01*
X381233Y147481D02*
G75*
G03X381116Y147315I528J-495D01*
G01*
G75*
G03X381052Y147126I609J-312*
G01*
G75*
G03X381022Y146838I1850J-335*
G01*
G75*
G03X381015Y146281I21918J-542*
G01*
Y145313*
X381715*
Y146109*
G75*
G02X381743Y146711I6503J4*
G01*
G75*
G02X381862Y146965I413J-39*
G01*
G75*
G02X382115Y147084I292J-291*
G01*
G75*
G02X382715Y147113I603J-6394*
G01*
G75*
G02X383315Y147084I-3J-6418*
G01*
G75*
G02X383568Y146965I-39J-410*
G01*
G75*
G02X383687Y146711I-293J-293*
G01*
G75*
G02X383715Y146109I-6476J-602*
G01*
Y145313*
X384422*
X384394Y146385*
G75*
G03X384370Y147061I-41816J-1122*
G01*
G75*
G03X384334Y147325I-1435J-61*
G01*
G75*
G03X384259Y147472I-331J-76*
G01*
G75*
G03X384115Y147583I-358J-315*
G01*
G75*
G03X383943Y147638I-258J-510*
G01*
G75*
G03X383616Y147677I-791J-5300*
G01*
G75*
G03X383188Y147702I-669J-7598*
G01*
G75*
G03X382657Y147711I-554J-17701*
G01*
G75*
G03X381917Y147706I-46J-46911*
G01*
G75*
G03X381596Y147678I32J-2211*
G01*
G75*
G03X381400Y147611I97J-604*
G01*
G75*
G03X381233Y147481I323J-591*
G01*
X384005Y147272D02*
G75*
G02X384114Y147139I-389J-428D01*
G01*
G75*
G02X384176Y146981I-468J-278*
G01*
G75*
G02X384207Y146750I-1239J-282*
G01*
G75*
G02X384215Y146347I-10135J-409*
G01*
G75*
G02X384209Y145966I-12080J9*
G01*
G75*
G02X384185Y145760I-1221J38*
G01*
G75*
G02X384139Y145652I-291J60*
G01*
G75*
G02X383991Y145654I-74J50*
G01*
G75*
G02X383945Y145769I279J177*
G01*
G75*
G02X383921Y145989I1364J260*
G01*
G75*
G02X383915Y146402I14487J400*
G01*
G75*
G03X383909Y146811I-12678J-3*
G01*
G75*
G03X383883Y147044I-1549J-52*
G01*
G75*
G03X383836Y147181I-482J-89*
G01*
G75*
G03X383757Y147252I-132J-69*
G01*
G75*
G03X383498Y147302I-275J-717*
G01*
G75*
G03X382715Y147311I-795J-36471*
G01*
G75*
G03X381932Y147302I12J-36498*
G01*
G75*
G03X381673Y147252I17J-768*
G01*
G75*
G03X381594Y147181I53J-139*
G01*
G75*
G03X381547Y147044I435J-226*
G01*
G75*
G03X381522Y146811I1523J-285*
G01*
G75*
G03X381515Y146402I12671J-400*
G01*
G75*
G02X381509Y145989I-14492J1*
G01*
G75*
G02X381485Y145769I-1388J41*
G01*
G75*
G02X381440Y145654I-325J62*
G01*
G75*
G02X381365Y145613I-74J47*
G01*
G75*
G02X381291Y145650I0J91*
G01*
G75*
G02X381246Y145755I228J162*
G01*
G75*
G02X381221Y145953I1111J237*
G01*
G75*
G02X381215Y146317I10857J358*
G01*
G75*
G02X381224Y146721I9272J3*
G01*
G75*
G02X381258Y146945I1053J-46*
G01*
G75*
G02X381332Y147109I526J-139*
G01*
G75*
G02X381470Y147276I926J-622*
G01*
G75*
G02X381652Y147422I737J-736*
G01*
G75*
G02X381832Y147490I263J-420*
G01*
G75*
G02X382107Y147512I255J-1481*
G01*
G75*
G02X382759Y147496I-493J-34862*
G01*
G75*
G02X383312Y147471I-676J-20562*
G01*
G75*
G02X383635Y147432I-163J-2742*
G01*
G75*
G02X383848Y147370I-191J-1054*
G01*
G75*
G02X384005Y147272I-200J-493*
G01*
D02*
D18*
X12607Y174885D02*
X13857D01*
X13231D02*
Y178635D01*
X12607Y178010*
X42188Y174511D02*
X39688D01*
X41875Y176698*
X42188Y177323*
X41875Y177948*
X41250Y178261*
X40313*
X39688Y177948*
X63713Y175073D02*
X64338Y174760D01*
X64963*
X65588Y175073*
X65900Y175698*
X65588Y176323*
X64963Y176635*
X64338*
X64963D02*
X65588Y176948D01*
X65900Y177573*
X65588Y178198*
X64963Y178510*
X64338*
X63713Y178198*
X90672Y174760D02*
Y178510D01*
X89110Y176010*
X91610*
X114944Y175073D02*
X115569Y174760D01*
X116507*
X117131Y175073*
X117444Y175698*
Y176010*
X117131Y176635*
X116507Y176948*
X114944*
Y178510*
X117444*
X138657Y174450D02*
X138969Y175075D01*
X139594Y175387*
X140219*
X140844Y175075*
X141157Y174450*
X140844Y173825*
X140219Y173512*
X139594*
X138969Y173825*
X138657Y174450*
Y175387*
X138969Y176325*
X139594Y176950*
X140219Y177262*
X162744Y173512D02*
X165244Y177262D01*
X162744*
X188642Y175387D02*
X189267D01*
X189892Y175700*
X190204Y176325*
X189892Y176950*
X189267Y177262*
X188642*
X188017Y176950*
X187704Y176325*
X188017Y175700*
X188642Y175387*
X188017Y175075*
X187704Y174450*
X188017Y173825*
X188642Y173512*
X189267*
X189892Y173825*
X190204Y174450*
X189892Y175075*
X189267Y175387*
X209457Y174885D02*
X210707D01*
X210082D02*
Y178635D01*
X209457Y178010*
X239038Y174511D02*
X236538D01*
X238726Y176698*
X239038Y177323*
X238726Y177948*
X238101Y178261*
X237163*
X236538Y177948*
X260563Y175073D02*
X261188Y174760D01*
X261813*
X262438Y175073*
X262751Y175698*
X262438Y176323*
X261813Y176635*
X261188*
X261813D02*
X262438Y176948D01*
X262751Y177573*
X262438Y178198*
X261813Y178510*
X261188*
X260563Y178198*
X287523Y174760D02*
Y178510D01*
X285960Y176010*
X288460*
X311794Y175073D02*
X312420Y174760D01*
X313357*
X313982Y175073*
X314294Y175698*
Y176010*
X313982Y176635*
X313357Y176948*
X311794*
Y178510*
X314294*
X335507Y174450D02*
X335820Y175075D01*
X336444Y175387*
X337070*
X337694Y175075*
X338007Y174450*
X337694Y173825*
X337070Y173512*
X336444*
X335820Y173825*
X335507Y174450*
Y175387*
X335820Y176325*
X336444Y176950*
X337070Y177262*
X359594Y173512D02*
X362094Y177262D01*
X359594*
X385492Y175387D02*
X386117D01*
X386742Y175700*
X387055Y176325*
X386742Y176950*
X386117Y177262*
X385492*
X384867Y176950*
X384555Y176325*
X384867Y175700*
X385492Y175387*
X384867Y175075*
X384555Y174450*
X384867Y173825*
X385492Y173512*
X386117*
X386742Y173825*
X387055Y174450*
X386742Y175075*
X386117Y175387*
D02*
D19*
X200033Y255924D02*
X200814Y254049D01*
X201596Y255924*
X202533Y254674D02*
X203783D01*
X206596Y254361D02*
X206439Y254205D01*
X206127Y254049*
X205658*
X205346Y254205*
X205189Y254361*
X205033Y254674*
Y255299*
X205189Y255611*
X205346Y255767*
X205658Y255924*
X206127*
X206439Y255767*
X206596Y255611*
X207533Y255924D02*
Y254517D01*
X207689Y254205*
X208002Y254049*
X208627*
X208939Y254205*
X209096Y254517*
Y255924*
X210814Y254049D02*
Y255924D01*
X210033D02*
X211596D01*
D02*
D70*
X63427Y132852D02*
Y122190D01*
X69364*
Y132852*
X63427*
X78974Y138664D02*
Y149326D01*
X73037*
Y138664*
X78974*
X79598Y111457D02*
Y122119D01*
X73661*
Y111457*
X79598*
X80245Y250D02*
X149143D01*
X83333Y157072D02*
X72672D01*
Y151135*
X83333*
Y157072*
X93710Y35289D02*
Y40329D01*
Y42297D02*
Y35289D01*
Y42297D02*
Y40329D01*
X95678*
Y42297*
X93710*
Y50329D02*
Y35289D01*
Y52297D02*
Y35289D01*
Y52297D02*
Y50329D01*
X95678*
Y52297*
X93710*
X95678Y35289D02*
Y40329D01*
Y42297D02*
Y35289D01*
Y50329D02*
Y35289D01*
Y52297D02*
Y35289D01*
X103710D02*
Y40329D01*
Y42297D02*
Y35289D01*
Y42297D02*
Y40329D01*
X105678*
Y42297*
X103710*
Y50329D02*
Y35289D01*
Y52297D02*
Y35289D01*
Y52297D02*
Y50329D01*
X105678*
Y52297*
X103710*
X105678Y35289D02*
Y40329D01*
Y42297D02*
Y35289D01*
Y50329D02*
Y35289D01*
Y52297D02*
Y35289D01*
X113710D02*
Y40329D01*
Y42297D02*
Y35289D01*
Y42297D02*
Y40329D01*
X115678*
Y42297*
X113710*
Y50329D02*
Y35289D01*
Y52297D02*
Y35289D01*
Y52297D02*
Y50329D01*
X115679*
Y52297*
X113710*
X115678Y35289D02*
Y40329D01*
Y42297D02*
Y35289D01*
Y52297D02*
Y35289D01*
X115679Y50329D02*
Y35289D01*
X120533Y78384D02*
Y89046D01*
X114596*
Y78384*
X120533*
X122765Y23872D02*
X106623D01*
Y250*
X74931*
Y35289*
X154458*
X154458Y250*
X122765*
Y23872*
X123710Y35289D02*
Y40329D01*
Y42297D02*
Y35289D01*
Y42297D02*
Y40329D01*
X125679*
Y42297*
X123710*
Y50329D02*
Y35289D01*
Y52297D02*
Y35289D01*
Y52297D02*
Y50329D01*
X125679*
Y52297*
X123710*
X125679Y35289D02*
Y40329D01*
Y42297D02*
Y35289D01*
Y50329D02*
Y35289D01*
Y52297D02*
Y35289D01*
X131017Y102721D02*
Y113382D01*
X125080*
Y102721*
X131017*
X131641Y78509D02*
Y89170D01*
X125704*
Y78509*
X131641*
X133710Y35289D02*
Y40329D01*
Y42297D02*
Y35289D01*
Y42297D02*
Y40329D01*
X135679*
Y42297*
X133710*
Y50329D02*
Y35289D01*
Y52297D02*
Y35289D01*
Y52297D02*
Y50329D01*
X135679*
Y52297*
X133710*
X135679Y35289D02*
Y40329D01*
Y42297D02*
Y35289D01*
Y50329D02*
Y35289D01*
Y52297D02*
Y35289D01*
X148802Y97096D02*
X159463D01*
Y103033*
X148802*
Y97096*
X159160Y58656D02*
X169822D01*
Y64593*
X159160*
Y58656*
X260278Y132852D02*
Y122190D01*
X266215*
Y132852*
X260278*
X275824Y138664D02*
Y149326D01*
X269887*
Y138664*
X275824*
X276448Y111457D02*
Y122119D01*
X270511*
Y111457*
X276448*
X277096Y250D02*
X345993D01*
X280183Y157072D02*
X269522D01*
Y151135*
X280183*
Y157072*
X290560Y35289D02*
Y40329D01*
Y42297D02*
Y35289D01*
Y42297D02*
Y40329D01*
X292529*
Y42297*
X290560*
Y50329D02*
Y35289D01*
Y52297D02*
Y35289D01*
Y52297D02*
Y50329D01*
X292529*
Y52297*
X290560*
X292529Y35289D02*
Y40329D01*
Y42297D02*
Y35289D01*
Y50329D02*
Y35289D01*
Y52297D02*
Y35289D01*
X300560D02*
Y40329D01*
Y42297D02*
Y35289D01*
Y42297D02*
Y40329D01*
X302529*
Y42297*
X300560*
Y50329D02*
Y35289D01*
Y52297D02*
Y35289D01*
Y52297D02*
Y50329D01*
X302529*
Y52297*
X300560*
X302529Y35289D02*
Y40329D01*
Y42297D02*
Y35289D01*
Y50329D02*
Y35289D01*
Y52297D02*
Y35289D01*
X310560D02*
Y40329D01*
Y42297D02*
Y35289D01*
Y42297D02*
Y40329D01*
X312529*
Y42297*
X310560*
Y50329D02*
Y35289D01*
Y52297D02*
Y35289D01*
Y52297D02*
Y50329D01*
X312529*
Y52297*
X310560*
X312529Y35289D02*
Y40329D01*
Y42297D02*
Y35289D01*
Y52297D02*
Y35289D01*
X312529Y50329D02*
Y35289D01*
X317384Y78384D02*
Y89046D01*
X311447*
Y78384*
X317384*
X319616Y23872D02*
X303474D01*
Y250*
X271781*
Y35289*
X351309*
X351308Y250*
X319616*
Y23872*
X320561Y35289D02*
Y40329D01*
Y42297D02*
Y35289D01*
Y42297D02*
Y40329D01*
X322529*
Y42297*
X320561*
Y50329D02*
Y35289D01*
Y52297D02*
Y35289D01*
Y52297D02*
Y50329D01*
X322529*
Y52297*
X320561*
X322529Y35289D02*
Y40329D01*
Y42297D02*
Y35289D01*
Y50329D02*
Y35289D01*
Y52297D02*
Y35289D01*
X327867Y102721D02*
Y113382D01*
X321930*
Y102721*
X327867*
X328491Y78509D02*
Y89170D01*
X322554*
Y78509*
X328491*
X330561Y35289D02*
Y40329D01*
Y42297D02*
Y35289D01*
Y42297D02*
Y40329D01*
X332529*
Y42297*
X330561*
Y50329D02*
Y35289D01*
Y52297D02*
Y35289D01*
Y52297D02*
Y50329D01*
X332529*
Y52297*
X330561*
X332529Y35289D02*
Y40329D01*
Y42297D02*
Y35289D01*
Y50329D02*
Y35289D01*
Y52297D02*
Y35289D01*
X345652Y97096D02*
X356313D01*
Y103033*
X345652*
Y97096*
X356011Y58656D02*
X366672D01*
Y64593*
X356011*
Y58656*
D02*
D71*
X72448Y129498D02*
Y128006D01*
Y134223D02*
Y132731D01*
Y137439D02*
X77566D01*
Y124841D02*
X72448D01*
X77566Y129498D02*
Y128006D01*
Y134317D02*
Y132825D01*
X79842Y137096D02*
G75*
G02Y137459J181D01*
G01*
X269298Y129498D02*
Y128006D01*
Y134223D02*
Y132731D01*
Y137439D02*
X274417D01*
Y124841D02*
X269298D01*
X274417Y129498D02*
Y128006D01*
Y134317D02*
Y132825D01*
X276692Y137096D02*
G75*
G02Y137459J181D01*
G01*
D02*
D20*
X22242Y194027D02*
Y180872D01*
X4577*
Y211975*
X22294*
Y201050*
X22304*
Y199501*
X48950Y193777D02*
Y180623D01*
X31285*
Y211725*
X49002*
Y200800*
X49012*
Y199251*
X73536Y194027D02*
Y180872D01*
X55871*
Y211975*
X73588*
Y201050*
X73598*
Y199501*
X90312Y134181D02*
X115115D01*
Y109378*
X90312*
Y134181*
X98496Y193902D02*
Y180748D01*
X80832*
Y211850*
X98548*
Y200925*
X98559*
Y199376*
X123582Y194027D02*
Y180872D01*
X105917*
Y211975*
X123634*
Y201050*
X123644*
Y199501*
X148043Y193528D02*
Y180373D01*
X130379*
Y211476*
X148095*
Y200550*
X148106*
Y199002*
X164152Y87019D02*
Y74420D01*
X144861*
Y87019*
X164152*
X164664Y94302D02*
Y88397D01*
X172380Y193528D02*
Y180373D01*
X154715*
Y211476*
X172432*
Y200550*
X172442*
Y199002*
X175845Y72387D02*
Y63037D01*
X182341*
Y72387*
X184956D02*
Y63037D01*
X191452*
Y72387*
X196717Y193528D02*
Y180373D01*
X179052*
Y211476*
X196769*
Y200550*
X196779*
Y199002*
X219092Y194027D02*
Y180872D01*
X201428*
Y211975*
X219144*
Y201050*
X219154*
Y199501*
X245800Y193777D02*
Y180623D01*
X228135*
Y211725*
X245852*
Y200800*
X245862*
Y199251*
X270386Y194027D02*
Y180872D01*
X252722*
Y211975*
X270438*
Y201050*
X270448*
Y199501*
X287162Y134181D02*
X311965D01*
Y109378*
X287162*
Y134181*
X295347Y193902D02*
Y180748D01*
X277682*
Y211850*
X295399*
Y200925*
X295409*
Y199376*
X320432Y194027D02*
Y180872D01*
X302768*
Y211975*
X320484*
Y201050*
X320494*
Y199501*
X344894Y193528D02*
Y180373D01*
X327229*
Y211476*
X344946*
Y200550*
X344956*
Y199002*
X361003Y87019D02*
Y74420D01*
X341711*
Y87019*
X361003*
X361515Y94302D02*
Y88397D01*
X369230Y193528D02*
Y180373D01*
X351566*
Y211476*
X369282*
Y200550*
X369293*
Y199002*
X372695Y72387D02*
Y63037D01*
X379191*
Y72387*
X381806D02*
Y63037D01*
X388302*
Y72387*
X393567Y193528D02*
Y180373D01*
X375902*
Y211476*
X393619*
Y200550*
X393629*
Y199002*
D02*
D21*
X165137Y95287D02*
Y66153D01*
X143877*
Y95287*
X165137*
X361987D02*
Y66153D01*
X340727*
Y95287*
X361987*
D02*
D22*
X85489Y137528D02*
G75*
G02X83914I-787D01*
G01*
X85489D02*
G75*
G02X83914I-787D01*
G01*
G75*
G02X85489I787*
G01*
X282339D02*
G75*
G02X280765I-787D01*
G01*
X282339D02*
G75*
G02X280765I-787D01*
G01*
G75*
G02X282339I787*
G01*
D02*
D113*
X38318Y124026D02*
X37693Y123714D01*
X37380Y123089*
Y121839*
X37693Y121214*
X38318Y120901*
X38943Y121214*
X39256Y121839*
Y123089*
X39568Y123714*
X40193Y124026*
X40818Y123714*
X41130Y123089*
Y121839*
X40818Y121214*
X40193Y120901*
X37380Y117464D02*
X41130D01*
Y119026D02*
Y115901D01*
X38630Y114026D02*
Y111526D01*
X37380Y107464D02*
Y107776D01*
X41130*
X37380Y102776D02*
X39880D01*
X40818D02*
X37380Y99026*
X39880D01*
X38943D02*
X39568Y98714D01*
X39880Y98089*
Y97464*
X39568Y96839*
X38943Y96526*
X37380*
Y94026D02*
X41130D01*
X38630D02*
Y93089D01*
X39880Y91526*
X38630Y93089D02*
X37380Y91526D01*
X177909Y85462D02*
X181659D01*
Y83275*
X181346Y82650*
X180721Y82337*
X180096Y82650*
X179784Y83275*
Y85462*
Y83275D02*
X177909Y82337D01*
Y80462D02*
X181659Y77337D01*
Y80462D02*
X177909Y77337D01*
X186894Y100314D02*
X190644D01*
Y98126*
X190332Y97501*
X189707Y97189*
X189082Y97501*
X188770Y98126*
Y100314*
X188144Y95314D02*
X189394D01*
X190020Y95001*
X190332Y94689*
X190644Y94064*
Y93439*
X190332Y92814*
X190020Y92501*
X189394Y92189*
X188144*
X187520Y92501*
X187207Y92814*
X186894Y93439*
Y94064*
X187207Y94689*
X187520Y95001*
X188144Y95314*
X190644Y90314D02*
X186894Y90001D01*
X188770Y88751*
X186894Y87501*
X190644Y87189*
X186894Y85314D02*
X190644D01*
Y82189*
X188770Y82814D02*
Y85314D01*
X186894D02*
Y82189D01*
Y80314D02*
X190644D01*
Y78126*
X190332Y77501*
X189707Y77189*
X189082Y77501*
X188770Y78126*
Y80314*
Y78126D02*
X186894Y77189D01*
X235169Y124026D02*
X234543Y123714D01*
X234231Y123089*
Y121839*
X234543Y121214*
X235169Y120901*
X235793Y121214*
X236106Y121839*
Y123089*
X236419Y123714*
X237043Y124026*
X237669Y123714*
X237981Y123089*
Y121839*
X237669Y121214*
X237043Y120901*
X234231Y117464D02*
X237981D01*
Y119026D02*
Y115901D01*
X235481Y114026D02*
Y111526D01*
X234231Y107464D02*
Y107776D01*
X237981*
X234231Y102776D02*
X236731D01*
X237669D02*
X234231Y99026*
X236731D01*
X235793D02*
X236419Y98714D01*
X236731Y98089*
Y97464*
X236419Y96839*
X235793Y96526*
X234231*
Y94026D02*
X237981D01*
X235481D02*
Y93089D01*
X236731Y91526*
X235481Y93089D02*
X234231Y91526D01*
X374759Y85462D02*
X378509D01*
Y83275*
X378197Y82650*
X377572Y82337*
X376947Y82650*
X376634Y83275*
Y85462*
Y83275D02*
X374759Y82337D01*
Y80462D02*
X378509Y77337D01*
Y80462D02*
X374759Y77337D01*
X383745Y100314D02*
X387495D01*
Y98126*
X387183Y97501*
X386557Y97189*
X385933Y97501*
X385620Y98126*
Y100314*
X384995Y95314D02*
X386245D01*
X386870Y95001*
X387183Y94689*
X387495Y94064*
Y93439*
X387183Y92814*
X386870Y92501*
X386245Y92189*
X384995*
X384370Y92501*
X384057Y92814*
X383745Y93439*
Y94064*
X384057Y94689*
X384370Y95001*
X384995Y95314*
X387495Y90314D02*
X383745Y90001D01*
X385620Y88751*
X383745Y87501*
X387495Y87189*
X383745Y85314D02*
X387495D01*
Y82189*
X385620Y82814D02*
Y85314D01*
X383745D02*
Y82189D01*
Y80314D02*
X387495D01*
Y78126*
X387183Y77501*
X386557Y77189*
X385933Y77501*
X385620Y78126*
Y80314*
Y78126D02*
X383745Y77189D01*
X0Y0D02*
M02*
