G04 EasyPC Gerber Version 21.0.3 Build 4286 *
G04 #@! TF.Part,Single*
G04 #@! TF.FileFunction,Soldermask,Bot *
G04 #@! TF.FilePolarity,Negative *
%FSLAX45Y45*%
%MOIN*%
G04 #@! TA.AperFunction,SMDPad*
%ADD11R,0.03559X0.04937*%
G04 #@! TA.AperFunction,ComponentPad*
%ADD85R,0.05331X0.05331*%
%ADD86C,0.05331*%
%ADD12C,0.07693*%
G04 #@! TA.AperFunction,WasherPad*
%ADD10C,0.25016*%
G04 #@! TA.AperFunction,SMDPad*
%ADD128R,0.05134X0.03559*%
X0Y0D02*
D02*
D10*
X15652Y35967D03*
Y235967D03*
X184943Y35967D03*
Y235967D03*
X212502Y35967D03*
Y235967D03*
X381794Y35967D03*
Y235967D03*
D02*
D11*
X61774Y73731D03*
X61899Y52015D03*
X67325Y73731D03*
X67450Y52015D03*
X258624Y73731D03*
X258749Y52015D03*
X264176Y73731D03*
X264300Y52015D03*
D02*
D12*
X15094Y64175D03*
Y74175D03*
Y84175D03*
Y94175D03*
Y104175D03*
Y114175D03*
Y124175D03*
Y134175D03*
Y144175D03*
Y154175D03*
X25094Y64175D03*
Y74175D03*
Y84175D03*
Y94175D03*
Y104175D03*
Y114175D03*
Y124175D03*
Y134175D03*
Y144175D03*
Y154175D03*
X94763Y41353D03*
Y51353D03*
X104763Y41353D03*
Y51353D03*
X114763Y41353D03*
Y51353D03*
X124763Y41353D03*
Y51353D03*
X134763Y41353D03*
Y51353D03*
X211944Y64175D03*
Y74175D03*
Y84175D03*
Y94175D03*
Y104175D03*
Y114175D03*
Y124175D03*
Y134175D03*
Y144175D03*
Y154175D03*
X221944Y64175D03*
Y74175D03*
Y84175D03*
Y94175D03*
Y104175D03*
Y114175D03*
Y124175D03*
Y134175D03*
Y144175D03*
Y154175D03*
X291613Y41353D03*
Y51353D03*
X301613Y41353D03*
Y51353D03*
X311613Y41353D03*
Y51353D03*
X321613Y41353D03*
Y51353D03*
X331613Y41353D03*
Y51353D03*
D02*
D85*
X15601Y188550D03*
X42309Y188300D03*
X66895Y188550D03*
X91856Y188425D03*
X116941Y188550D03*
X141402Y188050D03*
X165739D03*
X190076D03*
X212451Y188550D03*
X239159Y188300D03*
X263745Y188550D03*
X288706Y188425D03*
X313791Y188550D03*
X338253Y188050D03*
X362589D03*
X386926D03*
D02*
D86*
X15601Y196424D03*
Y204298D03*
X42309Y196174D03*
Y204048D03*
X66895Y196424D03*
Y204298D03*
X91856Y196299D03*
Y204173D03*
X116941Y196424D03*
Y204298D03*
X141402Y195924D03*
Y203798D03*
X165739Y195924D03*
Y203798D03*
X190076Y195924D03*
Y203798D03*
X212451Y196424D03*
Y204298D03*
X239159Y196174D03*
Y204048D03*
X263745Y196424D03*
Y204298D03*
X288706Y196299D03*
Y204173D03*
X313791Y196424D03*
Y204298D03*
X338253Y195924D03*
Y203798D03*
X362589Y195924D03*
Y203798D03*
X386926Y195924D03*
Y203798D03*
D02*
D128*
X67307Y59093D03*
Y66652D03*
X75968Y62873D03*
X264157Y59093D03*
Y66652D03*
X272819Y62873D03*
X0Y0D02*
M02*
