G04 EasyPC Gerber Version 21.0.3 Build 4286 *
G04 #@! TF.Part,Single*
G04 #@! TF.FileFunction,Copper,L2,Bot *
G04 #@! TF.FilePolarity,Positive *
%FSLAX45Y45*%
%MOIN*%
G04 #@! TA.AperFunction,SMDPad*
%ADD25R,0.02559X0.03937*%
G04 #@! TA.AperFunction,ComponentPad*
%ADD75R,0.04331X0.04331*%
G04 #@! TD.AperFunction*
%ADD70C,0.00500*%
%ADD78C,0.01500*%
G04 #@! TA.AperFunction,ViaPad*
%ADD77C,0.02362*%
G04 #@! TA.AperFunction,ComponentPad*
%ADD76C,0.04331*%
G04 #@! TD.AperFunction*
%ADD90C,0.05000*%
G04 #@! TA.AperFunction,ComponentPad*
%ADD74C,0.06693*%
G04 #@! TA.AperFunction,WasherPad*
%ADD23C,0.24016*%
G04 #@! TA.AperFunction,SMDPad*
%ADD127R,0.04134X0.02559*%
X0Y0D02*
D02*
D70*
X197042Y231526D02*
G75*
G02X172056Y235967I-12098J4441D01*
G01*
G75*
G02X180502Y248065I12888J0*
G01*
X20093*
G75*
G02X15652Y223079I-4441J-12098*
G01*
G75*
G02X3554Y231526I0J12888*
G01*
Y40407*
G75*
G02X28540Y35967I12098J-4441*
G01*
G75*
G02X20093Y23868I-12888J0*
G01*
X180502*
G75*
G02X184943Y48854I4441J12098*
G01*
G75*
G02X197042Y40407I0J-12888*
G01*
Y92749*
G75*
G02X196968Y92670I-1228J1074*
G01*
X162774Y58477*
G75*
G02X161620Y57998I-1154J1151*
G01*
X103426*
X98585Y53157*
G75*
G02X98143Y48816I-3822J-1804*
G01*
Y43891*
G75*
G02X98989Y41353I-3380J-2537*
G01*
G75*
G02X90537I-4226*
G01*
G75*
G02X91383Y43891I4226*
G01*
Y48816*
G75*
G02X90649Y50385I3380J2538*
G01*
X69609*
Y49167*
X65290*
Y50414*
G75*
G02X58149Y52015I-3391J1601*
G01*
G75*
G02X65290Y53616I3750*
G01*
Y54864*
X65663*
Y56935*
X64361*
Y61254*
X70254*
Y56935*
X69237*
Y54864*
X69609*
Y53645*
X91212*
G75*
G02X96159Y55342I3551J-2292*
G01*
X101596Y60779*
G75*
G02X102750Y61258I1154J-1151*
G01*
X160945*
X194187Y94499*
Y98515*
X186156Y106546*
X152894*
G75*
G02X149571Y108176I-1261J1630*
G01*
G75*
G02X152894Y109806I2061*
G01*
X186831*
G75*
G02X187985Y109328J-1630*
G01*
X196968Y100344*
G75*
G02X197042Y100265I-1154J-1154*
G01*
Y231526*
X186660Y203798D02*
G75*
G02X193491I3415D01*
G01*
G75*
G02X186660I-3415*
G01*
X187503Y197554D02*
G75*
G02X193121Y195924I2572J-1630D01*
G01*
G75*
G02X187503Y194294I-3045*
G01*
X180279*
X178726Y192742*
Y166085*
G75*
G02X178247Y164931I-1630*
G01*
X126598Y113282*
G75*
G02X122493Y113543I-2044J261*
G01*
G75*
G02X123404Y115253I2061J0*
G01*
G75*
G02X122657Y118552I776J1909*
G01*
G75*
G02X123796Y122454I898J1855*
G01*
X149133Y147790*
Y188873*
X143868Y194137*
G75*
G02X138357Y195924I-2466J1787*
G01*
G75*
G02X143975Y197554I3045*
G01*
X144386*
G75*
G02X145540Y197076J-1630*
G01*
X151914Y190702*
G75*
G02X152393Y189548I-1151J-1154*
G01*
Y147431*
X152627Y147665*
Y192793*
G75*
G02X153106Y193947I1630*
G01*
X156235Y197076*
G75*
G02X157389Y197554I1154J-1151*
G01*
X163167*
G75*
G02X168784Y195924I2572J-1630*
G01*
G75*
G02X163167Y194294I-3045*
G01*
X158064*
X155887Y192118*
Y147181*
X175466Y166760*
Y193417*
G75*
G02X175945Y194571I1630*
G01*
X178450Y197076*
G75*
G02X179604Y197554I1154J-1151*
G01*
X187503*
X187030Y191096D02*
X193120D01*
Y185006*
X187030*
Y191096*
X171841Y189680D02*
G75*
G02X175163Y188050I1261J-1630D01*
G01*
G75*
G02X171841Y186420I-2061*
G01*
X168786*
Y185006*
X162695*
Y191096*
X168786*
Y189680*
X171841*
X113526Y204298D02*
G75*
G02X120356I3415D01*
G01*
G75*
G02X113526I-3415*
G01*
X130210Y192668D02*
G75*
G02Y192667I-635J0D01*
G01*
G75*
G02Y192665I-641J-1*
G01*
Y150485*
G75*
G02X129680Y149214I-1787J0*
G01*
X115234Y134888*
Y114807*
G75*
G02X111707Y112676I-1787J-1026*
G01*
Y110922*
G75*
G02X110077Y109292I-1630*
G01*
X108717*
G75*
G02X105395Y110922I-1261J1630*
G01*
G75*
G02X108447Y112729I2061*
G01*
Y131382*
X101715*
G75*
G02X100085Y133012J1630*
G01*
Y177890*
X92595Y185380*
X88809*
Y191470*
X94900*
Y187685*
X102866Y179719*
G75*
G02X103345Y178565I-1151J-1154*
G01*
Y134642*
X110077*
G75*
G02X111659Y133404J-1630*
G01*
Y135633*
G75*
G02X112189Y136904I1787J0*
G01*
X126635Y151230*
Y191928*
X123927Y194636*
X119406*
G75*
G02X113896Y196424I-2465J1787*
G01*
G75*
G02X119406Y198211I3045*
G01*
X124664*
G75*
G02X125931Y197687I3J-1787*
G01*
X129687Y193932*
G75*
G02X130210Y192668I-1264J-1264*
G01*
X180952Y97576D02*
G75*
G02X184274Y95946I1261J-1630D01*
G01*
G75*
G02X180952Y94316I-2061*
G01*
X173981*
G75*
G02X174207Y90711I-878J-1865*
G01*
X175710*
G75*
G02X179032Y89081I1261J-1630*
G01*
G75*
G02X175710Y87452I-2061*
G01*
X138204*
G75*
G02X138290Y84825I-1544J-1365*
G01*
Y73731*
G75*
G02X136660Y72101I-1630*
G01*
X69485*
Y70884*
X69094*
Y68813*
X70254*
Y64494*
X64361*
Y68813*
X65519*
Y70884*
X65166*
Y72131*
G75*
G02X58024Y73731I-3392J1600*
G01*
G75*
G02X65166Y75330I3750*
G01*
Y76581*
X65538*
Y77559*
X39804*
X35360Y73115*
Y72607*
G75*
G02X34833Y71340I-1787J0*
G01*
X29070Y65608*
G75*
G02X21194Y62545I-3976J-1433*
G01*
X18993*
G75*
G02X10867Y64175I-3900J1630*
G01*
G75*
G02X18993Y65805I4226*
G01*
X21194*
G75*
G02X26549Y68143I3900J-1630*
G01*
X31785Y73351*
Y73856*
G75*
G02X32311Y75122I1787*
G01*
X37798Y80609*
G75*
G02X39064Y81134I1266J-1262*
G01*
X67325*
G75*
G02X69113Y79347J-1787*
G01*
Y76581*
X69485*
Y75361*
X135030*
Y84825*
G75*
G02X135116Y87452I1630J1261*
G01*
X99250*
G75*
G02X95928Y89081I-1261J1630*
G01*
G75*
G02X99250Y90711I2061*
G01*
X100235*
G75*
G02X99280Y92451I1105J1740*
G01*
G75*
G02X102602Y94081I2061*
G01*
X103457*
G75*
G02X102275Y95946I878J1865*
G01*
G75*
G02X105597Y97576I2061*
G01*
X117026*
G75*
G02X115504Y99565I539J1989*
G01*
G75*
G02Y99571I2141J3*
G01*
X112647Y102427*
X97739*
G75*
G02X96109Y104057J1630*
G01*
Y130379*
G75*
G02X95678Y131639I1631J1260*
G01*
G75*
G02X99800I2061*
G01*
G75*
G02X99369Y130377I-2061*
G01*
Y105687*
X113322*
G75*
G02X114475Y105208I0J-1630*
G01*
X118141Y101544*
G75*
G02X118104Y97576I-576J-1979*
G01*
X180952*
X72652Y65404D02*
X79286D01*
Y60344*
X72652*
Y65404*
X113896Y191596D02*
X119987D01*
Y185506*
X118728*
Y152731*
G75*
G02X118217Y151480I-1787*
G01*
X112606Y145758*
G75*
G02X109086Y144693I-2030J358*
G01*
Y144383*
G75*
G02X109517Y143121I-1630J-1261*
G01*
G75*
G02X105395I-2061*
G01*
G75*
G02X105826Y144383I2061*
G01*
Y192224*
X103381Y194669*
X94428*
G75*
G02X88810Y196299I-2572J1630*
G01*
G75*
G02X94428Y197929I3045*
G01*
X104057*
G75*
G02X105211Y197450J-1630*
G01*
X108607Y194054*
G75*
G02X109086Y192900I-1151J-1154*
G01*
Y147540*
G75*
G02X109837Y148041I1491J-1424*
G01*
X115154Y153461*
Y185506*
X113896*
Y191596*
X137987Y203798D02*
G75*
G02X144818I3415D01*
G01*
G75*
G02X137987I-3415*
G01*
X138357Y191096D02*
X144447D01*
Y185006*
X138357*
Y191096*
X162324Y203798D02*
G75*
G02X169154I3415D01*
G01*
G75*
G02X162324I-3415*
G01*
X108316Y221755D02*
G75*
G02X111639Y220125I1261J-1630D01*
G01*
G75*
G02X108316Y218495I-2061*
G01*
X22641*
X8494Y204348*
Y92837*
X13320Y88011*
G75*
G02X19320Y84175I1773J-3837*
G01*
G75*
G02X10867I-4226*
G01*
G75*
G02X11117Y85605I4227J0*
G01*
X5713Y91008*
G75*
G02X5235Y92162I1151J1154*
G01*
Y205024*
G75*
G02X5713Y206178I1630*
G01*
X20812Y221276*
G75*
G02X21966Y221755I1154J-1151*
G01*
X108316*
X38893Y204048D02*
G75*
G02X45724I3415D01*
G01*
G75*
G02X38893I-3415*
G01*
X90365Y105444D02*
G75*
G02X90796Y104183I-1630J-1261D01*
G01*
G75*
G02X86674I-2061*
G01*
G75*
G02X87106Y105444I2061*
G01*
Y115298*
G75*
G02X84622Y115548I-1077J1758*
G01*
G75*
G02X83611Y117056I619J1508*
G01*
Y171044*
G75*
G02X80970Y170538I-1615J1281*
G01*
X31703*
G75*
G02X30431Y171066I-3J1787*
G01*
X16103Y185506*
X12556*
Y191596*
X18646*
Y188019*
X32445Y174113*
X80970*
G75*
G02X83611Y173606I1026J-1787*
G01*
Y175063*
X52293*
G75*
G02X50663Y176693J1630*
G01*
Y185878*
X45353Y191188*
Y185254*
X39262*
Y191344*
X45196*
X43259Y193281*
G75*
G02X39263Y196174I-951J2893*
G01*
G75*
G02X45354I3045*
G01*
G75*
G02X45333Y195818I-3045J0*
G01*
X53444Y187707*
G75*
G02X53923Y186553I-1151J-1154*
G01*
Y178323*
X85241*
G75*
G02X86871Y176693J-1630*
G01*
Y118937*
G75*
G02X87106Y118813I-844J-1882*
G01*
Y179513*
X71824Y194794*
X69467*
G75*
G02X63850Y196424I-2572J1630*
G01*
G75*
G02X69467Y198054I3045*
G01*
X72500*
G75*
G02X73654Y197575J-1630*
G01*
X89887Y181342*
G75*
G02X90365Y180188I-1151J-1154*
G01*
Y105444*
X64459Y141495D02*
G75*
G02X68581I2061D01*
G01*
G75*
G02X68150Y140233I-2061*
G01*
Y120296*
G75*
G02X68581Y119034I-1630J-1261*
G01*
G75*
G02X64459I-2061*
G01*
G75*
G02X64891Y120296I2061*
G01*
Y140233*
G75*
G02X64459Y141495I1630J1261*
G01*
X84767Y87966D02*
G75*
G02X88089Y86336I1261J-1630D01*
G01*
G75*
G02X84767Y84706I-2061*
G01*
X40737*
X34622Y78591*
G75*
G02X33073Y77467I-1550J506*
G01*
X28301*
G75*
G02X25094Y69578I-3207J-3293*
G01*
G75*
G02X21886Y77467J4596*
G01*
X20511*
X18950Y75906*
G75*
G02X15094Y69948I-3856J-1731*
G01*
G75*
G02Y78401J4226*
G01*
G75*
G02X16569Y78135I0J-4227*
G01*
X18682Y80248*
G75*
G02X19836Y80727I1154J-1151*
G01*
X22649*
G75*
G02X25094Y88401I2444J3448*
G01*
G75*
G02X27538Y80727J-4226*
G01*
X32148*
X38908Y87487*
G75*
G02X40062Y87966I1154J-1151*
G01*
X84767*
X20867Y94175D02*
G75*
G02X29320I4226D01*
G01*
G75*
G02X20867I-4226*
G01*
Y104175D02*
G75*
G02X29320I4226D01*
G01*
G75*
G02X20867I-4226*
G01*
Y114175D02*
G75*
G02X29320I4226D01*
G01*
G75*
G02X20867I-4226*
G01*
Y124175D02*
G75*
G02X29320I4226D01*
G01*
G75*
G02X20867I-4226*
G01*
X60518Y126100D02*
G75*
G02X63839Y124470I1260J-1631D01*
G01*
G75*
G02X60515Y122841I-2061*
G01*
X42115*
G75*
G02X40961Y123319J1630*
G01*
X31733Y132545*
X28993*
G75*
G02X20867Y134175I-3900J1630*
G01*
G75*
G02X28993Y135805I4226*
G01*
X32573*
G75*
G02X34071Y134818J-1630*
G01*
X42790Y126100*
X60518*
X109315Y101320D02*
G75*
G02X112637Y99690I1261J-1630D01*
G01*
G75*
G02X109315Y98060I-2061*
G01*
X53554*
G75*
G02X50232Y99690I-1261J1630*
G01*
G75*
G02X53554Y101320I2061*
G01*
X109315*
X93578Y94456D02*
G75*
G02X96900Y92826I1261J-1630D01*
G01*
G75*
G02X93578Y91196I-2061*
G01*
X51794*
G75*
G02X50640Y91674J1630*
G01*
X33561Y108753*
G75*
G02X31761Y110797I261J2044*
G01*
G75*
G02X35867Y111058I2061*
G01*
X52469Y94456*
X93578*
X20867Y144175D02*
G75*
G02X29320I4226D01*
G01*
G75*
G02X20867I-4226*
G01*
Y154175D02*
G75*
G02X29320I4226D01*
G01*
G75*
G02X20867I-4226*
G01*
X63480Y204298D02*
G75*
G02X70310I3415D01*
G01*
G75*
G02X63480I-3415*
G01*
X63849Y191596D02*
X69939D01*
Y185506*
X63849*
Y191596*
X88440Y204173D02*
G75*
G02X95271I3415D01*
G01*
G75*
G02X88440I-3415*
G01*
X10497Y94175D02*
G75*
G02X19690I4596D01*
G01*
G75*
G02X10497I-4596*
G01*
Y104175D02*
G75*
G02X19690I4596D01*
G01*
G75*
G02X10497I-4596*
G01*
Y114175D02*
G75*
G02X19690I4596D01*
G01*
G75*
G02X10497I-4596*
G01*
Y124175D02*
G75*
G02X19690I4596D01*
G01*
G75*
G02X10497I-4596*
G01*
Y144175D02*
G75*
G02X19690I4596D01*
G01*
G75*
G02X10497I-4596*
G01*
X10867Y134175D02*
G75*
G02X19320I4226D01*
G01*
G75*
G02X10867I-4226*
G01*
X10497Y154175D02*
G75*
G02X19690I4596D01*
G01*
G75*
G02X10497I-4596*
G01*
X12185Y204298D02*
G75*
G02X19016I3415D01*
G01*
G75*
G02X12185I-3415*
G01*
X12556Y196424D02*
G75*
G02X18646I3045D01*
G01*
G75*
G02X12556I-3045*
G01*
X110537Y41353D02*
G75*
G02X118989I4226D01*
G01*
G75*
G02X110537I-4226*
G01*
Y51353D02*
G75*
G02X118989I4226D01*
G01*
G75*
G02X110537I-4226*
G01*
X120537Y41353D02*
G75*
G02X128989I4226D01*
G01*
G75*
G02X120537I-4226*
G01*
Y51353D02*
G75*
G02X128989I4226D01*
G01*
G75*
G02X120537I-4226*
G01*
X130537Y41353D02*
G75*
G02X138989I4226D01*
G01*
G75*
G02X130537I-4226*
G01*
Y51353D02*
G75*
G02X138989I4226D01*
G01*
G75*
G02X130537I-4226*
G01*
X100167Y41353D02*
G75*
G02X109359I4596D01*
G01*
G75*
G02X100167I-4596*
G01*
Y51353D02*
G75*
G02X109359I4596D01*
G01*
G75*
G02X100167I-4596*
G01*
X3944Y41353D02*
G36*
X3804D01*
Y41037*
G75*
G02X3944Y41353I11847J-5078*
G01*
G37*
X179873Y24118D02*
G36*
G75*
G02X172056Y35967I5070J11848D01*
G01*
G75*
G02X173235Y41353I12888J0*
G01*
X138989*
G75*
G02X130537I-4226*
G01*
X128989*
G75*
G02X120537I-4226*
G01*
X118989*
G75*
G02X110537I-4226*
G01*
X109359*
G75*
G02X100167I-4596*
G01*
X98989*
G75*
G02X90537I-4226*
G01*
X27360*
G75*
G02X28540Y35967I-11709J-5386*
G01*
G75*
G02X20722Y24118I-12889J1*
G01*
X179873*
G37*
X196792Y41037D02*
G36*
Y41353D01*
X196651*
G75*
G02X196792Y41037I-11706J-5394*
G01*
G37*
X58208Y51353D02*
G36*
X3804D01*
Y41353*
X3944*
G75*
G02X27360I11708J-5387*
G01*
X90537*
G75*
G02X91383Y43891I4229J-1*
G01*
Y48816*
G75*
G02X90649Y50385I3376J2536*
G01*
X69609*
Y49167*
X65290*
Y50414*
G75*
G02X58208Y51353I-3391J1601*
G01*
G37*
X196651Y41353D02*
G36*
X196792D01*
Y51353*
X138989*
G75*
G02X130537I-4226*
G01*
X128989*
G75*
G02X120537I-4226*
G01*
X118989*
G75*
G02X110537I-4226*
G01*
X109359*
G75*
G02X100167I-4596*
G01*
X98989*
G75*
G02X98143Y48816I-4226*
G01*
Y43891*
G75*
G02X98989Y41353I-3382J-2538*
G01*
X100167*
G75*
G02X109359I4596*
G01*
X110537*
G75*
G02X118989I4226*
G01*
X120537*
G75*
G02X128989I4226*
G01*
X130537*
G75*
G02X138989I4226*
G01*
X173235*
G75*
G02X184943Y48854I11708J-5387*
G01*
G75*
G02X196651Y41353I-1J-12889*
G01*
G37*
X162561Y62874D02*
G36*
X79286D01*
Y60344*
X72652*
Y62874*
X29115*
G75*
G02X21194Y62545I-4021J1301*
G01*
X18993*
G75*
G02X11072Y62874I-3900J1630*
G01*
X3804*
Y51353*
X58208*
G75*
G02X58149Y52015I3691J663*
G01*
G75*
G02X65290Y53616I3750*
G01*
Y54864*
X65663*
Y56935*
X64361*
Y61254*
X70254*
Y56935*
X69237*
Y54864*
X69609*
Y53645*
X91212*
G75*
G02X96159Y55342I3551J-2292*
G01*
X101596Y60779*
G75*
G02X102750Y61258I1154J-1150*
G01*
X160945*
X162561Y62874*
G37*
X167172D02*
G36*
X162774Y58477D01*
G75*
G02X161620Y57998I-1154J1150*
G01*
X103426*
X98585Y53157*
G75*
G02X98989Y51353I-3823J-1804*
G01*
X100167*
G75*
G02X109359I4596*
G01*
X110537*
G75*
G02X118989I4226*
G01*
X120537*
G75*
G02X128989I4226*
G01*
X130537*
G75*
G02X138989I4226*
G01*
X196792*
Y62874*
X167172*
G37*
X36179Y78990D02*
G36*
X35021D01*
X34622Y78591*
G75*
G02X33073Y77467I-1549J506*
G01*
X28301*
G75*
G02X29690Y74175I-3208J-3293*
G01*
G75*
G02X25094Y69578I-4596*
G01*
G75*
G02X20497Y74175J4596*
G01*
G75*
G02X21886Y77467I4597*
G01*
X20511*
X18950Y75906*
G75*
G02X19320Y74175I-3856J-1730*
G01*
G75*
G02X15094Y69948I-4226*
G01*
G75*
G02X10867Y74175J4226*
G01*
G75*
G02X15094Y78401I4226*
G01*
G75*
G02X16569Y78135I0J-4228*
G01*
X17424Y78990*
X3804*
Y62874*
X11072*
G75*
G02X10867Y64174I4021J1301*
G01*
Y64175*
Y64175*
G75*
G02X18993Y65805I4226*
G01*
X21194*
G75*
G02X26549Y68143I3900J-1630*
G01*
X31785Y73351*
Y73856*
G75*
G02X32311Y75122I1788*
G01*
X36179Y78990*
G37*
X178677D02*
G36*
X138290D01*
Y73731*
G75*
G02X136660Y72101I-1630*
G01*
X69485*
Y70884*
X69094*
Y68813*
X70254*
Y64494*
X64361*
Y68813*
X65519*
Y70884*
X65166*
Y72131*
G75*
G02X58024Y73731I-3392J1600*
G01*
G75*
G02X65166Y75330I3750*
G01*
Y76581*
X65538*
Y77559*
X39804*
X35360Y73115*
Y72607*
G75*
G02X34833Y71340I-1789J0*
G01*
X29070Y65608*
G75*
G02X29320Y64175I-3976J-1433*
G01*
G75*
G02X29115Y62874I-4227*
G01*
X72652*
Y65404*
X79286*
Y62874*
X162561*
X178677Y78990*
G37*
X135030D02*
G36*
X69113D01*
Y76581*
X69485*
Y75361*
X135030*
Y78990*
G37*
X183287D02*
G36*
X167172Y62874D01*
X196792*
Y78990*
X183287*
G37*
X102472Y96824D02*
G36*
X50100D01*
X52469Y94456*
X93578*
G75*
G02X96900Y92826I1261J-1630*
G01*
G75*
G02X93578Y91196I-2061*
G01*
X51794*
G75*
G02X50640Y91674I0J1629*
G01*
X45490Y96824*
X28386*
G75*
G02X29320Y94175I-3293J-2650*
G01*
G75*
G02X20867I-4226*
G01*
G75*
G02X21801Y96824I4226J0*
G01*
X18850*
G75*
G02X19690Y94175I-3756J-2650*
G01*
G75*
G02X10497I-4596*
G01*
G75*
G02X11338Y96824I4596*
G01*
X8494*
Y92837*
X13320Y88011*
G75*
G02X19320Y84175I1773J-3837*
G01*
G75*
G02X10867I-4226*
G01*
G75*
G02Y84177I4177J1*
G01*
G75*
G02X11117Y85605I4218*
G01*
X5713Y91008*
G75*
G02X5235Y92162I1150J1154*
G01*
Y92162*
Y96824*
X3804*
Y78990*
X17424*
X18682Y80248*
G75*
G02X19836Y80727I1154J-1150*
G01*
X22649*
G75*
G02X20867Y84175I2444J3448*
G01*
G75*
G02X25094Y88401I4226*
G01*
G75*
G02X29320Y84175J-4226*
G01*
G75*
G02X27538Y80727I-4226*
G01*
X32148*
X38908Y87487*
G75*
G02X40062Y87966I1154J-1150*
G01*
X84767*
G75*
G02X88089Y86336I1261J-1630*
G01*
G75*
G02X84767Y84706I-2061*
G01*
X40737*
X35021Y78990*
X36179*
X37798Y80609*
G75*
G02X39064Y81134I1266J-1262*
G01*
X67325*
G75*
G02X69113Y79347J-1787*
G01*
Y78990*
X135030*
Y84825*
G75*
G02X134599Y86086I1630J1261*
G01*
G75*
G02X135116Y87452I2061*
G01*
X99250*
G75*
G02X95928Y89081I-1261J1630*
G01*
G75*
G02X99250Y90711I2061*
G01*
X100235*
G75*
G02X99280Y92451I1106J1740*
G01*
G75*
G02X102602Y94081I2061*
G01*
X103457*
G75*
G02X102275Y95945I878J1864*
G01*
Y95946*
G75*
G02X102472Y96824I2061J0*
G01*
G37*
X194187D02*
G36*
X184077D01*
G75*
G02X184274Y95946I-1865J-879*
G01*
G75*
G02X180952Y94316I-2061*
G01*
X173981*
G75*
G02X175163Y92451I-878J-1865*
G01*
G75*
G02X174207Y90711I-2061*
G01*
X175710*
G75*
G02X179032Y89081I1261J-1630*
G01*
G75*
G02X175710Y87452I-2061*
G01*
X138204*
G75*
G02X138721Y86086I-1545J-1365*
G01*
G75*
G02X138290Y84825I-2061*
G01*
Y78990*
X178677*
X194187Y94499*
Y96824*
G37*
X196792Y92494D02*
G36*
X183287Y78990D01*
X196792*
Y92494*
G37*
X5235Y99690D02*
G36*
X3804D01*
Y96824*
X5235*
Y99690*
G37*
X45490Y96824D02*
G36*
X42624Y99690D01*
X16100*
G75*
G02X14088I-1006J4485*
G01*
X8494*
Y96824*
X11338*
G75*
G02X18850I3756J-2650*
G01*
X21801*
G75*
G02X28386I3293J-2650*
G01*
X45490*
G37*
X102472D02*
G36*
G75*
G02X105597Y97576I1864J-878D01*
G01*
X117026*
G75*
G02X115504Y99565I539J1990*
G01*
Y99571*
X115385Y99690*
X112637*
G75*
G02X109315Y98060I-2061*
G01*
X53554*
G75*
G02X50232Y99690I-1261J1630*
G01*
X47235*
X50100Y96824*
X102472*
G37*
X184077D02*
G36*
X194187D01*
Y98515*
X193012Y99690*
X119622*
G75*
G02X119626Y99565I-2057J-121*
G01*
G75*
G02X118104Y97576I-2061*
G01*
X180952*
G75*
G02X184077Y96824I1261J-1630*
G01*
G37*
X5235Y104175D02*
G36*
X3804D01*
Y99690*
X5235*
Y104175*
G37*
X10497D02*
G36*
X8494D01*
Y99690*
X14088*
G75*
G02X10497Y104175I1006J4485*
G01*
G37*
X42624Y99690D02*
G36*
X38139Y104175D01*
X29320*
G75*
G02X20867I-4226*
G01*
X19690*
G75*
G02X16100Y99690I-4596*
G01*
X42624*
G37*
X115385D02*
G36*
X112647Y102427D01*
X97739*
G75*
G02X96109Y104057J1630*
G01*
Y104175*
X90796*
G75*
G02X86674I-2061J8*
G01*
X42750*
X47235Y99690*
X50232*
G75*
G02X53554Y101320I2061*
G01*
X109315*
G75*
G02X112637Y99690I1261J-1630*
G01*
X115385*
G37*
X193012D02*
G36*
X188527Y104175D01*
X115509*
X118141Y101544*
G75*
G02X119622Y99690I-576J-1979*
G01*
X193012*
G37*
X196792Y100520D02*
G36*
Y104175D01*
X193137*
X196792Y100520*
G37*
X5235Y114175D02*
G36*
X3804D01*
Y104175*
X5235*
Y114175*
G37*
X86674Y104175D02*
G36*
G75*
G02Y104183I2069J4D01*
G01*
G75*
G02X87106Y105444I2059J1*
G01*
Y114175*
X29320*
G75*
G02X20867I-4226*
G01*
X19690*
G75*
G02X10497I-4596*
G01*
X8494*
Y104175*
X10497*
G75*
G02X19690I4596*
G01*
X20867*
G75*
G02X29320I4226*
G01*
X38139*
X33561Y108753*
G75*
G02X31761Y110797I260J2044*
G01*
Y110797*
Y110798*
G75*
G02X35867Y111058I2061*
G01*
X42750Y104175*
X86674*
G37*
X96109D02*
G36*
Y114175D01*
X90365*
Y105444*
G75*
G02X90796Y104183I-1628J-1261*
G01*
G75*
G02Y104175I-2069J-5*
G01*
X96109*
G37*
X193137D02*
G36*
X196792D01*
Y114175*
X127491*
X126598Y113282*
G75*
G02X122493Y113543I-2044J260*
G01*
Y113543*
Y113543*
G75*
G02X122592Y114175I2059*
G01*
X115469*
G75*
G02X115507Y113781I-2022J-395*
G01*
G75*
G02X111707Y112676I-2061*
G01*
Y110922*
G75*
G02X110077Y109292I-1630*
G01*
X108717*
G75*
G02X105395Y110922I-1261J1630*
G01*
G75*
G02X108447Y112729I2061J0*
G01*
Y114175*
X99369*
Y105687*
X113322*
G75*
G02X114475Y105208J-1629*
G01*
X115509Y104175*
X188527*
X186156Y106546*
X152894*
G75*
G02X149571Y108176I-1261J1630*
G01*
G75*
G02X152894Y109806I2061*
G01*
X186831*
G75*
G02X187985Y109328I0J-1629*
G01*
X193137Y104175*
G37*
X5235Y124175D02*
G36*
X3804D01*
Y114175*
X5235*
Y124175*
G37*
X87106Y114175D02*
G36*
Y115298D01*
G75*
G02X84622Y115548I-1077J1759*
G01*
G75*
G02X83611Y117055I618J1507*
G01*
G75*
G02Y117056I1805J0*
G01*
Y124175*
X68150*
Y120296*
G75*
G02X68581Y119035I-1628J-1261*
G01*
G75*
G02Y119034I-2374J0*
G01*
G75*
G02X64459I-2061*
G01*
G75*
G02Y119035I2374J0*
G01*
G75*
G02X64891Y120296I2059*
G01*
Y124175*
X63818*
G75*
G02X60515Y122841I-2040J295*
G01*
X42115*
G75*
G02X40961Y123319I0J1629*
G01*
X40106Y124175*
X29320*
G75*
G02X20867I-4226*
G01*
X19690*
G75*
G02X10497I-4596*
G01*
X8494*
Y114175*
X10497*
G75*
G02X19690I4596*
G01*
X20867*
G75*
G02X29320I4226*
G01*
X87106*
G37*
Y124175D02*
G36*
X86871D01*
Y118937*
G75*
G02X87106Y118813I-855J-1902*
G01*
Y124175*
G37*
X96109D02*
G36*
X90365D01*
Y114175*
X96109*
Y124175*
G37*
X108447Y114175D02*
G36*
Y124175D01*
X99369*
Y114175*
X108447*
G37*
X125517Y124175D02*
G36*
X115234D01*
Y114807*
G75*
G02X115469Y114175I-1788J-1026*
G01*
X122592*
G75*
G02X123404Y115253I1961J-632*
G01*
G75*
G02X122119Y117162I776J1909*
G01*
G75*
G02X122657Y118552I2061*
G01*
G75*
G02X121494Y120407I898J1855*
G01*
G75*
G02X123796Y122454I2061*
G01*
X125517Y124175*
G37*
X137491D02*
G36*
X127491Y114175D01*
X196792*
Y124175*
X137491*
G37*
X5235Y130265D02*
G36*
X3804D01*
Y124175*
X5235*
Y130265*
G37*
X40106Y124175D02*
G36*
X34015Y130265D01*
X26698*
G75*
G02X23489I-1604J3910*
G01*
X16698*
G75*
G02X13490I-1604J3911*
G01*
X8494*
Y124175*
X10497*
G75*
G02X19690I4596*
G01*
X20867*
G75*
G02X29320I4226*
G01*
X40106*
G37*
X83611Y130265D02*
G36*
X68150D01*
Y124175*
X83611*
Y130265*
G37*
X64891D02*
G36*
X38625D01*
X42790Y126100*
X60518*
G75*
G02X63839Y124470I1260J-1631*
G01*
G75*
G02X63818Y124175I-2062J0*
G01*
X64891*
Y130265*
G37*
X87106D02*
G36*
X86871D01*
Y124175*
X87106*
Y130265*
G37*
X96109D02*
G36*
X90365D01*
Y124175*
X96109*
Y130265*
G37*
X108447D02*
G36*
X99369D01*
Y124175*
X108447*
Y130265*
G37*
X131607D02*
G36*
X115234D01*
Y124175*
X125517*
X131607Y130265*
G37*
X143581D02*
G36*
X137491Y124175D01*
X196792*
Y130265*
X143581*
G37*
X5235Y144175D02*
G36*
X3804D01*
Y130265*
X5235*
Y144175*
G37*
X83611D02*
G36*
X29320D01*
G75*
G02X20867I-4226*
G01*
X19690*
G75*
G02X10497I-4596*
G01*
X8494*
Y130265*
X13490*
G75*
G02X10867Y134175I1604J3910*
G01*
G75*
G02X19320I4226*
G01*
G75*
G02X16698Y130265I-4226*
G01*
X23489*
G75*
G02X20867Y134174I1604J3910*
G01*
Y134175*
G75*
G02X28993Y135805I4226*
G01*
X32573*
G75*
G02X34071Y134818I1J-1629*
G01*
X38625Y130265*
X64891*
Y140233*
G75*
G02X64459Y141494I1628J1261*
G01*
G75*
G02Y141495I2374J0*
G01*
G75*
G02X68581I2061*
G01*
G75*
G02Y141494I-2374J0*
G01*
G75*
G02X68150Y140233I-2059*
G01*
Y130265*
X83611*
Y144175*
G37*
X34015Y130265D02*
G36*
X31733Y132545D01*
X28993*
G75*
G02X26698Y130265I-3900J1629*
G01*
X34015*
G37*
X87106Y144175D02*
G36*
X86871D01*
Y130265*
X87106*
Y144175*
G37*
X108447Y130265D02*
G36*
Y131382D01*
X101715*
G75*
G02X100085Y133012J1630*
G01*
Y144175*
X90365*
Y130265*
X96109*
Y130379*
G75*
G02X95678Y131639I1632J1261*
G01*
G75*
G02X99800I2061*
G01*
G75*
G02X99369Y130377I-2062*
G01*
Y130265*
X108447*
G37*
X119521Y144175D02*
G36*
X111266D01*
G75*
G02X109885I-690J1942*
G01*
X109228*
G75*
G02X109517Y143122I-1769J-1052*
G01*
G75*
G02Y143121I-2374J0*
G01*
G75*
G02X105395I-2061*
G01*
G75*
G02Y143122I2374J0*
G01*
G75*
G02X105684Y144175I2059J0*
G01*
X103345*
Y134642*
X110077*
G75*
G02X111659Y133404J-1630*
G01*
Y135633*
G75*
G02X112189Y136904I1789J0*
G01*
X119521Y144175*
G37*
X145517D02*
G36*
X124598D01*
X115234Y134888*
Y130265*
X131607*
X145517Y144175*
G37*
X157491D02*
G36*
X143581Y130265D01*
X196792*
Y144175*
X157491*
G37*
X5235Y155226D02*
G36*
X3804D01*
Y144175*
X5235*
Y155226*
G37*
X83611D02*
G36*
X29187D01*
G75*
G02X29320Y154175I-4094J-1051*
G01*
G75*
G02X20867I-4226*
G01*
G75*
G02X21000Y155226I4226*
G01*
X19569*
G75*
G02X19690Y154175I-4475J-1050*
G01*
G75*
G02X10497I-4596*
G01*
G75*
G02X10619Y155226I4596J0*
G01*
X8494*
Y144175*
X10497*
G75*
G02X19690I4596*
G01*
X20867*
G75*
G02X29320I4226*
G01*
X83611*
Y155226*
G37*
X87106D02*
G36*
X86871D01*
Y144175*
X87106*
Y155226*
G37*
X100085D02*
G36*
X90365D01*
Y144175*
X100085*
Y155226*
G37*
X109885Y144175D02*
G36*
G75*
G02X109086Y144693I691J1942D01*
G01*
Y144383*
G75*
G02X109228Y144175I-1628J-1262*
G01*
X109885*
G37*
X105684D02*
G36*
G75*
G02X105826Y144383I1770J-1054D01*
G01*
Y155226*
X103345*
Y144175*
X105684*
G37*
X115154Y155226D02*
G36*
X109086D01*
Y147540*
G75*
G02X109837Y148041I1494J-1430*
G01*
X115154Y153461*
Y155226*
G37*
X126635D02*
G36*
X118728D01*
Y152731*
Y152731*
G75*
G02X118217Y151480I-1786*
G01*
X112606Y145758*
G75*
G02X111266Y144175I-2030J359*
G01*
X119521*
X126635Y151230*
Y155226*
G37*
X145517Y144175D02*
G36*
X149133Y147790D01*
Y155226*
X130210*
Y150485*
G75*
G02X129680Y149214I-1789J0*
G01*
X124598Y144175*
X145517*
G37*
X152627Y155226D02*
G36*
X152393D01*
Y147431*
X152627Y147665*
Y155226*
G37*
X163931D02*
G36*
X155887D01*
Y147181*
X163931Y155226*
G37*
X168542D02*
G36*
X157491Y144175D01*
X196792*
Y155226*
X168542*
G37*
X5235Y188051D02*
G36*
X3804D01*
Y155226*
X5235*
Y188051*
G37*
X83611Y155226D02*
G36*
Y171044D01*
G75*
G02X80970Y170538I-1615J1281*
G01*
X31703*
G75*
G02X30431Y171066I-4J1786*
G01*
X16103Y185506*
X12556*
Y188051*
X8494*
Y155226*
X10619*
G75*
G02X19569I4475J-1051*
G01*
X21000*
G75*
G02X29187I4094J-1051*
G01*
X83611*
G37*
X48489Y188051D02*
G36*
X45353D01*
Y185254*
X39262*
Y188051*
X18646*
Y188019*
X32445Y174113*
X80970*
G75*
G02X83611Y173606I1026J-1788*
G01*
Y175063*
X52293*
G75*
G02X50663Y176693J1630*
G01*
Y185878*
X48489Y188051*
G37*
X87106Y155226D02*
G36*
Y179513D01*
X78567Y188051*
X69939*
Y185506*
X63849*
Y188051*
X53100*
X53444Y187707*
G75*
G02X53923Y186553I-1150J-1154*
G01*
Y186553*
Y178323*
X85241*
G75*
G02X86871Y176693J-1630*
G01*
Y155226*
X87106*
G37*
X100085D02*
G36*
Y177890D01*
X92595Y185380*
X88809*
Y188051*
X83177*
X89887Y181342*
G75*
G02X90365Y180188I-1150J-1154*
G01*
Y180188*
Y155226*
X100085*
G37*
X105826Y188051D02*
G36*
X94900D01*
Y187685*
X102866Y179719*
G75*
G02X103345Y178566I-1150J-1154*
G01*
Y178565*
Y155226*
X105826*
Y188051*
G37*
X113896D02*
G36*
X109086D01*
Y155226*
X115154*
Y185506*
X113896*
Y188051*
G37*
X126635D02*
G36*
X119987D01*
Y185506*
X118728*
Y155226*
X126635*
Y188051*
G37*
X175466D02*
G36*
X175163D01*
G75*
G02Y188050I-2654J0*
G01*
G75*
G02X171841Y186420I-2061*
G01*
X168786*
Y185006*
X162695*
Y188051*
X155887*
Y155226*
X163931*
X175466Y166760*
Y188051*
G37*
X149133D02*
G36*
X144447D01*
Y185006*
X138357*
Y188051*
X130210*
Y155226*
X149133*
Y188051*
G37*
X152627D02*
G36*
X152393D01*
Y155226*
X152627*
Y188051*
G37*
X193120D02*
G36*
Y185006D01*
X187030*
Y188051*
X178726*
Y166085*
Y166085*
G75*
G02X178247Y164931I-1629*
G01*
X168542Y155226*
X196792*
Y188051*
X193120*
G37*
X5235Y196424D02*
G36*
X3804D01*
Y188051*
X5235*
Y196424*
G37*
X39262Y188051D02*
G36*
Y191344D01*
X45196*
X43259Y193281*
G75*
G02X39263Y196174I-951J2893*
G01*
G75*
G02X39274Y196424I3046*
G01*
X18646*
G75*
G02X12556I-3045*
G01*
X8494*
Y188051*
X12556*
Y191596*
X18646*
Y188051*
X39262*
G37*
X78567D02*
G36*
X71824Y194794D01*
X69467*
G75*
G02X63850Y196424I-2572J1630*
G01*
X45344*
G75*
G02X45354Y196174I-3035J-250*
G01*
G75*
G02Y196171I-2958J-2*
G01*
G75*
G02X45333Y195818I-2998*
G01*
X53100Y188051*
X63849*
Y191596*
X69939*
Y188051*
X78567*
G37*
X48489D02*
G36*
X45353Y191188D01*
Y188051*
X48489*
G37*
X105826D02*
G36*
Y192224D01*
X103381Y194669*
X94428*
G75*
G02X88810Y196299I-2572J1630*
G01*
G75*
G02X88813Y196424I3049J5*
G01*
X74805*
X83177Y188051*
X88809*
Y191470*
X94900*
Y188051*
X105826*
G37*
X126635D02*
G36*
Y191928D01*
X123927Y194636*
X119406*
G75*
G02X113896Y196424I-2465J1787*
G01*
X106237*
X108607Y194054*
G75*
G02X109086Y192900I-1150J-1154*
G01*
Y192900*
Y188051*
X113896*
Y191596*
X119987*
Y188051*
X126635*
G37*
X177798Y196424D02*
G36*
X168743D01*
G75*
G02X168784Y195924I-3005J-500*
G01*
G75*
G02X163167Y194294I-3045*
G01*
X158064*
X155887Y192118*
Y188051*
X162695*
Y191096*
X168786*
Y189680*
X171841*
G75*
G02X175163Y188051I1261J-1630*
G01*
X175466*
Y193417*
Y193417*
G75*
G02X175945Y194571I1629*
G01*
X177798Y196424*
G37*
X149133Y188051D02*
G36*
Y188873D01*
X143868Y194137*
G75*
G02X138357Y195924I-2466J1787*
G01*
G75*
G02X138398Y196424I3046J-1*
G01*
X127195*
X129687Y193932*
G75*
G02X130210Y192668I-1265J-1265*
G01*
Y192667*
Y192665*
Y188051*
X138357*
Y191096*
X144447*
Y188051*
X149133*
G37*
X155583Y196424D02*
G36*
X146192D01*
X151914Y190702*
G75*
G02X152393Y189548I-1150J-1154*
G01*
Y189548*
Y188051*
X152627*
Y192793*
Y192793*
G75*
G02X153106Y193947I1629*
G01*
X155583Y196424*
G37*
X193080D02*
G36*
G75*
G02X193121Y195924I-3005J-500D01*
G01*
G75*
G02X187503Y194294I-3045*
G01*
X180279*
X178726Y192742*
Y188051*
X187030*
Y191096*
X193120*
Y188051*
X196792*
Y196424*
X193080*
G37*
X5235Y203798D02*
G36*
X3804D01*
Y196424*
X5235*
Y203798*
G37*
X193080Y196424D02*
G36*
X196792D01*
Y203798*
X193491*
G75*
G02X186660I-3415*
G01*
X169154*
G75*
G02X162324I-3415*
G01*
X144818*
G75*
G02X137987I-3415*
G01*
X120320*
G75*
G02X113562I-3379J499*
G01*
X95250*
G75*
G02X88461I-3395J374*
G01*
X70274*
G75*
G02X63516I-3379J499*
G01*
X45715*
G75*
G02X38902I-3406J250*
G01*
X18980*
G75*
G02X12222I-3379J499*
G01*
X8494*
Y196424*
X12556*
G75*
G02X18646I3045*
G01*
X39274*
G75*
G02X45344I3035J-250*
G01*
X63850*
G75*
G02X69467Y198054I3045*
G01*
X72500*
G75*
G02X73654Y197575I0J-1629*
G01*
X74805Y196424*
X88813*
G75*
G02X94428Y197929I3043J-125*
G01*
X104057*
G75*
G02X105211Y197450I0J-1629*
G01*
X106237Y196424*
X113896*
G75*
G02X119406Y198211I3045*
G01*
X124664*
G75*
G02X125931Y197687I4J-1786*
G01*
X127195Y196424*
X138398*
G75*
G02X143975Y197554I3004J-499*
G01*
X144386*
G75*
G02X145540Y197076I0J-1629*
G01*
X146192Y196424*
X155583*
X156235Y197076*
G75*
G02X157389Y197554I1154J-1150*
G01*
X163167*
G75*
G02X168743Y196424I2572J-1630*
G01*
X177798*
X178450Y197076*
G75*
G02X179604Y197554I1154J-1150*
G01*
X187503*
G75*
G02X193080Y196424I2572J-1630*
G01*
G37*
X179873Y247815D02*
G36*
X20722D01*
G75*
G02X28540Y235967I-5070J-11848*
G01*
G75*
G02X15652Y223079I-12888*
G01*
G75*
G02X3804Y230896I1J12889*
G01*
Y203798*
X5235*
Y205024*
Y205024*
G75*
G02X5713Y206178I1629*
G01*
X20812Y221276*
G75*
G02X21966Y221755I1154J-1150*
G01*
X108316*
G75*
G02X111639Y220125I1261J-1630*
G01*
G75*
G02X108316Y218495I-2061*
G01*
X22641*
X8494Y204348*
Y203798*
X12222*
G75*
G02X12185Y204298I3379J499*
G01*
G75*
G02X19016I3415*
G01*
G75*
G02X18980Y203798I-3416J0*
G01*
X38902*
G75*
G02X38893Y204048I3406J248*
G01*
G75*
G02X45724I3415*
G01*
G75*
G02X45715Y203798I-3415J-1*
G01*
X63516*
G75*
G02X63480Y204298I3379J499*
G01*
G75*
G02X70310I3415*
G01*
G75*
G02X70274Y203798I-3416J0*
G01*
X88461*
G75*
G02X88440Y204173I3395J373*
G01*
G75*
G02X95271I3415*
G01*
G75*
G02X95250Y203798I-3416J-1*
G01*
X113562*
G75*
G02X113526Y204298I3379J499*
G01*
G75*
G02X120356I3415*
G01*
G75*
G02X120320Y203798I-3416J0*
G01*
X137987*
G75*
G02X144818I3415*
G01*
X162324*
G75*
G02X169154I3415*
G01*
X186660*
G75*
G02X193491I3415*
G01*
X196792*
Y230896*
G75*
G02X172056Y235967I-11848J5070*
G01*
G75*
G02X179873Y247815I12889J-1*
G01*
G37*
X393892Y231526D02*
G75*
G02X368906Y235967I-12098J4441D01*
G01*
G75*
G02X377353Y248065I12888J0*
G01*
X216943*
G75*
G02X212502Y223079I-4441J-12098*
G01*
G75*
G02X200404Y231526I0J12888*
G01*
Y40407*
G75*
G02X225390Y35967I12098J-4441*
G01*
G75*
G02X216943Y23868I-12888J0*
G01*
X377353*
G75*
G02X381794Y48854I4441J12098*
G01*
G75*
G02X393892Y40407I0J-12888*
G01*
Y92749*
G75*
G02X393818Y92670I-1228J1074*
G01*
X359625Y58477*
G75*
G02X358471Y57998I-1154J1151*
G01*
X300276*
X295435Y53157*
G75*
G02X294993Y48816I-3822J-1804*
G01*
Y43891*
G75*
G02X295840Y41353I-3380J-2537*
G01*
G75*
G02X287387I-4226*
G01*
G75*
G02X288233Y43891I4226*
G01*
Y48816*
G75*
G02X287499Y50385I3380J2538*
G01*
X266459*
Y49167*
X262140*
Y50414*
G75*
G02X254999Y52015I-3391J1601*
G01*
G75*
G02X262140Y53616I3750*
G01*
Y54864*
X262513*
Y56935*
X261211*
Y61254*
X267105*
Y56935*
X266088*
Y54864*
X266459*
Y53645*
X288062*
G75*
G02X293010Y55342I3551J-2292*
G01*
X298447Y60779*
G75*
G02X299601Y61258I1154J-1151*
G01*
X357796*
X391037Y94499*
Y98515*
X383006Y106546*
X349744*
G75*
G02X346422Y108176I-1261J1630*
G01*
G75*
G02X349744Y109806I2061*
G01*
X383681*
G75*
G02X384835Y109328J-1630*
G01*
X393818Y100344*
G75*
G02X393892Y100265I-1154J-1154*
G01*
Y231526*
X383511Y203798D02*
G75*
G02X390341I3415D01*
G01*
G75*
G02X383511I-3415*
G01*
X384354Y197554D02*
G75*
G02X389971Y195924I2572J-1630D01*
G01*
G75*
G02X384354Y194294I-3045*
G01*
X377129*
X375576Y192742*
Y166085*
G75*
G02X375098Y164931I-1630*
G01*
X323449Y113282*
G75*
G02X319343Y113543I-2044J261*
G01*
G75*
G02X320254Y115253I2061J0*
G01*
G75*
G02X319508Y118552I776J1909*
G01*
G75*
G02X320647Y122454I898J1855*
G01*
X345983Y147790*
Y188873*
X340719Y194137*
G75*
G02X335207Y195924I-2466J1787*
G01*
G75*
G02X340825Y197554I3045*
G01*
X341237*
G75*
G02X342391Y197076J-1630*
G01*
X348764Y190702*
G75*
G02X349243Y189548I-1151J-1154*
G01*
Y147431*
X349478Y147665*
Y192793*
G75*
G02X349956Y193947I1630*
G01*
X353085Y197076*
G75*
G02X354239Y197554I1154J-1151*
G01*
X360017*
G75*
G02X365635Y195924I2572J-1630*
G01*
G75*
G02X360017Y194294I-3045*
G01*
X354914*
X352737Y192118*
Y147181*
X372317Y166760*
Y193417*
G75*
G02X372795Y194571I1630*
G01*
X375300Y197076*
G75*
G02X376454Y197554I1154J-1151*
G01*
X384354*
X383880Y191096D02*
X389971D01*
Y185006*
X383880*
Y191096*
X368691Y189680D02*
G75*
G02X372014Y188050I1261J-1630D01*
G01*
G75*
G02X368691Y186420I-2061*
G01*
X365636*
Y185006*
X359546*
Y191096*
X365636*
Y189680*
X368691*
X310376Y204298D02*
G75*
G02X317207I3415D01*
G01*
G75*
G02X310376I-3415*
G01*
X327061Y192668D02*
G75*
G02Y192667I-635J0D01*
G01*
G75*
G02Y192665I-641J-1*
G01*
Y150485*
G75*
G02X326531Y149214I-1787J0*
G01*
X312084Y134888*
Y114807*
G75*
G02X308557Y112676I-1787J-1026*
G01*
Y110922*
G75*
G02X306927Y109292I-1630*
G01*
X305568*
G75*
G02X302245Y110922I-1261J1630*
G01*
G75*
G02X305297Y112729I2061*
G01*
Y131382*
X298565*
G75*
G02X296935Y133012J1630*
G01*
Y177890*
X289446Y185380*
X285660*
Y191470*
X291750*
Y187685*
X299717Y179719*
G75*
G02X300195Y178565I-1151J-1154*
G01*
Y134642*
X306927*
G75*
G02X308509Y133404J-1630*
G01*
Y135633*
G75*
G02X309039Y136904I1787J0*
G01*
X323486Y151230*
Y191928*
X320777Y194636*
X316257*
G75*
G02X310746Y196424I-2465J1787*
G01*
G75*
G02X316257Y198211I3045*
G01*
X321515*
G75*
G02X322781Y197687I3J-1787*
G01*
X326537Y193932*
G75*
G02X327061Y192668I-1264J-1264*
G01*
X377802Y97576D02*
G75*
G02X381124Y95946I1261J-1630D01*
G01*
G75*
G02X377802Y94316I-2061*
G01*
X370831*
G75*
G02X371058Y90711I-878J-1865*
G01*
X372560*
G75*
G02X375883Y89081I1261J-1630*
G01*
G75*
G02X372560Y87452I-2061*
G01*
X335054*
G75*
G02X335140Y84825I-1544J-1365*
G01*
Y73731*
G75*
G02X333510Y72101I-1630*
G01*
X266335*
Y70884*
X265944*
Y68813*
X267105*
Y64494*
X261211*
Y68813*
X262370*
Y70884*
X262016*
Y72131*
G75*
G02X254874Y73731I-3392J1600*
G01*
G75*
G02X262016Y75330I3750*
G01*
Y76581*
X262388*
Y77559*
X236655*
X232210Y73115*
Y72607*
G75*
G02X231683Y71340I-1787J0*
G01*
X225920Y65608*
G75*
G02X218044Y62545I-3976J-1433*
G01*
X215844*
G75*
G02X207718Y64175I-3900J1630*
G01*
G75*
G02X215844Y65805I4226*
G01*
X218044*
G75*
G02X223399Y68143I3900J-1630*
G01*
X228635Y73351*
Y73856*
G75*
G02X229161Y75122I1787*
G01*
X234648Y80609*
G75*
G02X235914Y81134I1266J-1262*
G01*
X264176*
G75*
G02X265963Y79347J-1787*
G01*
Y76581*
X266335*
Y75361*
X331880*
Y84825*
G75*
G02X331967Y87452I1630J1261*
G01*
X296101*
G75*
G02X292778Y89081I-1261J1630*
G01*
G75*
G02X296101Y90711I2061*
G01*
X297086*
G75*
G02X296130Y92451I1105J1740*
G01*
G75*
G02X299452Y94081I2061*
G01*
X300308*
G75*
G02X299125Y95946I878J1865*
G01*
G75*
G02X302448Y97576I2061*
G01*
X313877*
G75*
G02X312354Y99565I539J1989*
G01*
G75*
G02Y99571I2141J3*
G01*
X309497Y102427*
X294589*
G75*
G02X292959Y104057J1630*
G01*
Y130379*
G75*
G02X292529Y131639I1631J1260*
G01*
G75*
G02X296651I2061*
G01*
G75*
G02X296219Y130377I-2061*
G01*
Y105687*
X310172*
G75*
G02X311326Y105208I0J-1630*
G01*
X314991Y101544*
G75*
G02X314954Y97576I-576J-1979*
G01*
X377802*
X269502Y65404D02*
X276136D01*
Y60344*
X269502*
Y65404*
X310746Y191596D02*
X316837D01*
Y185506*
X315579*
Y152731*
G75*
G02X315067Y151480I-1787*
G01*
X309456Y145758*
G75*
G02X305936Y144693I-2030J358*
G01*
Y144383*
G75*
G02X306367Y143121I-1630J-1261*
G01*
G75*
G02X302245I-2061*
G01*
G75*
G02X302676Y144383I2061*
G01*
Y192224*
X300232Y194669*
X291278*
G75*
G02X285661Y196299I-2572J1630*
G01*
G75*
G02X291278Y197929I3045*
G01*
X300907*
G75*
G02X302061Y197450J-1630*
G01*
X305457Y194054*
G75*
G02X305936Y192900I-1151J-1154*
G01*
Y147540*
G75*
G02X306687Y148041I1491J-1424*
G01*
X312004Y153461*
Y185506*
X310746*
Y191596*
X334837Y203798D02*
G75*
G02X341668I3415D01*
G01*
G75*
G02X334837I-3415*
G01*
X335207Y191096D02*
X341298D01*
Y185006*
X335207*
Y191096*
X359174Y203798D02*
G75*
G02X366005I3415D01*
G01*
G75*
G02X359174I-3415*
G01*
X305167Y221755D02*
G75*
G02X308489Y220125I1261J-1630D01*
G01*
G75*
G02X305167Y218495I-2061*
G01*
X219491*
X205345Y204348*
Y92837*
X210171Y88011*
G75*
G02X216170Y84175I1773J-3837*
G01*
G75*
G02X207718I-4226*
G01*
G75*
G02X207967Y85605I4227J0*
G01*
X202564Y91008*
G75*
G02X202085Y92162I1151J1154*
G01*
Y205024*
G75*
G02X202564Y206178I1630*
G01*
X217662Y221276*
G75*
G02X218816Y221755I1154J-1151*
G01*
X305167*
X235744Y204048D02*
G75*
G02X242574I3415D01*
G01*
G75*
G02X235744I-3415*
G01*
X287216Y105444D02*
G75*
G02X287647Y104183I-1630J-1261D01*
G01*
G75*
G02X283525I-2061*
G01*
G75*
G02X283956Y105444I2061*
G01*
Y115298*
G75*
G02X281472Y115548I-1077J1758*
G01*
G75*
G02X280461Y117056I619J1508*
G01*
Y171044*
G75*
G02X277820Y170538I-1615J1281*
G01*
X228554*
G75*
G02X227282Y171066I-3J1787*
G01*
X212954Y185506*
X209406*
Y191596*
X215496*
Y188019*
X229295Y174113*
X277820*
G75*
G02X280461Y173606I1026J-1787*
G01*
Y175063*
X249143*
G75*
G02X247513Y176693J1630*
G01*
Y185878*
X242203Y191188*
Y185254*
X236113*
Y191344*
X242046*
X240110Y193281*
G75*
G02X236114Y196174I-951J2893*
G01*
G75*
G02X242204I3045*
G01*
G75*
G02X242183Y195818I-3045J0*
G01*
X250294Y187707*
G75*
G02X250773Y186553I-1151J-1154*
G01*
Y178323*
X282091*
G75*
G02X283721Y176693J-1630*
G01*
Y118937*
G75*
G02X283956Y118813I-844J-1882*
G01*
Y179513*
X268675Y194794*
X266318*
G75*
G02X260700Y196424I-2572J1630*
G01*
G75*
G02X266318Y198054I3045*
G01*
X269350*
G75*
G02X270504Y197575J-1630*
G01*
X286737Y181342*
G75*
G02X287216Y180188I-1151J-1154*
G01*
Y105444*
X261310Y141495D02*
G75*
G02X265432I2061D01*
G01*
G75*
G02X265001Y140233I-2061*
G01*
Y120296*
G75*
G02X265432Y119034I-1630J-1261*
G01*
G75*
G02X261310I-2061*
G01*
G75*
G02X261741Y120296I2061*
G01*
Y140233*
G75*
G02X261310Y141495I1630J1261*
G01*
X281617Y87966D02*
G75*
G02X284940Y86336I1261J-1630D01*
G01*
G75*
G02X281617Y84706I-2061*
G01*
X237588*
X231473Y78591*
G75*
G02X229924Y77467I-1550J506*
G01*
X225152*
G75*
G02X221944Y69578I-3207J-3293*
G01*
G75*
G02X218737Y77467J4596*
G01*
X217362*
X215800Y75906*
G75*
G02X211944Y69948I-3856J-1731*
G01*
G75*
G02Y78401J4226*
G01*
G75*
G02X213420Y78135I0J-4227*
G01*
X215533Y80248*
G75*
G02X216687Y80727I1154J-1151*
G01*
X219500*
G75*
G02X221944Y88401I2444J3448*
G01*
G75*
G02X224389Y80727J-4226*
G01*
X228999*
X235759Y87487*
G75*
G02X236913Y87966I1154J-1151*
G01*
X281617*
X217718Y94175D02*
G75*
G02X226170I4226D01*
G01*
G75*
G02X217718I-4226*
G01*
Y104175D02*
G75*
G02X226170I4226D01*
G01*
G75*
G02X217718I-4226*
G01*
Y114175D02*
G75*
G02X226170I4226D01*
G01*
G75*
G02X217718I-4226*
G01*
Y124175D02*
G75*
G02X226170I4226D01*
G01*
G75*
G02X217718I-4226*
G01*
X257368Y126100D02*
G75*
G02X260689Y124470I1260J-1631D01*
G01*
G75*
G02X257366Y122841I-2061*
G01*
X238965*
G75*
G02X237811Y123319J1630*
G01*
X228584Y132545*
X225844*
G75*
G02X217718Y134175I-3900J1630*
G01*
G75*
G02X225843Y135805I4226*
G01*
X229424*
G75*
G02X230922Y134818J-1630*
G01*
X239641Y126100*
X257368*
X306165Y101320D02*
G75*
G02X309487Y99690I1261J-1630D01*
G01*
G75*
G02X306165Y98060I-2061*
G01*
X250405*
G75*
G02X247082Y99690I-1261J1630*
G01*
G75*
G02X250405Y101320I2061*
G01*
X306165*
X290428Y94456D02*
G75*
G02X293751Y92826I1261J-1630D01*
G01*
G75*
G02X290428Y91196I-2061*
G01*
X248644*
G75*
G02X247490Y91674J1630*
G01*
X230412Y108753*
G75*
G02X228611Y110797I261J2044*
G01*
G75*
G02X232717Y111058I2061*
G01*
X249319Y94456*
X290428*
X217718Y144175D02*
G75*
G02X226170I4226D01*
G01*
G75*
G02X217718I-4226*
G01*
Y154175D02*
G75*
G02X226170I4226D01*
G01*
G75*
G02X217718I-4226*
G01*
X260330Y204298D02*
G75*
G02X267161I3415D01*
G01*
G75*
G02X260330I-3415*
G01*
X260699Y191596D02*
X266790D01*
Y185506*
X260699*
Y191596*
X285291Y204173D02*
G75*
G02X292121I3415D01*
G01*
G75*
G02X285291I-3415*
G01*
X207348Y94175D02*
G75*
G02X216541I4596D01*
G01*
G75*
G02X207348I-4596*
G01*
Y104175D02*
G75*
G02X216541I4596D01*
G01*
G75*
G02X207348I-4596*
G01*
Y114175D02*
G75*
G02X216541I4596D01*
G01*
G75*
G02X207348I-4596*
G01*
Y124175D02*
G75*
G02X216541I4596D01*
G01*
G75*
G02X207348I-4596*
G01*
Y144175D02*
G75*
G02X216541I4596D01*
G01*
G75*
G02X207348I-4596*
G01*
X207718Y134175D02*
G75*
G02X216170I4226D01*
G01*
G75*
G02X207718I-4226*
G01*
X207348Y154175D02*
G75*
G02X216541I4596D01*
G01*
G75*
G02X207348I-4596*
G01*
X209036Y204298D02*
G75*
G02X215867I3415D01*
G01*
G75*
G02X209036I-3415*
G01*
X209406Y196424D02*
G75*
G02X215496I3045D01*
G01*
G75*
G02X209406I-3045*
G01*
X307387Y41353D02*
G75*
G02X315840I4226D01*
G01*
G75*
G02X307387I-4226*
G01*
Y51353D02*
G75*
G02X315840I4226D01*
G01*
G75*
G02X307387I-4226*
G01*
X317387Y41353D02*
G75*
G02X325840I4226D01*
G01*
G75*
G02X317387I-4226*
G01*
Y51353D02*
G75*
G02X325840I4226D01*
G01*
G75*
G02X317387I-4226*
G01*
X327387Y41353D02*
G75*
G02X335840I4226D01*
G01*
G75*
G02X327387I-4226*
G01*
Y51353D02*
G75*
G02X335840I4226D01*
G01*
G75*
G02X327387I-4226*
G01*
X297017Y41353D02*
G75*
G02X306210I4596D01*
G01*
G75*
G02X297017I-4596*
G01*
Y51353D02*
G75*
G02X306210I4596D01*
G01*
G75*
G02X297017I-4596*
G01*
X200794Y41353D02*
G36*
X200654D01*
Y41037*
G75*
G02X200794Y41353I11847J-5078*
G01*
G37*
X376723Y24118D02*
G36*
G75*
G02X368906Y35967I5070J11848D01*
G01*
G75*
G02X370085Y41353I12888J0*
G01*
X335840*
G75*
G02X327387I-4226*
G01*
X325840*
G75*
G02X317387I-4226*
G01*
X315840*
G75*
G02X307387I-4226*
G01*
X306210*
G75*
G02X297017I-4596*
G01*
X295840*
G75*
G02X287387I-4226*
G01*
X224211*
G75*
G02X225390Y35967I-11709J-5386*
G01*
G75*
G02X217573Y24118I-12889J1*
G01*
X376723*
G37*
X393642Y41037D02*
G36*
Y41353D01*
X393502*
G75*
G02X393642Y41037I-11706J-5394*
G01*
G37*
X255058Y51353D02*
G36*
X200654D01*
Y41353*
X200794*
G75*
G02X224211I11708J-5387*
G01*
X287387*
G75*
G02X288233Y43891I4229J-1*
G01*
Y48816*
G75*
G02X287499Y50385I3376J2536*
G01*
X266459*
Y49167*
X262140*
Y50414*
G75*
G02X255058Y51353I-3391J1601*
G01*
G37*
X393502Y41353D02*
G36*
X393642D01*
Y51353*
X335840*
G75*
G02X327387I-4226*
G01*
X325840*
G75*
G02X317387I-4226*
G01*
X315840*
G75*
G02X307387I-4226*
G01*
X306210*
G75*
G02X297017I-4596*
G01*
X295840*
G75*
G02X294993Y48816I-4226*
G01*
Y43891*
G75*
G02X295840Y41353I-3382J-2538*
G01*
X297017*
G75*
G02X306210I4596*
G01*
X307387*
G75*
G02X315840I4226*
G01*
X317387*
G75*
G02X325840I4226*
G01*
X327387*
G75*
G02X335840I4226*
G01*
X370085*
G75*
G02X381794Y48854I11708J-5387*
G01*
G75*
G02X393502Y41353I-1J-12889*
G01*
G37*
X359412Y62874D02*
G36*
X276136D01*
Y60344*
X269502*
Y62874*
X225965*
G75*
G02X218044Y62545I-4021J1301*
G01*
X215844*
G75*
G02X207923Y62874I-3900J1630*
G01*
X200654*
Y51353*
X255058*
G75*
G02X254999Y52015I3691J663*
G01*
G75*
G02X262140Y53616I3750*
G01*
Y54864*
X262513*
Y56935*
X261211*
Y61254*
X267105*
Y56935*
X266088*
Y54864*
X266459*
Y53645*
X288062*
G75*
G02X293010Y55342I3551J-2292*
G01*
X298447Y60779*
G75*
G02X299601Y61258I1154J-1150*
G01*
X357796*
X359412Y62874*
G37*
X364022D02*
G36*
X359625Y58477D01*
G75*
G02X358471Y57998I-1154J1150*
G01*
X300276*
X295435Y53157*
G75*
G02X295840Y51353I-3823J-1804*
G01*
X297017*
G75*
G02X306210I4596*
G01*
X307387*
G75*
G02X315840I4226*
G01*
X317387*
G75*
G02X325840I4226*
G01*
X327387*
G75*
G02X335840I4226*
G01*
X393642*
Y62874*
X364022*
G37*
X233029Y78990D02*
G36*
X231871D01*
X231473Y78591*
G75*
G02X229924Y77467I-1549J506*
G01*
X225152*
G75*
G02X226541Y74175I-3208J-3293*
G01*
G75*
G02X221944Y69578I-4596*
G01*
G75*
G02X217348Y74175J4596*
G01*
G75*
G02X218737Y77467I4597*
G01*
X217362*
X215800Y75906*
G75*
G02X216170Y74175I-3856J-1730*
G01*
G75*
G02X211944Y69948I-4226*
G01*
G75*
G02X207718Y74175J4226*
G01*
G75*
G02X211944Y78401I4226*
G01*
G75*
G02X213420Y78135I0J-4228*
G01*
X214274Y78990*
X200654*
Y62874*
X207923*
G75*
G02X207718Y64174I4021J1301*
G01*
Y64175*
Y64175*
G75*
G02X215844Y65805I4226*
G01*
X218044*
G75*
G02X223399Y68143I3900J-1630*
G01*
X228635Y73351*
Y73856*
G75*
G02X229161Y75122I1788*
G01*
X233029Y78990*
G37*
X375528D02*
G36*
X335140D01*
Y73731*
G75*
G02X333510Y72101I-1630*
G01*
X266335*
Y70884*
X265944*
Y68813*
X267105*
Y64494*
X261211*
Y68813*
X262370*
Y70884*
X262016*
Y72131*
G75*
G02X254874Y73731I-3392J1600*
G01*
G75*
G02X262016Y75330I3750*
G01*
Y76581*
X262388*
Y77559*
X236655*
X232210Y73115*
Y72607*
G75*
G02X231683Y71340I-1789J0*
G01*
X225920Y65608*
G75*
G02X226170Y64175I-3976J-1433*
G01*
G75*
G02X225965Y62874I-4227*
G01*
X269502*
Y65404*
X276136*
Y62874*
X359412*
X375528Y78990*
G37*
X331880D02*
G36*
X265963D01*
Y76581*
X266335*
Y75361*
X331880*
Y78990*
G37*
X380138D02*
G36*
X364022Y62874D01*
X393642*
Y78990*
X380138*
G37*
X299322Y96824D02*
G36*
X246950D01*
X249319Y94456*
X290428*
G75*
G02X293751Y92826I1261J-1630*
G01*
G75*
G02X290428Y91196I-2061*
G01*
X248644*
G75*
G02X247490Y91674I0J1629*
G01*
X242340Y96824*
X225237*
G75*
G02X226170Y94175I-3293J-2650*
G01*
G75*
G02X217718I-4226*
G01*
G75*
G02X218652Y96824I4226J0*
G01*
X215700*
G75*
G02X216541Y94175I-3756J-2650*
G01*
G75*
G02X207348I-4596*
G01*
G75*
G02X208188Y96824I4596*
G01*
X205345*
Y92837*
X210171Y88011*
G75*
G02X216170Y84175I1773J-3837*
G01*
G75*
G02X207718I-4226*
G01*
G75*
G02Y84177I4177J1*
G01*
G75*
G02X207967Y85605I4218*
G01*
X202564Y91008*
G75*
G02X202085Y92162I1150J1154*
G01*
Y92162*
Y96824*
X200654*
Y78990*
X214274*
X215533Y80248*
G75*
G02X216687Y80727I1154J-1150*
G01*
X219500*
G75*
G02X217718Y84175I2444J3448*
G01*
G75*
G02X221944Y88401I4226*
G01*
G75*
G02X226170Y84175J-4226*
G01*
G75*
G02X224389Y80727I-4226*
G01*
X228999*
X235759Y87487*
G75*
G02X236913Y87966I1154J-1150*
G01*
X281617*
G75*
G02X284940Y86336I1261J-1630*
G01*
G75*
G02X281617Y84706I-2061*
G01*
X237588*
X231871Y78990*
X233029*
X234648Y80609*
G75*
G02X235914Y81134I1266J-1262*
G01*
X264176*
G75*
G02X265963Y79347J-1787*
G01*
Y78990*
X331880*
Y84825*
G75*
G02X331449Y86086I1630J1261*
G01*
G75*
G02X331967Y87452I2061*
G01*
X296101*
G75*
G02X292778Y89081I-1261J1630*
G01*
G75*
G02X296101Y90711I2061*
G01*
X297086*
G75*
G02X296130Y92451I1106J1740*
G01*
G75*
G02X299452Y94081I2061*
G01*
X300308*
G75*
G02X299125Y95945I878J1864*
G01*
Y95946*
G75*
G02X299322Y96824I2061J0*
G01*
G37*
X391037D02*
G36*
X380928D01*
G75*
G02X381124Y95946I-1865J-879*
G01*
G75*
G02X377802Y94316I-2061*
G01*
X370831*
G75*
G02X372014Y92451I-878J-1865*
G01*
G75*
G02X371058Y90711I-2061*
G01*
X372560*
G75*
G02X375883Y89081I1261J-1630*
G01*
G75*
G02X372560Y87452I-2061*
G01*
X335054*
G75*
G02X335571Y86086I-1545J-1365*
G01*
G75*
G02X335140Y84825I-2061*
G01*
Y78990*
X375528*
X391037Y94499*
Y96824*
G37*
X393642Y92494D02*
G36*
X380138Y78990D01*
X393642*
Y92494*
G37*
X202085Y99690D02*
G36*
X200654D01*
Y96824*
X202085*
Y99690*
G37*
X242340Y96824D02*
G36*
X239475Y99690D01*
X212950*
G75*
G02X210938I-1006J4485*
G01*
X205345*
Y96824*
X208188*
G75*
G02X215700I3756J-2650*
G01*
X218652*
G75*
G02X225237I3293J-2650*
G01*
X242340*
G37*
X299322D02*
G36*
G75*
G02X302448Y97576I1864J-878D01*
G01*
X313877*
G75*
G02X312354Y99565I539J1990*
G01*
Y99571*
X312235Y99690*
X309487*
G75*
G02X306165Y98060I-2061*
G01*
X250405*
G75*
G02X247082Y99690I-1261J1630*
G01*
X244085*
X246950Y96824*
X299322*
G37*
X380928D02*
G36*
X391037D01*
Y98515*
X389863Y99690*
X316472*
G75*
G02X316476Y99565I-2057J-121*
G01*
G75*
G02X314954Y97576I-2061*
G01*
X377802*
G75*
G02X380928Y96824I1261J-1630*
G01*
G37*
X202085Y104175D02*
G36*
X200654D01*
Y99690*
X202085*
Y104175*
G37*
X207348D02*
G36*
X205345D01*
Y99690*
X210938*
G75*
G02X207348Y104175I1006J4485*
G01*
G37*
X239475Y99690D02*
G36*
X234990Y104175D01*
X226170*
G75*
G02X217718I-4226*
G01*
X216541*
G75*
G02X212950Y99690I-4596*
G01*
X239475*
G37*
X312235D02*
G36*
X309497Y102427D01*
X294589*
G75*
G02X292959Y104057J1630*
G01*
Y104175*
X287647*
G75*
G02X283525I-2061J8*
G01*
X239600*
X244085Y99690*
X247082*
G75*
G02X250405Y101320I2061*
G01*
X306165*
G75*
G02X309487Y99690I1261J-1630*
G01*
X312235*
G37*
X389863D02*
G36*
X385378Y104175D01*
X312359*
X314991Y101544*
G75*
G02X316472Y99690I-576J-1979*
G01*
X389863*
G37*
X393642Y100520D02*
G36*
Y104175D01*
X389988*
X393642Y100520*
G37*
X202085Y114175D02*
G36*
X200654D01*
Y104175*
X202085*
Y114175*
G37*
X283525Y104175D02*
G36*
G75*
G02Y104183I2069J4D01*
G01*
G75*
G02X283956Y105444I2059J1*
G01*
Y114175*
X226170*
G75*
G02X217718I-4226*
G01*
X216541*
G75*
G02X207348I-4596*
G01*
X205345*
Y104175*
X207348*
G75*
G02X216541I4596*
G01*
X217718*
G75*
G02X226170I4226*
G01*
X234990*
X230412Y108753*
G75*
G02X228611Y110797I260J2044*
G01*
Y110797*
Y110798*
G75*
G02X232717Y111058I2061*
G01*
X239600Y104175*
X283525*
G37*
X292959D02*
G36*
Y114175D01*
X287216*
Y105444*
G75*
G02X287647Y104183I-1628J-1261*
G01*
G75*
G02Y104175I-2069J-5*
G01*
X292959*
G37*
X389988D02*
G36*
X393642D01*
Y114175*
X324341*
X323449Y113282*
G75*
G02X319343Y113543I-2044J260*
G01*
Y113543*
Y113543*
G75*
G02X319443Y114175I2059*
G01*
X312320*
G75*
G02X312358Y113781I-2022J-395*
G01*
G75*
G02X308557Y112676I-2061*
G01*
Y110922*
G75*
G02X306927Y109292I-1630*
G01*
X305568*
G75*
G02X302245Y110922I-1261J1630*
G01*
G75*
G02X305297Y112729I2061J0*
G01*
Y114175*
X296219*
Y105687*
X310172*
G75*
G02X311326Y105208J-1629*
G01*
X312359Y104175*
X385378*
X383006Y106546*
X349744*
G75*
G02X346422Y108176I-1261J1630*
G01*
G75*
G02X349744Y109806I2061*
G01*
X383681*
G75*
G02X384835Y109328I0J-1629*
G01*
X389988Y104175*
G37*
X202085Y124175D02*
G36*
X200654D01*
Y114175*
X202085*
Y124175*
G37*
X283956Y114175D02*
G36*
Y115298D01*
G75*
G02X281472Y115548I-1077J1759*
G01*
G75*
G02X280461Y117055I618J1507*
G01*
G75*
G02Y117056I1805J0*
G01*
Y124175*
X265001*
Y120296*
G75*
G02X265432Y119035I-1628J-1261*
G01*
G75*
G02Y119034I-2374J0*
G01*
G75*
G02X261310I-2061*
G01*
G75*
G02Y119035I2374J0*
G01*
G75*
G02X261741Y120296I2059*
G01*
Y124175*
X260668*
G75*
G02X257366Y122841I-2040J295*
G01*
X238965*
G75*
G02X237811Y123319I0J1629*
G01*
X236956Y124175*
X226170*
G75*
G02X217718I-4226*
G01*
X216541*
G75*
G02X207348I-4596*
G01*
X205345*
Y114175*
X207348*
G75*
G02X216541I4596*
G01*
X217718*
G75*
G02X226170I4226*
G01*
X283956*
G37*
Y124175D02*
G36*
X283721D01*
Y118937*
G75*
G02X283956Y118813I-855J-1902*
G01*
Y124175*
G37*
X292959D02*
G36*
X287216D01*
Y114175*
X292959*
Y124175*
G37*
X305297Y114175D02*
G36*
Y124175D01*
X296219*
Y114175*
X305297*
G37*
X322368Y124175D02*
G36*
X312084D01*
Y114807*
G75*
G02X312320Y114175I-1788J-1026*
G01*
X319443*
G75*
G02X320254Y115253I1961J-632*
G01*
G75*
G02X318969Y117162I776J1909*
G01*
G75*
G02X319508Y118552I2061*
G01*
G75*
G02X318345Y120407I898J1855*
G01*
G75*
G02X320647Y122454I2061*
G01*
X322368Y124175*
G37*
X334341D02*
G36*
X324341Y114175D01*
X393642*
Y124175*
X334341*
G37*
X202085Y130265D02*
G36*
X200654D01*
Y124175*
X202085*
Y130265*
G37*
X236956Y124175D02*
G36*
X230865Y130265D01*
X223548*
G75*
G02X220340I-1604J3910*
G01*
X213548*
G75*
G02X210340I-1604J3911*
G01*
X205345*
Y124175*
X207348*
G75*
G02X216541I4596*
G01*
X217718*
G75*
G02X226170I4226*
G01*
X236956*
G37*
X280461Y130265D02*
G36*
X265001D01*
Y124175*
X280461*
Y130265*
G37*
X261741D02*
G36*
X235476D01*
X239641Y126100*
X257368*
G75*
G02X260689Y124470I1260J-1631*
G01*
G75*
G02X260668Y124175I-2062J0*
G01*
X261741*
Y130265*
G37*
X283956D02*
G36*
X283721D01*
Y124175*
X283956*
Y130265*
G37*
X292959D02*
G36*
X287216D01*
Y124175*
X292959*
Y130265*
G37*
X305297D02*
G36*
X296219D01*
Y124175*
X305297*
Y130265*
G37*
X328457D02*
G36*
X312084D01*
Y124175*
X322368*
X328457Y130265*
G37*
X340431D02*
G36*
X334341Y124175D01*
X393642*
Y130265*
X340431*
G37*
X202085Y144175D02*
G36*
X200654D01*
Y130265*
X202085*
Y144175*
G37*
X280461D02*
G36*
X226170D01*
G75*
G02X217718I-4226*
G01*
X216541*
G75*
G02X207348I-4596*
G01*
X205345*
Y130265*
X210340*
G75*
G02X207718Y134175I1604J3910*
G01*
G75*
G02X216170I4226*
G01*
G75*
G02X213548Y130265I-4226*
G01*
X220340*
G75*
G02X217718Y134174I1604J3910*
G01*
Y134175*
G75*
G02X225843Y135805I4226*
G01*
X229424*
G75*
G02X230922Y134818I1J-1629*
G01*
X235476Y130265*
X261741*
Y140233*
G75*
G02X261310Y141494I1628J1261*
G01*
G75*
G02Y141495I2374J0*
G01*
G75*
G02X265432I2061*
G01*
G75*
G02Y141494I-2374J0*
G01*
G75*
G02X265001Y140233I-2059*
G01*
Y130265*
X280461*
Y144175*
G37*
X230865Y130265D02*
G36*
X228584Y132545D01*
X225844*
G75*
G02X223548Y130265I-3900J1629*
G01*
X230865*
G37*
X283956Y144175D02*
G36*
X283721D01*
Y130265*
X283956*
Y144175*
G37*
X305297Y130265D02*
G36*
Y131382D01*
X298565*
G75*
G02X296935Y133012J1630*
G01*
Y144175*
X287216*
Y130265*
X292959*
Y130379*
G75*
G02X292529Y131639I1632J1261*
G01*
G75*
G02X296651I2061*
G01*
G75*
G02X296219Y130377I-2062*
G01*
Y130265*
X305297*
G37*
X316372Y144175D02*
G36*
X308117D01*
G75*
G02X306736I-690J1942*
G01*
X306078*
G75*
G02X306367Y143122I-1769J-1052*
G01*
G75*
G02Y143121I-2374J0*
G01*
G75*
G02X302245I-2061*
G01*
G75*
G02Y143122I2374J0*
G01*
G75*
G02X302535Y144175I2059J0*
G01*
X300195*
Y134642*
X306927*
G75*
G02X308509Y133404J-1630*
G01*
Y135633*
G75*
G02X309039Y136904I1789J0*
G01*
X316372Y144175*
G37*
X342368D02*
G36*
X321449D01*
X312084Y134888*
Y130265*
X328457*
X342368Y144175*
G37*
X354341D02*
G36*
X340431Y130265D01*
X393642*
Y144175*
X354341*
G37*
X202085Y155226D02*
G36*
X200654D01*
Y144175*
X202085*
Y155226*
G37*
X280461D02*
G36*
X226038D01*
G75*
G02X226170Y154175I-4094J-1051*
G01*
G75*
G02X217718I-4226*
G01*
G75*
G02X217850Y155226I4226*
G01*
X216419*
G75*
G02X216541Y154175I-4475J-1050*
G01*
G75*
G02X207348I-4596*
G01*
G75*
G02X207469Y155226I4596J0*
G01*
X205345*
Y144175*
X207348*
G75*
G02X216541I4596*
G01*
X217718*
G75*
G02X226170I4226*
G01*
X280461*
Y155226*
G37*
X283956D02*
G36*
X283721D01*
Y144175*
X283956*
Y155226*
G37*
X296935D02*
G36*
X287216D01*
Y144175*
X296935*
Y155226*
G37*
X306736Y144175D02*
G36*
G75*
G02X305936Y144693I691J1942D01*
G01*
Y144383*
G75*
G02X306078Y144175I-1628J-1262*
G01*
X306736*
G37*
X302535D02*
G36*
G75*
G02X302676Y144383I1770J-1054D01*
G01*
Y155226*
X300195*
Y144175*
X302535*
G37*
X312004Y155226D02*
G36*
X305936D01*
Y147540*
G75*
G02X306687Y148041I1494J-1430*
G01*
X312004Y153461*
Y155226*
G37*
X323486D02*
G36*
X315579D01*
Y152731*
Y152731*
G75*
G02X315067Y151480I-1786*
G01*
X309456Y145758*
G75*
G02X308117Y144175I-2030J359*
G01*
X316372*
X323486Y151230*
Y155226*
G37*
X342368Y144175D02*
G36*
X345983Y147790D01*
Y155226*
X327061*
Y150485*
G75*
G02X326531Y149214I-1789J0*
G01*
X321449Y144175*
X342368*
G37*
X349478Y155226D02*
G36*
X349243D01*
Y147431*
X349478Y147665*
Y155226*
G37*
X360782D02*
G36*
X352737D01*
Y147181*
X360782Y155226*
G37*
X365392D02*
G36*
X354341Y144175D01*
X393642*
Y155226*
X365392*
G37*
X202085Y188051D02*
G36*
X200654D01*
Y155226*
X202085*
Y188051*
G37*
X280461Y155226D02*
G36*
Y171044D01*
G75*
G02X277820Y170538I-1615J1281*
G01*
X228554*
G75*
G02X227282Y171066I-4J1786*
G01*
X212954Y185506*
X209406*
Y188051*
X205345*
Y155226*
X207469*
G75*
G02X216419I4475J-1051*
G01*
X217850*
G75*
G02X226038I4094J-1051*
G01*
X280461*
G37*
X245340Y188051D02*
G36*
X242203D01*
Y185254*
X236113*
Y188051*
X215496*
Y188019*
X229295Y174113*
X277820*
G75*
G02X280461Y173606I1026J-1788*
G01*
Y175063*
X249143*
G75*
G02X247513Y176693J1630*
G01*
Y185878*
X245340Y188051*
G37*
X283956Y155226D02*
G36*
Y179513D01*
X275417Y188051*
X266790*
Y185506*
X260699*
Y188051*
X249950*
X250294Y187707*
G75*
G02X250773Y186553I-1150J-1154*
G01*
Y186553*
Y178323*
X282091*
G75*
G02X283721Y176693J-1630*
G01*
Y155226*
X283956*
G37*
X296935D02*
G36*
Y177890D01*
X289446Y185380*
X285660*
Y188051*
X280028*
X286737Y181342*
G75*
G02X287216Y180188I-1150J-1154*
G01*
Y180188*
Y155226*
X296935*
G37*
X302676Y188051D02*
G36*
X291750D01*
Y187685*
X299717Y179719*
G75*
G02X300195Y178566I-1150J-1154*
G01*
Y178565*
Y155226*
X302676*
Y188051*
G37*
X310746D02*
G36*
X305936D01*
Y155226*
X312004*
Y185506*
X310746*
Y188051*
G37*
X323486D02*
G36*
X316837D01*
Y185506*
X315579*
Y155226*
X323486*
Y188051*
G37*
X372317D02*
G36*
X372014D01*
G75*
G02Y188050I-2654J0*
G01*
G75*
G02X368691Y186420I-2061*
G01*
X365636*
Y185006*
X359546*
Y188051*
X352737*
Y155226*
X360782*
X372317Y166760*
Y188051*
G37*
X345983D02*
G36*
X341298D01*
Y185006*
X335207*
Y188051*
X327061*
Y155226*
X345983*
Y188051*
G37*
X349478D02*
G36*
X349243D01*
Y155226*
X349478*
Y188051*
G37*
X389971D02*
G36*
Y185006D01*
X383880*
Y188051*
X375576*
Y166085*
Y166085*
G75*
G02X375098Y164931I-1629*
G01*
X365392Y155226*
X393642*
Y188051*
X389971*
G37*
X202085Y196424D02*
G36*
X200654D01*
Y188051*
X202085*
Y196424*
G37*
X236113Y188051D02*
G36*
Y191344D01*
X242046*
X240110Y193281*
G75*
G02X236114Y196174I-951J2893*
G01*
G75*
G02X236124Y196424I3046*
G01*
X215496*
G75*
G02X209406I-3045*
G01*
X205345*
Y188051*
X209406*
Y191596*
X215496*
Y188051*
X236113*
G37*
X275417D02*
G36*
X268675Y194794D01*
X266318*
G75*
G02X260700Y196424I-2572J1630*
G01*
X242194*
G75*
G02X242204Y196174I-3035J-250*
G01*
G75*
G02Y196171I-2958J-2*
G01*
G75*
G02X242183Y195818I-2998*
G01*
X249950Y188051*
X260699*
Y191596*
X266790*
Y188051*
X275417*
G37*
X245340D02*
G36*
X242203Y191188D01*
Y188051*
X245340*
G37*
X302676D02*
G36*
Y192224D01*
X300232Y194669*
X291278*
G75*
G02X285661Y196299I-2572J1630*
G01*
G75*
G02X285663Y196424I3049J5*
G01*
X271655*
X280028Y188051*
X285660*
Y191470*
X291750*
Y188051*
X302676*
G37*
X323486D02*
G36*
Y191928D01*
X320777Y194636*
X316257*
G75*
G02X310746Y196424I-2465J1787*
G01*
X303087*
X305457Y194054*
G75*
G02X305936Y192900I-1150J-1154*
G01*
Y192900*
Y188051*
X310746*
Y191596*
X316837*
Y188051*
X323486*
G37*
X374648Y196424D02*
G36*
X365593D01*
G75*
G02X365635Y195924I-3005J-500*
G01*
G75*
G02X360017Y194294I-3045*
G01*
X354914*
X352737Y192118*
Y188051*
X359546*
Y191096*
X365636*
Y189680*
X368691*
G75*
G02X372014Y188051I1261J-1630*
G01*
X372317*
Y193417*
Y193417*
G75*
G02X372795Y194571I1629*
G01*
X374648Y196424*
G37*
X345983Y188051D02*
G36*
Y188873D01*
X340719Y194137*
G75*
G02X335207Y195924I-2466J1787*
G01*
G75*
G02X335249Y196424I3046J-1*
G01*
X324045*
X326537Y193932*
G75*
G02X327061Y192668I-1265J-1265*
G01*
Y192667*
Y192665*
Y188051*
X335207*
Y191096*
X341298*
Y188051*
X345983*
G37*
X352433Y196424D02*
G36*
X343043D01*
X348764Y190702*
G75*
G02X349243Y189548I-1150J-1154*
G01*
Y189548*
Y188051*
X349478*
Y192793*
Y192793*
G75*
G02X349956Y193947I1629*
G01*
X352433Y196424*
G37*
X389930D02*
G36*
G75*
G02X389971Y195924I-3005J-500D01*
G01*
G75*
G02X384354Y194294I-3045*
G01*
X377129*
X375576Y192742*
Y188051*
X383880*
Y191096*
X389971*
Y188051*
X393642*
Y196424*
X389930*
G37*
X202085Y203798D02*
G36*
X200654D01*
Y196424*
X202085*
Y203798*
G37*
X389930Y196424D02*
G36*
X393642D01*
Y203798*
X390341*
G75*
G02X383511I-3415*
G01*
X366005*
G75*
G02X359174I-3415*
G01*
X341668*
G75*
G02X334837I-3415*
G01*
X317170*
G75*
G02X310413I-3379J499*
G01*
X292101*
G75*
G02X285311I-3395J374*
G01*
X267124*
G75*
G02X260367I-3379J499*
G01*
X242565*
G75*
G02X235753I-3406J250*
G01*
X215830*
G75*
G02X209072I-3379J499*
G01*
X205345*
Y196424*
X209406*
G75*
G02X215496I3045*
G01*
X236124*
G75*
G02X242194I3035J-250*
G01*
X260700*
G75*
G02X266318Y198054I3045*
G01*
X269350*
G75*
G02X270504Y197575I0J-1629*
G01*
X271655Y196424*
X285663*
G75*
G02X291278Y197929I3043J-125*
G01*
X300907*
G75*
G02X302061Y197450I0J-1629*
G01*
X303087Y196424*
X310746*
G75*
G02X316257Y198211I3045*
G01*
X321515*
G75*
G02X322781Y197687I4J-1786*
G01*
X324045Y196424*
X335249*
G75*
G02X340825Y197554I3004J-499*
G01*
X341237*
G75*
G02X342391Y197076I0J-1629*
G01*
X343043Y196424*
X352433*
X353085Y197076*
G75*
G02X354239Y197554I1154J-1150*
G01*
X360017*
G75*
G02X365593Y196424I2572J-1630*
G01*
X374648*
X375300Y197076*
G75*
G02X376454Y197554I1154J-1150*
G01*
X384354*
G75*
G02X389930Y196424I2572J-1630*
G01*
G37*
X376723Y247815D02*
G36*
X217573D01*
G75*
G02X225390Y235967I-5070J-11848*
G01*
G75*
G02X212502Y223079I-12888*
G01*
G75*
G02X200654Y230896I1J12889*
G01*
Y203798*
X202085*
Y205024*
Y205024*
G75*
G02X202564Y206178I1629*
G01*
X217662Y221276*
G75*
G02X218816Y221755I1154J-1150*
G01*
X305167*
G75*
G02X308489Y220125I1261J-1630*
G01*
G75*
G02X305167Y218495I-2061*
G01*
X219491*
X205345Y204348*
Y203798*
X209072*
G75*
G02X209036Y204298I3379J499*
G01*
G75*
G02X215867I3415*
G01*
G75*
G02X215830Y203798I-3416J0*
G01*
X235753*
G75*
G02X235744Y204048I3406J248*
G01*
G75*
G02X242574I3415*
G01*
G75*
G02X242565Y203798I-3415J-1*
G01*
X260367*
G75*
G02X260330Y204298I3379J499*
G01*
G75*
G02X267161I3415*
G01*
G75*
G02X267124Y203798I-3416J0*
G01*
X285311*
G75*
G02X285291Y204173I3395J373*
G01*
G75*
G02X292121I3415*
G01*
G75*
G02X292101Y203798I-3416J-1*
G01*
X310413*
G75*
G02X310376Y204298I3379J499*
G01*
G75*
G02X317207I3415*
G01*
G75*
G02X317170Y203798I-3416J0*
G01*
X334837*
G75*
G02X341668I3415*
G01*
X359174*
G75*
G02X366005I3415*
G01*
X383511*
G75*
G02X390341I3415*
G01*
X393642*
Y230896*
G75*
G02X368906Y235967I-11848J5070*
G01*
G75*
G02X376723Y247815I12889J-1*
G01*
G37*
D02*
D23*
X15652Y35967D03*
Y235967D03*
X184943Y35967D03*
Y235967D03*
X212502Y35967D03*
Y235967D03*
X381794Y35967D03*
Y235967D03*
D02*
D25*
X61774Y73731D03*
X61899Y52015D03*
X67325Y73731D03*
X67450Y52015D03*
X258624Y73731D03*
X258749Y52015D03*
X264176Y73731D03*
X264300Y52015D03*
D02*
D74*
X15094Y64175D03*
Y74175D03*
Y84175D03*
Y94175D03*
Y104175D03*
Y114175D03*
Y124175D03*
Y134175D03*
Y144175D03*
Y154175D03*
X25094Y64175D03*
Y74175D03*
Y84175D03*
Y94175D03*
Y104175D03*
Y114175D03*
Y124175D03*
Y134175D03*
Y144175D03*
Y154175D03*
X94763Y41353D03*
Y51353D03*
X104763Y41353D03*
Y51353D03*
X114763Y41353D03*
Y51353D03*
X124763Y41353D03*
Y51353D03*
X134763Y41353D03*
Y51353D03*
X211944Y64175D03*
Y74175D03*
Y84175D03*
Y94175D03*
Y104175D03*
Y114175D03*
Y124175D03*
Y134175D03*
Y144175D03*
Y154175D03*
X221944Y64175D03*
Y74175D03*
Y84175D03*
Y94175D03*
Y104175D03*
Y114175D03*
Y124175D03*
Y134175D03*
Y144175D03*
Y154175D03*
X291613Y41353D03*
Y51353D03*
X301613Y41353D03*
Y51353D03*
X311613Y41353D03*
Y51353D03*
X321613Y41353D03*
Y51353D03*
X331613Y41353D03*
Y51353D03*
D02*
D75*
X15601Y188550D03*
X42309Y188300D03*
X66895Y188550D03*
X91856Y188425D03*
X116941Y188550D03*
X141402Y188050D03*
X165739D03*
X190076D03*
X212451Y188550D03*
X239159Y188300D03*
X263745Y188550D03*
X288706Y188425D03*
X313791Y188550D03*
X338253Y188050D03*
X362589D03*
X386926D03*
D02*
D76*
X15601Y196424D03*
Y204298D03*
X42309Y196174D03*
Y204048D03*
X66895Y196424D03*
Y204298D03*
X91856Y196299D03*
Y204173D03*
X116941Y196424D03*
Y204298D03*
X141402Y195924D03*
Y203798D03*
X165739Y195924D03*
Y203798D03*
X190076Y195924D03*
Y203798D03*
X212451Y196424D03*
Y204298D03*
X239159Y196174D03*
Y204048D03*
X263745Y196424D03*
Y204298D03*
X288706Y196299D03*
Y204173D03*
X313791Y196424D03*
Y204298D03*
X338253Y195924D03*
Y203798D03*
X362589Y195924D03*
Y203798D03*
X386926Y195924D03*
Y203798D03*
D02*
D77*
X26958Y167707D03*
X33822Y110797D03*
X34072Y204400D03*
X48798Y55509D03*
X52293Y99690D03*
X52917Y215257D03*
X57784Y73731D03*
X61778Y124470D03*
X63775Y157598D03*
X66520Y119034D03*
Y141495D03*
X67020Y62748D03*
X67325Y73731D03*
X71138Y62748D03*
X71762Y66617D03*
X72012Y58505D03*
X75007D03*
Y66617D03*
X78252Y58380D03*
Y66617D03*
X81247Y62623D03*
X81996Y172325D03*
X86028Y86336D03*
Y117056D03*
X88735Y104183D03*
X91107Y80220D03*
X94476Y117412D03*
Y120781D03*
Y124401D03*
Y127770D03*
X94839Y92826D03*
X97739Y131639D03*
X97989Y89081D03*
X101341Y92451D03*
X101965Y117287D03*
Y120781D03*
Y124276D03*
Y127770D03*
X104336Y95946D03*
X105459Y117287D03*
Y120906D03*
Y124276D03*
Y127895D03*
X107456Y110922D03*
Y143121D03*
X109578Y220125D03*
X110576Y99690D03*
Y146117D03*
X113446Y113781D03*
X117565Y99565D03*
X123556Y120407D03*
X124180Y117162D03*
X124554Y113543D03*
X136660Y86086D03*
X149265Y76601D03*
Y79596D03*
X151632Y108176D03*
X153633Y76601D03*
Y79721D03*
X157876Y79596D03*
X158001Y76601D03*
X161121Y48770D03*
X161995Y76601D03*
Y79596D03*
X162369Y126398D03*
X162494Y166459D03*
X173102Y92451D03*
Y188050D03*
X176971Y89081D03*
X182213Y95946D03*
X223808Y167707D03*
X230672Y110797D03*
X230922Y204400D03*
X245649Y55509D03*
X249143Y99690D03*
X249767Y215257D03*
X254635Y73731D03*
X258628Y124470D03*
X260625Y157598D03*
X263371Y119034D03*
Y141495D03*
X263870Y62748D03*
X264176Y73731D03*
X267989Y62748D03*
X268613Y66617D03*
X268862Y58505D03*
X271857D03*
Y66617D03*
X275102Y58380D03*
Y66617D03*
X278098Y62623D03*
X278846Y172325D03*
X282879Y86336D03*
Y117056D03*
X285586Y104183D03*
X287957Y80220D03*
X291327Y117412D03*
Y120781D03*
Y124401D03*
Y127770D03*
X291690Y92826D03*
X294590Y131639D03*
X294839Y89081D03*
X298191Y92451D03*
X298815Y117287D03*
Y120781D03*
Y124276D03*
Y127770D03*
X301186Y95946D03*
X302309Y117287D03*
Y120906D03*
Y124276D03*
Y127895D03*
X304306Y110922D03*
Y143121D03*
X306428Y220125D03*
X307426Y99690D03*
Y146117D03*
X310297Y113781D03*
X314415Y99565D03*
X320406Y120407D03*
X321030Y117162D03*
X321404Y113543D03*
X333510Y86086D03*
X346115Y76601D03*
Y79596D03*
X348483Y108176D03*
X350483Y76601D03*
Y79721D03*
X354727Y79596D03*
X354852Y76601D03*
X357972Y48770D03*
X358845Y76601D03*
Y79596D03*
X359220Y126398D03*
X359344Y166459D03*
X369953Y92451D03*
Y188050D03*
X373822Y89081D03*
X379063Y95946D03*
D02*
D78*
X15094Y84175D02*
X14852D01*
X6865Y92162*
Y205024*
X21966Y220125*
X109578*
X25094Y64175D02*
X25140D01*
X33572Y72607*
Y73856*
X39064Y79347*
X67325*
Y73731*
X25094Y64175D02*
X15094D01*
X42309Y196174D02*
X42672D01*
X52293Y186553*
Y176693*
X85241*
Y117056*
X86028*
X52293Y99690D02*
X110576D01*
X61778Y124470D02*
X42115D01*
X32574Y134011*
Y134175*
X25094*
X66520Y119034D02*
Y141495D01*
X67307Y66652D02*
Y73731D01*
X67325*
X136660*
Y86086*
X67450Y52015D02*
X94763D01*
Y51353*
X67450Y52015D02*
Y59093D01*
X67307*
X81247Y62623D02*
X75968D01*
Y62873*
X81996Y172325D02*
Y172450D01*
X31700*
X15601Y188550*
X86028Y86336D02*
X40062D01*
X33073Y79347*
Y79097*
X19836*
X15094Y74355*
Y74175*
X88735Y104183D02*
Y180188D01*
X72500Y196424*
X66895*
X91856Y188425D02*
X101715Y178565D01*
Y133012*
X110077*
Y110922*
X107456*
X94839Y92826D02*
X51794D01*
X33822Y110797*
X97739Y131639D02*
Y104058D01*
X113322*
X117565Y99815*
Y99565*
X97989Y89081D02*
X176971D01*
X101341Y92451D02*
X173102D01*
X104336Y95946D02*
X182213D01*
X107456Y143121D02*
Y192900D01*
X104057Y196299*
X91856*
X110576Y146117D02*
Y146241D01*
X110451*
X116941Y152731*
Y188550*
X113446Y113781D02*
Y135633D01*
X113571*
X128423Y150485*
Y192668*
X124667Y196424*
X116941*
X123556Y120407D02*
X124055D01*
X150763Y147115*
Y189548*
X144386Y195924*
X141402*
X124180Y117162D02*
X124429D01*
X154257Y146990*
Y192793*
X157389Y195924*
X165739*
X124554Y113543D02*
X124804D01*
Y113793*
X177096Y166085*
Y193417*
X179604Y195924*
X190076*
X151632Y108176D02*
X186831D01*
X195817Y99191*
Y93824*
X161620Y59628*
X102750*
X94763Y51641*
Y51353*
X173102Y188050D02*
X165739D01*
X211944Y84175D02*
X211702D01*
X203715Y92162*
Y205024*
X218816Y220125*
X306428*
X221944Y64175D02*
X221990D01*
X230423Y72607*
Y73856*
X235914Y79347*
X264176*
Y73731*
X221944Y64175D02*
X211944D01*
X239159Y196174D02*
X239522D01*
X249143Y186553*
Y176693*
X282091*
Y117056*
X282879*
X249143Y99690D02*
X307426D01*
X258628Y124470D02*
X238965D01*
X229424Y134011*
Y134175*
X221944*
X263371Y119034D02*
Y141495D01*
X264157Y66652D02*
Y73731D01*
X264176*
X333510*
Y86086*
X264300Y52015D02*
X291613D01*
Y51353*
X264300Y52015D02*
Y59093D01*
X264157*
X278098Y62623D02*
X272819D01*
Y62873*
X278846Y172325D02*
Y172450D01*
X228551*
X212451Y188550*
X282879Y86336D02*
X236913D01*
X229924Y79347*
Y79097*
X216687*
X211944Y74355*
Y74175*
X285586Y104183D02*
Y180188D01*
X269350Y196424*
X263745*
X288706Y188425D02*
X298565Y178565D01*
Y133012*
X306927*
Y110922*
X304306*
X291690Y92826D02*
X248644D01*
X230672Y110797*
X294590Y131639D02*
Y104058D01*
X310172*
X314415Y99815*
Y99565*
X294839Y89081D02*
X373822D01*
X298191Y92451D02*
X369953D01*
X301186Y95946D02*
X379063D01*
X304306Y143121D02*
Y192900D01*
X300907Y196299*
X288706*
X307426Y146117D02*
Y146241D01*
X307302*
X313791Y152731*
Y188550*
X310297Y113781D02*
Y135633D01*
X310422*
X325273Y150485*
Y192668*
X321518Y196424*
X313791*
X320406Y120407D02*
X320905D01*
X347613Y147115*
Y189548*
X341237Y195924*
X338253*
X321030Y117162D02*
X321280D01*
X351107Y146990*
Y192793*
X354239Y195924*
X362589*
X321404Y113543D02*
X321654D01*
Y113793*
X373946Y166085*
Y193417*
X376454Y195924*
X386926*
X348483Y108176D02*
X383681D01*
X392667Y99191*
Y93824*
X358471Y59628*
X299601*
X291613Y51641*
Y51353*
X369953Y188050D02*
X362589D01*
D02*
D90*
X57784Y73731D02*
X61774D01*
X61899Y52015D02*
X48798D01*
Y55509*
X94763Y41353D02*
Y51353D01*
X254635Y73731D02*
X258624D01*
X258749Y52015D02*
X245649D01*
Y55509*
X291613Y41353D02*
Y51353D01*
D02*
D127*
X67307Y59093D03*
Y66652D03*
X75968Y62873D03*
X264157Y59093D03*
Y66652D03*
X272819Y62873D03*
X0Y0D02*
M02*
